<?xml version="1.0" encoding="UTF-8" standalone="no"?>
<!-- Created with Inkscape (http://www.inkscape.org/) -->

<svg
   width="210mm"
   height="297mm"
   viewBox="0 0 210 297"
   version="1.1"
   id="svg26721"
   inkscape:version="1.2.1 (9c6d41e410, 2022-07-14)"
   sodipodi:docname="check2.svg"
   xmlns:inkscape="http://www.inkscape.org/namespaces/inkscape"
   xmlns:sodipodi="http://sodipodi.sourceforge.net/DTD/sodipodi-0.dtd"
   xmlns="http://www.w3.org/2000/svg"
   xmlns:svg="http://www.w3.org/2000/svg">
  <sodipodi:namedview
     id="namedview26723"
     pagecolor="#ffffff"
     bordercolor="#666666"
     borderopacity="1.0"
     inkscape:showpageshadow="2"
     inkscape:pageopacity="0.0"
     inkscape:pagecheckerboard="0"
     inkscape:deskcolor="#d1d1d1"
     inkscape:document-units="mm"
     showgrid="false"
     inkscape:zoom="0.46324355"
     inkscape:cx="398.27862"
     inkscape:cy="561.25984"
     inkscape:window-width="1366"
     inkscape:window-height="700"
     inkscape:window-x="0"
     inkscape:window-y="32"
     inkscape:window-maximized="1"
     inkscape:current-layer="layer1" />
  <defs
     id="defs26718" />
  <g
     inkscape:label="Layer 1"
     inkscape:groupmode="layer"
     id="layer1">
    <path
       d="m 162.139,131.56992 a 56.69059,57.834485 75.731756 0 1 -8.58218,29.71621 60.932403,62.161888 75.731757 0 1 -4.57738,6.42705 60.108996,61.321863 75.731732 0 1 -5.53017,5.62736 55.268334,56.383529 75.731748 0 1 -13.03785,8.96009 54.694443,55.798056 75.73173 0 1 -15.03065,5.28592 51.30099,52.336135 75.731761 0 1 -7.92685,1.01865 48.182014,49.154222 75.731741 0 1 -7.999618,0.0716 56.915159,58.06358 75.73172 0 1 -29.713075,-10.48384 l 0.705741,0.14866 -28.161979,7.42617 -2.040635,0.54981 0.874363,-1.92883 11.716176,-25.89071 0.100452,0.96827 a 57.139724,58.292681 75.731756 0 1 -1.677074,-50.43979 57.738569,58.903608 75.731745 0 1 15.991363,-20.683498 57.389243,58.547233 75.731745 0 1 49.594446,-12.15727 57.538955,58.699965 75.731734 0 1 23.43455,10.869636 56.840302,57.987216 75.731745 0 1 21.86001,44.514682 z m 0,0 A 55.867182,56.994461 75.731749 0 0 90.958858,77.938738 55.542806,56.663539 75.731747 0 0 68.284634,89.685988 58.137799,59.310892 75.731737 0 0 53.061525,109.88376 a 55.942035,57.070826 75.731764 0 0 -4.794254,24.55567 56.81535,57.961761 75.731753 0 0 6.561595,24.04116 l 0.279184,0.47149 -0.231701,0.47712 -11.901094,25.83558 -1.166271,-1.37903 28.223319,-7.08123 0.404356,-0.0442 0.306385,0.24254 a 55.467951,56.587174 75.731753 0 0 28.828263,10.8318 46.585093,47.525083 75.731777 0 0 7.863183,0.0937 53.371997,54.448925 75.731726 0 0 7.84123,-0.85811 55.093675,56.205343 75.731727 0 0 14.83391,-4.96309 51.974691,53.02343 75.731764 0 0 13.02795,-8.80835 62.87865,64.147405 75.731747 0 0 5.53024,-5.62741 63.702058,64.98743 75.731764 0 0 4.6078,-6.38016 56.765447,57.910851 75.73175 0 0 8.86301,-29.7218 z"
       style="fill:#88aa00;stroke-width:2.52022;fill-opacity:1"
       id="path1115" />
    <polygon
       points="197.01,91.73 208.74,73.35 212.59,75.8 197.79,99 188.13,89.23 191.37,86.02 "
       style="fill:#ffc727"
       id="polygon1117"
       transform="matrix(3.1335345,-0.34965861,0.21045302,2.0683901,-538.05251,25.486387)" />
  </g>
</svg>
