<?xml version="1.0" encoding="UTF-8" standalone="no"?>
<!-- Created with Inkscape (http://www.inkscape.org/) -->

<svg
   width="210mm"
   height="297mm"
   viewBox="0 0 210 297"
   version="1.1"
   id="svg10063"
   sodipodi:docname="man.svg"
   inkscape:version="1.2.1 (9c6d41e410, 2022-07-14)"
   xmlns:inkscape="http://www.inkscape.org/namespaces/inkscape"
   xmlns:sodipodi="http://sodipodi.sourceforge.net/DTD/sodipodi-0.dtd"
   xmlns="http://www.w3.org/2000/svg"
   xmlns:svg="http://www.w3.org/2000/svg">
  <sodipodi:namedview
     id="namedview10065"
     pagecolor="#ffffff"
     bordercolor="#666666"
     borderopacity="1.0"
     inkscape:showpageshadow="2"
     inkscape:pageopacity="0.0"
     inkscape:pagecheckerboard="0"
     inkscape:deskcolor="#d1d1d1"
     inkscape:document-units="mm"
     showgrid="false"
     inkscape:zoom="0.46324355"
     inkscape:cx="23.745609"
     inkscape:cy="526.72077"
     inkscape:window-width="1366"
     inkscape:window-height="700"
     inkscape:window-x="0"
     inkscape:window-y="32"
     inkscape:window-maximized="1"
     inkscape:current-layer="layer1" />
  <defs
     id="defs10060" />
  <g
     inkscape:label="Layer 1"
     inkscape:groupmode="layer"
     id="layer1">
    <g
       id="freepik--Character--inject-16"
       transform="matrix(0.78562736,0,0,0.79186053,-22.127009,-58.403795)">
      <path
         d="m 220.86,442.91 c -2.33,0.75 -68.82,-0.1 -71.33,-1.74 -1,-0.61 -1.41,-10.3 -1.6,-22 v -0.37 c -0.05,-2.42 -0.08,-4.91 -0.09,-7.43 0,-0.35 0,-0.69 0,-1 l 3.22,-34.49 44.48,0.43 -4.38,34.17 -0.06,1.36 -0.26,7.07 v 0.73 c 0,0 25.31,11.7 27.88,13.8 2.57,2.1 4.47,8.72 2.14,9.47 z"
         style="fill:#dd6a57"
         id="path926" />
      <path
         d="m 220.86,442.91 c -2.33,0.75 -68.82,-0.1 -71.33,-1.74 -1,-0.61 -1.41,-10.3 -1.6,-22 v -0.37 c -0.05,-2.42 -0.08,-4.91 -0.09,-7.43 0,-0.35 0,-0.69 0,-1 l 43.32,0.11 -0.06,1.36 -0.26,7.07 v 0.73 c 0,0 25.31,11.7 27.88,13.8 2.57,2.1 4.47,8.72 2.14,9.47 z"
         style="fill:#ebebeb"
         id="path928" />
      <path
         d="m 220.87,442.9 c -1.2,0.39 -19.27,0.35 -36.92,0 -3.55,-0.07 -7.08,-0.15 -10.45,-0.24 -12.59,-0.34 -23,-0.86 -24,-1.49 -1,-0.63 -1.4,-10 -1.6,-21.54 0,-0.17 0,-0.33 0,-0.49 0,-0.16 0,-0.26 0,-0.38 h 0.1 l 42.85,0.07 v 0.74 c 0,0 25.3,11.7 27.87,13.79 2.57,2.09 4.48,8.8 2.15,9.54 z"
         style="fill:#ffc727"
         id="path930" />
      <path
         d="m 220.14,440.32 c -11.2,-0.42 -56.43,-1.05 -67.54,-0.61 -0.09,0 -0.09,0.07 0,0.07 11.09,0.66 56.33,0.92 67.54,0.72 0.24,0 0.24,-0.17 0,-0.18 z"
         style="fill:#263238"
         id="path932" />
      <path
         d="m 195.6,419 c -4.4,-0.88 -9.8,-0.27 -13.21,2.83 -0.13,0.12 0,0.31 0.18,0.26 a 62.51,62.51 0 0 1 13,-2.53 0.2804015,0.2804015 0 0 0 0.03,-0.56 z"
         style="fill:#263238"
         id="path934" />
      <path
         d="m 198.76,421 c -4.4,-0.88 -9.8,-0.27 -13.21,2.83 -0.14,0.12 0,0.3 0.18,0.26 a 62.38,62.38 0 0 1 13,-2.53 0.2804015,0.2804015 0 0 0 0.03,-0.56 z"
         style="fill:#263238"
         id="path936" />
      <path
         d="m 201.92,422.94 c -4.4,-0.88 -9.8,-0.27 -13.21,2.83 -0.14,0.12 0,0.3 0.18,0.26 a 61.78,61.78 0 0 1 13,-2.53 0.2804015,0.2804015 0 0 0 0.03,-0.56 z"
         style="fill:#263238"
         id="path938" />
      <path
         d="m 184,442.9 c -3.55,-0.07 -7.08,-0.15 -10.45,-0.24 -12.59,-0.34 -23,-0.86 -24,-1.49 -1,-0.63 -1.4,-10 -1.6,-21.54 0,-0.17 0,-0.33 0,-0.49 0,-0.16 0,-0.26 0,-0.38 H 148 c 5.85,4.12 26.54,17.89 36,24.14 z"
         style="fill:#263238"
         id="path940" />
      <path
         d="M 193.39,419 H 145.5 c 0,0 9.62,-111.85 9.24,-113.8 -0.48,-2.5 -3.31,-13.82 -7.07,-28.61 -1.18,-4.63 -2.46,-9.59 -3.78,-14.74 -3.57,-13.91 -7.51,-29.12 -10.94,-42.35 -5.15,-19.82 -9.18,-35.22 -9.18,-35.22 h 40.59 c 0,0 4.73,15 10.7,34.5 9.72,31.7 22.7,75.33 24,85.94 2.07,17.12 -5.67,114.28 -5.67,114.28 z"
         style="fill:#455a64"
         id="path942" />
      <path
         d="m 191.27,410.82 c -7.32,-0.15 -5.22,-0.21 -12.53,-0.28 -3.58,0 -27.1,-0.24 -30.45,0.32 -0.07,0 -0.07,0.13 0,0.15 3.35,0.55 26.87,0.34 30.45,0.3 7.31,-0.07 5.21,-0.13 12.53,-0.28 a 0.11,0.11 0 0 0 0,-0.21 z"
         style="fill:#263238"
         id="path944" />
      <path
         d="m 163.75,298.36 c -1.57,-6.92 -3.92,-13.7 -6,-20.5 q -6.24,-20.7 -12.54,-41.39 -3.13,-10.35 -6.32,-20.68 -1.6,-5.22 -3.23,-10.43 c -1.07,-3.4 -2.28,-6.77 -3.24,-10.2 -0.39,-1.39 -0.61,-0.63 -0.11,1.15 1,3.57 2,7.14 3.05,10.7 q 3.1,10.59 6.24,21.16 6.23,21 12.57,42.05 3.16,10.54 6.34,21.07 a 85.6,85.6 0 0 1 2.59,10.2 46.8,46.8 0 0 1 0.43,10.9 c -0.46,7.33 -1.31,14.64 -2,21.95 -0.69,7.31 -1.35,14.65 -2,22 q -2,21.85 -4,43.73 -0.26,2.77 -0.47,5.55 c -0.05,0.62 0.89,0.57 0.95,0 1.58,-14.41 2.78,-28.87 4.13,-43.31 1.35,-14.44 2.69,-28.73 4,-43.09 0.33,-3.61 0.72,-7.22 0.72,-10.85 a 44.59,44.59 0 0 0 -1.11,-10.01 z"
         style="fill:#263238"
         id="path946" />
      <path
         d="m 159.75,184.27 c -2.81,21.8 -8.17,62.67 -12.08,92.32 -9.16,-35.92 -23.9,-92.31 -23.9,-92.31 z"
         style="fill:#263238"
         id="path948" />
      <path
         d="m 169.27,443.56 c -2.33,0.76 -68.82,0.16 -71.34,-1.48 -1,-0.6 -1.44,-10.29 -1.68,-22 0,-0.13 0,-0.25 0,-0.37 0,-2.42 -0.09,-4.91 -0.11,-7.43 0,-0.35 0,-0.69 0,-1 -0.16,-16.93 1.06,-34.5 1.06,-34.5 l 43.46,0.28 -1.21,34.17 v 1.36 l -0.24,7.07 v 0.73 c 0,0 25.35,11.61 27.93,13.7 2.58,2.09 4.46,8.72 2.13,9.47 z"
         style="fill:#dd6a57"
         id="path950" />
      <path
         d="m 169.27,443.56 c -2.33,0.76 -68.82,0.16 -71.34,-1.48 -1,-0.6 -1.44,-10.29 -1.68,-22 0,-0.13 0,-0.25 0,-0.37 0,-2.42 -0.09,-4.91 -0.11,-7.43 0,-0.35 0,-0.69 0,-1 l 43.31,-0.05 v 1.36 l -0.24,7.07 v 0.73 c 0,0 25.35,11.61 27.93,13.7 2.58,2.09 4.46,8.72 2.13,9.47 z"
         style="fill:#ebebeb"
         id="path952" />
      <path
         d="m 169.27,443.56 c -2.33,0.76 -68.82,0.16 -71.34,-1.48 -1,-0.6 -1.44,-10.29 -1.68,-22 0,-0.13 0,-0.25 0,-0.37 l 42.91,-0.09 v 0.73 c 0,0 25.35,11.61 27.93,13.7 2.58,2.09 4.51,8.76 2.18,9.51 z"
         style="fill:#ffc727"
         id="path954" />
      <path
         d="m 168.54,441 c -11.21,-0.37 -56.44,-0.84 -67.55,-0.36 -0.09,0 -0.09,0.07 0,0.07 11.1,0.62 56.34,0.72 67.55,0.48 0.23,-0.04 0.24,-0.19 0,-0.19 z"
         style="fill:#263238"
         id="path956" />
      <path
         d="m 143.92,419.77 c -4.4,-0.87 -9.8,-0.24 -13.2,2.87 -0.13,0.12 0,0.31 0.18,0.26 a 62.51,62.51 0 0 1 13,-2.58 0.28,0.28 0 0 0 0.02,-0.55 z"
         style="fill:#263238"
         id="path958" />
      <path
         d="m 147.09,421.71 c -4.41,-0.86 -9.81,-0.23 -13.21,2.88 -0.13,0.12 0.05,0.31 0.19,0.26 a 62.29,62.29 0 0 1 13,-2.58 0.28017851,0.28017851 0 0 0 0.02,-0.56 z"
         style="fill:#263238"
         id="path960" />
      <path
         d="m 150.25,423.66 c -4.4,-0.86 -9.8,-0.23 -13.2,2.88 -0.13,0.12 0,0.3 0.18,0.26 a 61.86,61.86 0 0 1 13,-2.58 0.28017851,0.28017851 0 0 0 0.02,-0.56 z"
         style="fill:#263238"
         id="path962" />
      <path
         d="m 163.05,184.27 c 0,0 -0.94,19.42 -5.38,34.8 -0.35,1.27 -0.74,2.52 -1.16,3.72 a 72.26,72.26 0 0 0 -11.69,6 c 0,0 -0.47,15.62 -0.93,33 -0.51,19.48 -1,41.21 -0.94,45.81 0.42,17.24 -2.13,112 -2.13,112 L 93,419.9 c 0,0 8.63,-105.86 8.57,-112.18 -0.1,-10.15 2.3,-55 4.16,-87.73 1.13,-20.16 2.06,-35.71 2.06,-35.71 z"
         style="fill:#455a64"
         id="path964" />
      <path
         d="m 139.18,411.18 c -7.31,-0.12 -5.21,-0.19 -12.53,-0.22 -3.58,0 -27.1,-0.12 -30.44,0.45 -0.07,0 -0.07,0.13 0,0.15 3.35,0.54 26.87,0.23 30.45,0.17 7.31,-0.1 5.21,-0.15 12.52,-0.33 a 0.11,0.11 0 0 0 0,-0.22 z"
         style="fill:#263238"
         id="path966" />
      <path
         d="m 111.77,191.22 c -0.88,26.71 -1.8,53.42 -3,80.12 -1.2,26.7 -2.8,53.58 -5,80.3 -1.25,14.93 -2.42,35.93 -4,50.83 0,0.1 0.14,0.14 0.15,0 3.48,-26.5 5.42,-59.26 7.13,-85.93 1.71,-26.67 2.86,-53.36 3.76,-80.06 0.52,-15.11 0.9,-30.21 1.35,-45.32 -0.05,-0.16 -0.38,-0.16 -0.39,0.06 z"
         style="fill:#263238"
         id="path968" />
      <path
         d="m 158.5,221.63 a 88.68,88.68 0 0 0 -13.68,7.18 c -0.17,0.1 0,0.37 0.14,0.28 4.62,-2.25 9.34,-4.41 13.82,-6.91 a 0.31,0.31 0 0 0 -0.28,-0.55 z"
         style="fill:#263238"
         id="path970" />
      <path
         d="m 158.77,205.16 c -0.32,1.7 -0.73,3.39 -1.1,5.08 -0.37,1.69 -0.59,3.2 -1,4.77 a 8.2,8.2 0 0 1 -2.23,4 c -0.62,0.57 -1.3,1.09 -2,1.62 l -1.11,0.85 0.12,-0.69 c 0.12,-0.64 0.23,-1.29 0.33,-1.93 0.24,-1.44 0.47,-2.87 0.69,-4.31 0.43,-2.82 0.83,-5.68 1.42,-8.47 a 0.09340771,0.09340771 0 0 0 -0.18,-0.05 c -0.7,2.77 -1.48,5.51 -2.09,8.31 -0.3,1.37 -1.37,8.13 -1.42,8.61 -0.05,0.48 -0.09,1 -0.1,1.49 a 5.53,5.53 0 0 0 0,1.52 c 0,0.12 0.17,0.1 0.23,0 v 0 a 5.66,5.66 0 0 0 0.43,-1.47 14.62,14.62 0 0 0 0.32,-1.46 c 0,-0.18 0.06,-0.36 0.08,-0.54 0.67,-0.41 1.29,-0.94 1.91,-1.39 0.62,-0.45 1.36,-1 2,-1.5 a 7.57,7.57 0 0 0 2.43,-3.79 28.6,28.6 0 0 0 0.8,-4.87 c 0.21,-1.92 0.37,-3.85 0.64,-5.77 0.06,-0.08 -0.15,-0.17 -0.17,-0.01 z"
         style="fill:#263238"
         id="path972" />
      <path
         d="m 145.81,134.19 c 2.65,7.4 12,24 26.34,37.07 5.55,5.05 46.84,1.73 50.93,0.14 2.86,-1.12 8.2,-21.93 5.19,-23.81 -5.64,-3.53 -42.55,4.61 -44.12,3.78 -2.4,-1.28 -18.29,-11.93 -28.53,-22.05 -7.47,-7.38 -14.22,-7.45 -9.81,4.87 z"
         style="fill:#dd6a57"
         id="path974" />
      <path
         d="m 156.42,156.06 23.42,-9.3 c 0,0 -21,-18.07 -28.7,-21.64 -8.65,-4 -8.81,1.28 -5.77,9.82 3.04,8.54 11.05,21.12 11.05,21.12 z"
         style="fill:#37474f"
         id="path976" />
      <path
         d="m 174.89,143.91 c -0.86,0.19 -8.2,3 -9.78,3.62 -1.58,0.62 -8.09,3.19 -9.67,4 a 0.06,0.06 0 0 0 0,0.12 c 1.7,-0.48 8.26,-3 9.89,-3.66 1.63,-0.66 8.83,-3.54 9.58,-4 0.09,0.01 0.09,-0.09 -0.02,-0.08 z"
         style="fill:#263238"
         id="path978" />
      <path
         d="m 165.45,152.47 -9,3.59 c 0,0 -8,-12.59 -11,-21.12 -2.22,-6.24 -2.73,-10.76 0.53,-11.16 z"
         style="fill:#263238"
         id="path980" />
      <path
         d="m 102.4,205.41 c 0.15,0.17 66.38,0.6 67,-0.07 0.85,-1 -13.86,-72.77 -20.63,-81.66 -1.45,-1.9 -10.58,-4.49 -15.88,-0.17 -11.26,9.17 -21,40.64 -23.3,50.14 -3.76,15.66 -7.74,31.14 -7.19,31.76 z"
         style="fill:#ffc727"
         id="path982" />
      <path
         d="M 149.14,124.24 H 132 c 0.28,-0.26 0.56,-0.5 0.84,-0.73 a 6.55,6.55 0 0 1 0.53,-0.39 h 14.73 a 2.91,2.91 0 0 1 0.62,0.56 5.43,5.43 0 0 1 0.42,0.56 z"
         style="opacity:0.1"
         id="path984" />
      <path
         d="m 150.74,127.46 h -21.65 c 0.31,-0.39 0.62,-0.77 0.94,-1.13 h 20.22 c 0.16,0.35 0.32,0.73 0.49,1.13 z"
         style="opacity:0.1"
         id="path986" />
      <path
         d="m 152,130.68 h -25.23 c 0.26,-0.39 0.51,-0.76 0.77,-1.13 h 24 z"
         style="opacity:0.1"
         id="path988" />
      <path
         d="M 153.07,133.89 H 124.8 c 0.22,-0.38 0.44,-0.76 0.67,-1.13 h 27.23 c 0.13,0.37 0.3,0.75 0.37,1.13 z"
         style="opacity:0.1"
         id="path990" />
      <path
         d="M 154.09,137.11 H 123 c 0.2,-0.38 0.39,-0.76 0.6,-1.13 h 30.1 c 0.15,0.37 0.3,0.75 0.39,1.13 z"
         style="opacity:0.1"
         id="path992" />
      <path
         d="m 155,140.33 h -33.57 c 0.18,-0.38 0.36,-0.76 0.55,-1.13 h 32.73 z"
         style="opacity:0.1"
         id="path994" />
      <path
         d="m 156,143.54 h -36 l 0.51,-1.13 h 35.17 c 0.06,0.37 0.16,0.75 0.32,1.13 z"
         style="opacity:0.1"
         id="path996" />
      <path
         d="m 156.82,146.76 h -38.26 l 0.48,-1.13 h 37.48 z"
         style="opacity:0.1"
         id="path998" />
      <path
         d="m 157.67,150 h -40.41 c 0.14,-0.38 0.29,-0.75 0.45,-1.13 h 39.67 c 0.09,0.35 0.19,0.73 0.29,1.13 z"
         style="opacity:0.1"
         id="path1000" />
      <path
         d="M 158.49,153.19 H 116 c 0.14,-0.38 0.28,-0.75 0.43,-1.13 h 41.76 c 0.11,0.38 0.21,0.75 0.3,1.13 z"
         style="opacity:0.1"
         id="path1002" />
      <path
         d="m 159.3,156.41 h -44.45 c 0.13,-0.38 0.27,-0.75 0.41,-1.13 H 159 c 0.11,0.38 0.2,0.72 0.3,1.13 z"
         style="opacity:0.1"
         id="path1004" />
      <path
         d="m 160.08,159.62 h -46.34 c 0.12,-0.37 0.25,-0.75 0.39,-1.12 h 45.68 z"
         style="opacity:0.1"
         id="path1006" />
      <path
         d="m 160.85,162.84 h -48.17 l 0.36,-1.13 h 47.54 z"
         style="opacity:0.1"
         id="path1008" />
      <path
         d="m 161.6,166.06 h -49.92 c 0.11,-0.37 0.22,-0.75 0.34,-1.13 h 49.33 c 0.08,0.38 0.17,0.76 0.25,1.13 z"
         style="opacity:0.1"
         id="path1010" />
      <path
         d="m 162.35,169.27 h -51.61 l 0.32,-1.12 h 51 c 0.11,0.38 0.2,0.75 0.29,1.12 z"
         style="opacity:0.1"
         id="path1012" />
      <path
         d="m 163.07,172.49 h -53.2 c 0.09,-0.35 0.19,-0.73 0.29,-1.13 h 52.66 c 0.08,0.38 0.18,0.75 0.25,1.13 z"
         style="opacity:0.1"
         id="path1014" />
      <path
         d="m 163.79,175.71 h -54.7 l 0.27,-1.13 h 54.18 c 0.08,0.42 0.16,0.76 0.25,1.13 z"
         style="opacity:0.1"
         id="path1016" />
      <path
         d="m 164.49,178.92 h -56.18 l 0.27,-1.12 h 55.67 z"
         style="opacity:0.1"
         id="path1018" />
      <path
         d="m 165.17,182.14 h -57.64 l 0.27,-1.13 h 57.13 c 0.07,0.38 0.17,0.75 0.24,1.13 z"
         style="opacity:0.1"
         id="path1020" />
      <path
         d="m 165.85,185.36 h -59.1 l 0.27,-1.13 h 58.6 c 0.08,0.38 0.16,0.77 0.23,1.13 z"
         style="opacity:0.1"
         id="path1022" />
      <path
         d="M 166.51,188.57 H 106 l 0.27,-1.13 h 60 c 0.09,0.38 0.17,0.76 0.24,1.13 z"
         style="opacity:0.1"
         id="path1024" />
      <path
         d="m 167.16,191.79 h -62 c 0.1,-0.37 0.19,-0.75 0.28,-1.13 h 61.47 c 0.09,0.34 0.18,0.76 0.25,1.13 z"
         style="opacity:0.1"
         id="path1026" />
      <path
         d="m 167.79,195 h -63.37 c 0.09,-0.37 0.17,-0.74 0.27,-1.13 h 62.88 c 0.07,0.4 0.15,0.77 0.22,1.13 z"
         style="opacity:0.1"
         id="path1028" />
      <path
         d="m 168.39,198.22 h -64.72 c 0.08,-0.37 0.17,-0.74 0.26,-1.13 h 64.25 c 0.07,0.39 0.14,0.76 0.21,1.13 z"
         style="opacity:0.1"
         id="path1030" />
      <path
         d="m 169,201.44 h -66 c 0.07,-0.35 0.15,-0.73 0.25,-1.13 h 65.55 c 0.03,0.4 0.09,0.77 0.2,1.13 z"
         style="opacity:0.1"
         id="path1032" />
      <path
         d="m 169.41,204.66 h -67 c 0,-0.3 0.09,-0.68 0.17,-1.13 h 66.72 c 0.04,0.47 0.08,0.84 0.11,1.13 z"
         style="opacity:0.1"
         id="path1034" />
      <polygon
         points="223.47,130.6 246.84,125.31 231.03,168.18 224.37,211.59 206.7,215.97 188.93,208.34 170.92,214.23 151.97,207.29 162.56,162.02 166.74,121.43 188.7,127.26 207.06,123.58 "
         style="fill:#ebebeb"
         id="polygon1036" />
      <polygon
         points="188.7,127.26 207.06,123.58 188.93,208.34 170.92,214.23 "
         style="fill:#dbdbdb"
         id="polygon1038" />
      <polygon
         points="224.37,211.59 206.7,215.97 223.47,130.6 246.84,125.31 231.03,168.18 "
         style="fill:#dbdbdb"
         id="polygon1040" />
      <path
         d="m 242.44,144.71 c 0.73,4.3 3.93,10.3 3.43,13.5 a 3.73,3.73 0 0 1 -3.06,3.22 c 0,0 2.66,2.42 1.72,5.25 -0.48,1.46 -3.24,2 -3.24,2 a 4.44,4.44 0 0 1 1.06,4.5 c -0.79,2 -3.43,2.18 -3.43,2.18 0,0 1.06,2.86 -0.39,4.6 -2.93,3.54 -20.42,-1.4 -21.3,-8.61 -0.41,-3.36 3.79,-1.92 3.79,-1.92 0,0 -5.55,-3.53 -4.62,-7.17 0.93,-3.64 6.28,-1.43 6.28,-1.43 0,0 -5.35,-3.47 -4,-7.14 1.35,-3.67 6.38,-0.7 6.38,-0.7 0,0 -3.15,-3.73 -1.47,-6.31 2.75,-4.25 9.93,4.08 14,4.26 l 2.09,-6.15 z"
         style="fill:#dd6a57"
         id="path1042" />
      <path
         d="m 244,151.09 c -0.34,-4.14 2.82,-5 3.61,-8.91 0.88,-4.37 -4.49,-4.68 -7.85,2.36 l -2.17,6.37 z"
         style="fill:#dd6a57"
         id="path1044" />
      <path
         d="m 238.51,175.42 a 0.05,0.05 0 0 1 0,0.1 31.61,31.61 0 0 1 -17.72,-6.17 c -0.16,-0.13 0,-0.44 0.18,-0.34 a 64.65,64.65 0 0 0 17.54,6.41 z"
         style="fill:#263238"
         id="path1046" />
      <path
         d="m 241.37,168.71 c 0.07,0 0,0.13 0,0.12 a 29.49,29.49 0 0 1 -18.91,-7.93 c -0.17,-0.17 -0.16,-0.5 0.06,-0.32 3.62,3.11 13.08,7.02 18.85,8.13 z"
         style="fill:#263238"
         id="path1048" />
      <path
         d="m 224.79,152.48 c 5.09,4.66 11.15,7.22 17.76,9 0.08,0 0,0.15 0,0.15 -3.47,0 -7.56,-1.52 -10.65,-3 a 18.12,18.12 0 0 1 -7.24,-5.93 c -0.1,-0.15 0.02,-0.32 0.13,-0.22 z"
         style="fill:#263238"
         id="path1050" />
      <path
         d="m 124,129.42 c -11.66,12.92 -34.26,46.28 -29.91,55.13 5.85,11.92 28.05,29.7 36,32.61 3.43,1.25 18.19,-23.61 15,-25.89 -3.8,-2.73 -24.92,-17.76 -24.71,-19.17 0.21,-1.41 6.85,-17.65 10.47,-32 4.23,-16.6 -0.44,-17.78 -6.85,-10.68 z"
         style="fill:#dd6a57"
         id="path1052" />
      <path
         d="m 130.69,188.93 c 0,0 10.73,-2.89 17.83,-4.46 4,-0.87 10.89,-1.75 14.09,-1.06 4.79,1 24.17,8.42 22.48,13.16 -1.53,4.29 -17.37,-4.17 -17.37,-4.17 0,0 16.74,7.12 13.95,11.94 -2.79,4.82 -19.42,-7.11 -19.42,-7.11 0,0 17,7.7 13.37,12.22 -2.77,3.42 -18.44,-6.55 -18.44,-6.55 0,0 14.59,6.73 11.9,10.36 -3,4 -18,-4.27 -18,-4.27 -8.42,8.09 -16,9.61 -21,8.17 -1.21,-0.36 0.61,-28.23 0.61,-28.23 z"
         style="fill:#dd6a57"
         id="path1054" />
      <path
         d="m 162.09,189.56 c 2,0.77 4,1.53 5.94,2.47 1.94,0.94 3.81,1.95 5.64,3.06 a 36.49,36.49 0 0 1 6.69,5 c -3.86,-3.15 -10.68,-6.62 -12.61,-7.56 -1.93,-0.94 -3.78,-2 -5.7,-2.92 -0.05,0 -0.05,-0.07 0.04,-0.05 z"
         style="fill:#263238"
         id="path1056" />
      <path
         d="m 158.56,196.44 c 2.51,1.09 5,2.07 7.5,3.27 2.5,1.2 4.67,2.54 7,3.9 0.19,0.11 0.07,0.17 -0.12,0.07 -2.41,-1.26 -4.74,-2.24 -7.16,-3.48 -2.42,-1.24 -4.81,-2.56 -7.27,-3.7 z"
         style="fill:#263238"
         id="path1058" />
      <path
         d="m 154.48,201.8 a 60.61,60.61 0 0 1 11.08,5.88 c 0.17,0.11 0,0.18 -0.17,0.08 -3.65,-2 -6.49,-3.65 -11,-5.83 -0.03,-0.03 0.01,-0.16 0.09,-0.13 z"
         style="fill:#263238"
         id="path1060" />
      <path
         d="m 126.17,157.6 -24.72,-4.93 c 0,0 17.41,-21.57 24.32,-26.47 7.78,-5.51 8.9,-0.33 7.45,8.62 -1.45,8.95 -7.05,22.78 -7.05,22.78 z"
         style="fill:#37474f"
         id="path1062" />
      <path
         d="m 126.39,153.28 c -0.83,-0.3 -8.52,-1.9 -10.2,-2.21 -1.68,-0.31 -8.53,-1.64 -10.29,-1.82 a 0.06,0.06 0 0 0 0,0.12 c 1.69,0.5 8.6,1.87 10.3,2.22 1.7,0.35 9.35,1.77 10.21,1.81 0.04,0 0.04,-0.1 -0.02,-0.12 z"
         style="fill:#263238"
         id="path1064" />
      <path
         d="m 140.72,118.7 c -5.45,-0.61 -12,4.06 -7.14,10.37 4.86,6.31 10,7.54 12.88,6.66 3.41,-1.07 4.68,-8 3.84,-11.22 -0.84,-3.22 -4.93,-5.29 -9.58,-5.81 z"
         style="fill:#455a64"
         id="path1066" />
      <path
         d="m 145.2,133.45 c -2.28,0.34 -9,-3.83 -11.51,-8.33 -0.17,-0.31 1,-12.76 0.95,-15.25 0,-0.51 15.66,3.61 15.66,3.61 a 39.51,39.51 0 0 0 -1.4,9.58 5.48,5.48 0 0 0 0.12,1 c 0,0 0,0.1 0,0.17 0.36,1.96 -0.48,8.77 -3.82,9.22 z"
         style="fill:#dd6a57"
         id="path1068" />
      <path
         d="m 135.64,109.94 c 0.63,3.77 3.16,14.32 11.8,14.42 a 10,10 0 0 0 1.6,-0.11 v -0.17 a 6.5,6.5 0 0 1 -0.11,-1 39.74,39.74 0 0 1 1.39,-9.58 c 0,0 -11.21,-2.96 -14.68,-3.56 z"
         style="fill:#263238"
         id="path1070" />
      <path
         d="m 157.54,85.74 c 0,0 4.72,3.15 4.63,8.55 -0.09,5.4 -2.35,10.64 -2.85,10.82 -0.5,0.18 -1.78,-19.37 -1.78,-19.37 z"
         style="fill:#263238"
         id="path1072" />
      <path
         d="m 136.16,88.82 c -2.8,5.07 -3.25,21.33 -0.14,25.63 4.52,6.24 13.56,8.66 19.28,2.86 5.54,-5.63 5.75,-26.83 2.12,-30.91 -5.35,-6.01 -17.13,-5.06 -21.26,2.42 z"
         style="fill:#dd6a57"
         id="path1074" />
      <path
         d="m 149.42,101.76 c 0,0 -0.08,0 -0.08,0.1 0,1.09 -0.19,2.35 -1.19,2.68 a 0.03,0 -90 0 0 0,0.06 c 1.22,-0.13 1.45,-1.8 1.27,-2.84 z"
         style="fill:#263238"
         id="path1076" />
      <path
         d="m 148.48,100.59 c -1.75,-0.19 -2,3.33 -0.38,3.51 1.62,0.18 1.9,-3.35 0.38,-3.51 z"
         style="fill:#263238"
         id="path1078" />
      <path
         d="m 155.45,102.12 c 0,-0.05 0.08,0 0.08,0.1 -0.12,1.09 -0.06,2.36 0.9,2.79 0,0 0,0.07 0,0.06 -1.21,-0.26 -1.26,-1.94 -0.98,-2.95 z"
         style="fill:#263238"
         id="path1080" />
      <path
         d="m 156.51,101.05 c 1.76,0 1.65,3.52 0,3.53 -1.65,0.01 -1.51,-3.53 0,-3.53 z"
         style="fill:#263238"
         id="path1082" />
      <path
         d="m 147,99.41 a 11.6,11.6 0 0 0 1.4,-0.38 2.34,2.34 0 0 0 1.35,-0.66 0.75,0.75 0 0 0 -0.05,-0.91 1.84,1.84 0 0 0 -1.85,-0.33 2.72,2.72 0 0 0 -1.65,1.07 0.79,0.79 0 0 0 0.8,1.21 z"
         style="fill:#263238"
         id="path1084" />
      <path
         d="m 158,98.59 a 13,13 0 0 1 -1.37,-0.46 2.36,2.36 0 0 1 -1.31,-0.74 0.75,0.75 0 0 1 0.1,-0.91 1.87,1.87 0 0 1 1.87,-0.22 2.74,2.74 0 0 1 1.58,1.16 0.79,0.79 0 0 1 -0.87,1.17 z"
         style="fill:#263238"
         id="path1086" />
      <path
         d="m 147.4,111.55 c 0.24,0.28 0.48,0.65 0.87,0.71 a 2.91,2.91 0 0 0 1.2,-0.19 c 0,0 0.07,0 0,0.06 a 1.46,1.46 0 0 1 -1.43,0.49 1.17,1.17 0 0 1 -0.79,-1 c 0.03,-0.09 0.12,-0.11 0.15,-0.07 z"
         style="fill:#263238"
         id="path1088" />
      <path
         d="m 148.78,108.36 a 3.78,3.78 0 0 0 2.37,1.84 4.94,4.94 0 0 0 1.33,0.15 1.11,1.11 0 0 0 0.26,0 h 0.24 a 0.28,0.28 0 0 0 0.24,-0.23 v 0 -0.12 0 -0.1 c 0.09,-0.84 0.1,-2.13 0.1,-2.13 0.29,0.18 1.81,1 1.82,0.56 a 56.19,56.19 0 0 0 -0.64,-11.36 0.1,0.1 0 0 0 -0.2,0 c -0.18,3.51 0.25,7 0.13,10.55 a 6.67,6.67 0 0 0 -1.72,-0.65 c -0.12,0 0,2.48 0,2.85 a 5.17,5.17 0 0 1 -3.77,-1.47 c -0.12,-0.05 -0.21,0.02 -0.16,0.11 z"
         style="fill:#263238"
         id="path1090" />
      <path
         d="m 152,109.89 a 4.44,4.44 0 0 1 -1.87,1.24 1.93,1.93 0 0 1 -1.21,0 c -0.86,-0.29 -0.82,-1.09 -0.61,-1.76 a 4.7,4.7 0 0 1 0.47,-1 5.66,5.66 0 0 0 3.22,1.52 z"
         style="fill:#263238"
         id="path1092" />
      <path
         d="m 150.15,111.13 a 1.93,1.93 0 0 1 -1.21,0 c -0.86,-0.29 -0.82,-1.09 -0.61,-1.76 a 2,2 0 0 1 1.82,1.76 z"
         style="fill:#ff9cbd"
         id="path1094" />
      <path
         d="m 134.22,104.12 c 1.94,0.65 4.32,-5.18 5,-7.42 0.6,-2 1.39,-8.28 1.5,-8.71 0.11,-0.43 8.39,5.78 13.35,4.45 4.96,-1.33 8.34,-5.68 8.46,-7.74 0.12,-2.06 -5.89,-7.43 -11.17,-7.82 -5.28,-0.39 -12.6,6.18 -12.6,6.18 A 24.36,24.36 0 0 0 141.19,80 c -0.08,-0.24 -3.52,1 -4.21,3.47 0,0 0.75,-3 0.49,-3.11 -0.26,-0.11 -3,2.5 -2.42,4.5 0,0 -3.13,2.59 -3.48,5.5 -0.35,2.91 0.37,13.01 2.65,13.76 z"
         style="fill:#263238"
         id="path1096" />
      <path
         d="m 157.6,91.49 a 16.6,16.6 0 0 1 -4.69,1.56 11.23,11.23 0 0 1 -5.29,-1 16.73,16.73 0 0 1 -4.6,-2.86 c -1.2,-1 -2.27,-2.29 -3.56,-3.22 -0.33,-0.24 -0.72,0.23 -0.53,0.53 a 17.63,17.63 0 0 0 8.79,6.78 10.18,10.18 0 0 0 9.9,-1.78 c 0,0 0,-0.02 -0.02,-0.01 z"
         style="fill:#263238"
         id="path1098" />
      <path
         d="m 146.44,107.58 a 4.84,4.84 0 1 1 5.6,-5.21 v 0 a 4.86,4.86 0 0 1 -4.4,5.25 4.79,4.79 0 0 1 -1.2,-0.04 z m 1.45,-8.92 a 4.51,4.51 0 0 0 -1,0 4.2,4.2 0 1 0 1,0 z"
         style="fill:#ffc727"
         id="path1100" />
      <path
         d="m 157.54,108 c -1.83,-0.3 -3.18,-2.44 -3.07,-5 a 5.73,5.73 0 0 1 1.17,-3.34 3,3 0 0 1 5.15,0.23 5.82,5.82 0 0 1 0.88,3.42 c -0.12,2.67 -1.83,4.77 -3.82,4.68 z m 1,-9 h -0.25 a 2.56,2.56 0 0 0 -2.11,1.09 5.21,5.21 0 0 0 -1,3 c -0.1,2.3 1.14,4.24 2.77,4.31 1.63,0.07 3,-1.75 3.14,-4 a 5.08,5.08 0 0 0 -0.77,-3 2.65,2.65 0 0 0 -1.82,-1.4 z"
         style="fill:#ffc727"
         id="path1102" />
      <path
         d="m 151.85,102.93 -0.39,-0.52 c 0.76,-0.58 2.49,-1.34 3.61,0 l -0.49,0.42 c -1,-1.2 -2.66,0.04 -2.73,0.1 z"
         style="fill:#ffc727"
         id="path1104" />
      <path
         d="m 131.2,103.44 -0.56,-0.32 c 0.15,-0.26 1.51,-2.56 3,-2.73 1.49,-0.17 9,0.81 9.41,0.87 l -0.09,0.64 a 82.19,82.19 0 0 0 -9.24,-0.87 c -1,0.11 -2.16,1.78 -2.52,2.41 z"
         style="fill:#ffc727"
         id="path1106" />
      <path
         d="m 136.8,102.29 c 0,0 -2.58,-5.76 -5.13,-4.93 -2.55,0.83 -1.28,8.7 1.23,10.22 a 2.81,2.81 0 0 0 4,-0.77 z"
         style="fill:#dd6a57"
         id="path1108" />
      <path
         d="m 132.09,99.6 c 0,0 -0.06,0.05 0,0.07 1.75,1.13 2.42,3.08 2.77,5 a 1.55,1.55 0 0 0 -2.2,-0.85 c 0,0 0,0.12 0,0.12 a 1.73,1.73 0 0 1 1.75,0.94 8.83,8.83 0 0 1 0.6,1.68 c 0.06,0.19 0.38,0.15 0.35,0 v 0 c 0.52,-2.47 -0.72,-6.22 -3.27,-6.96 z"
         style="fill:#263238"
         id="path1110" />
    </g>
  </g>
</svg>
