<?xml version="1.0" encoding="UTF-8" standalone="no"?>
<!-- Created with Inkscape (http://www.inkscape.org/) -->

<svg
   version="1.1"
   id="svg2"
   xml:space="preserve"
   width="2666.6667"
   height="4000"
   viewBox="0 0 2666.6667 4000"
   sodipodi:docname="12560.svg"
   inkscape:version="1.2.1 (9c6d41e410, 2022-07-14)"
   xmlns:inkscape="http://www.inkscape.org/namespaces/inkscape"
   xmlns:sodipodi="http://sodipodi.sourceforge.net/DTD/sodipodi-0.dtd"
   xmlns="http://www.w3.org/2000/svg"
   xmlns:svg="http://www.w3.org/2000/svg"><defs
     id="defs6" /><sodipodi:namedview
     id="namedview4"
     pagecolor="#ffffff"
     bordercolor="#666666"
     borderopacity="1.0"
     inkscape:pageshadow="2"
     inkscape:pageopacity="0.0"
     inkscape:pagecheckerboard="0"
     inkscape:showpageshadow="2"
     inkscape:deskcolor="#d1d1d1"
     showgrid="false"
     inkscape:zoom="0.18384776"
     inkscape:cx="337.23554"
     inkscape:cy="2023.4133"
     inkscape:window-width="1366"
     inkscape:window-height="700"
     inkscape:window-x="0"
     inkscape:window-y="32"
     inkscape:window-maximized="1"
     inkscape:current-layer="g10" /><g
     id="g8"
     inkscape:groupmode="layer"
     inkscape:label="ink_ext_XXXXXX"
     transform="matrix(1.3333333,0,0,-1.3333333,0,4000)"><g
       id="g10"
       transform="scale(0.1)"><path
         d="M 20000,0 H 0 V 30000 H 20000 V 0"
         style="fill:#f6f0f8;fill-opacity:0;fill-rule:nonzero;stroke:none"
         id="path12" /><path
         d="m 15153.7,22640 h -20.2 v 2121.4 c 0,703.4 -570.2,1273.6 -1273.6,1273.6 H 6140.1 c -703.39,0 -1273.6,-570.2 -1273.6,-1273.6 V 22640 h -20.22 c -91.83,0 -166.28,-74.4 -166.28,-166.3 v -1467.4 c 0,-91.9 74.45,-166.3 166.28,-166.3 h 20.22 v -350 h -20.22 c -91.83,0 -166.28,-74.4 -166.28,-166.3 v -1467.4 c 0,-91.9 74.45,-166.3 166.28,-166.3 h 20.22 V 5838.6 c 0,-703.4 570.21,-1273.6 1273.6,-1273.6 h 7719.8 c 703.4,0 1273.6,570.2 1273.6,1273.6 V 19940 h 20.2 c 91.9,0 166.3,74.4 166.3,166.3 v 2367.4 c 0,91.9 -74.4,166.3 -166.3,166.3"
         style="fill:#333343;fill-opacity:1;fill-rule:nonzero;stroke:none"
         id="path14" /><path
         d="M 13728.5,4880 H 6271.55 c -571.31,0 -1034.44,463.1 -1034.44,1034.4 v 18771.2 c 0,571.3 463.13,1034.4 1034.44,1034.4 h 7456.95 c 571.3,0 1034.4,-463.1 1034.4,-1034.4 V 5914.4 c 0,-571.3 -463.1,-1034.4 -1034.4,-1034.4"
         style="fill:#ffffff;fill-opacity:1;fill-rule:nonzero;stroke:none"
         id="path16" /><path
         d="m 6893.28,24366.9 h -610 c -13.81,0 -25,11.2 -25,25 0,13.8 11.19,25 25,25 h 610 c 13.81,0 25,-11.2 25,-25 0,-13.8 -11.19,-25 -25,-25"
         style="fill:#3e3d51;fill-opacity:1;fill-rule:nonzero;stroke:none"
         id="path18" /><path
         d="m 6893.28,24141.9 h -610 c -13.81,0 -25,11.2 -25,25 0,13.8 11.19,25 25,25 h 610 c 13.81,0 25,-11.2 25,-25 0,-13.8 -11.19,-25 -25,-25"
         style="fill:#3e3d51;fill-opacity:1;fill-rule:nonzero;stroke:none"
         id="path20" /><path
         d="m 6893.28,23916.9 h -610 c -13.81,0 -25,11.2 -25,25 0,13.8 11.19,25 25,25 h 610 c 13.81,0 25,-11.2 25,-25 0,-13.8 -11.19,-25 -25,-25"
         style="fill:#3e3d51;fill-opacity:1;fill-rule:nonzero;stroke:none"
         id="path22" /><path
         d="m 12275.8,24048.1 c -21,7 -37.5,16.1 -49.5,27.3 l 15.8,33.4 c 11.5,-10.3 26.1,-18.7 44,-25.1 17.8,-6.4 36.2,-9.6 55.1,-9.6 24.8,0 43.4,4.2 55.7,12.6 12.3,8.4 18.4,19.7 18.4,33.7 0,10.3 -3.3,18.6 -10,25 -6.8,6.5 -15,11.4 -24.9,14.8 -9.9,3.5 -23.8,7.3 -41.8,11.6 -22.6,5.4 -40.8,10.9 -54.7,16.3 -13.8,5.4 -25.7,13.8 -35.6,25.1 -9.8,11.3 -14.8,26.5 -14.8,45.6 0,16.1 4.3,30.5 12.7,43.4 8.4,12.8 21.2,23.1 38.4,30.8 17.1,7.7 38.4,11.6 63.9,11.6 17.7,0 35.1,-2.3 52.3,-6.9 17.1,-4.5 31.8,-11.1 44.1,-19.7 l -14.1,-34.3 c -12.6,8 -26,14.1 -40.3,18.2 -14.3,4.2 -28.3,6.3 -42,6.3 -24.3,0 -42.6,-4.5 -54.7,-13.3 -12.2,-8.9 -18.2,-20.3 -18.2,-34.3 0,-10.3 3.4,-18.7 10.3,-25.1 6.8,-6.4 15.3,-11.5 25.5,-15 10.1,-3.6 23.9,-7.4 41.3,-11.4 22.6,-5.4 40.8,-10.8 54.5,-16.3 13.7,-5.4 25.5,-13.7 35.3,-24.9 9.9,-11.1 14.8,-26.1 14.8,-45 0,-15.7 -4.2,-30 -12.8,-43 -8.6,-13.1 -21.6,-23.3 -39,-30.9 -17.5,-7.6 -38.9,-11.4 -64.3,-11.4 -22.6,0 -44.4,3.5 -65.4,10.5"
         style="fill:#3e3d51;fill-opacity:1;fill-rule:nonzero;stroke:none"
         id="path24" /><path
         d="m 12602.3,24146.9 -47.2,-43.7 v -62.1 h -41.2 v 318.1 h 41.2 v -204.1 l 123.9,113.2 h 49.7 l -95.6,-93.9 105.1,-133.3 h -50.6 l -85.3,105.8"
         style="fill:#3e3d51;fill-opacity:1;fill-rule:nonzero;stroke:none"
         id="path26" /><path
         d="m 12775,24268.3 h 41.2 v -227.2 h -41.2 z m 0.7,51.4 c -5.3,5.2 -7.9,11.5 -7.9,18.9 0,7.4 2.6,13.8 7.9,19.1 5.3,5.2 11.9,7.9 19.9,7.9 8,0 14.7,-2.5 19.9,-7.5 5.3,-5 8,-11.2 8,-18.7 0,-7.7 -2.7,-14.2 -8,-19.5 -5.2,-5.2 -11.9,-7.9 -19.9,-7.9 -8,0 -14.6,2.6 -19.9,7.7"
         style="fill:#3e3d51;fill-opacity:1;fill-rule:nonzero;stroke:none"
         id="path28" /><path
         d="m 13050.9,24084.6 c 11.6,6.7 20.7,16.1 27.4,28.3 6.8,12.1 10.1,26 10.1,41.8 0,15.7 -3.3,29.6 -10.1,41.8 -6.7,12.1 -15.8,21.5 -27.4,28.1 -11.6,6.5 -24.6,9.8 -39.2,9.8 -14.3,0 -27.2,-3.4 -38.8,-10.1 -11.6,-6.7 -20.7,-16 -27.5,-28 -6.7,-12.1 -10,-25.9 -10,-41.6 0,-15.8 3.3,-29.7 9.8,-41.8 6.6,-12.2 15.8,-21.6 27.5,-28.3 11.7,-6.7 24.7,-10.1 39,-10.1 14.6,0 27.6,3.4 39.2,10.1 z m 23.4,171.2 c 17.4,-9.7 31.1,-23.3 40.9,-40.7 9.9,-17.4 14.8,-37.6 14.8,-60.4 0,-22.9 -4.9,-43.1 -14.8,-60.7 -9.8,-17.6 -23.5,-31.2 -40.9,-40.9 -17.5,-9.8 -37.2,-14.6 -59.2,-14.6 -16.3,0 -31.2,3.1 -44.8,9.4 -13.6,6.3 -25.1,15.4 -34.5,27.5 v -117.5 h -41.2 v 310.4 h 39.5 v -36 c 9.1,12.5 20.7,22 34.7,28.5 14,6.4 29.4,9.6 46.3,9.6 22,0 41.7,-4.8 59.2,-14.6"
         style="fill:#3e3d51;fill-opacity:1;fill-rule:nonzero;stroke:none"
         id="path30" /><path
         d="m 12091.7,24593.6 c -235.3,0 -426.7,-191.4 -426.7,-426.7 0,-235.3 191.4,-426.7 426.7,-426.7 H 13265 c 235.3,0 426.7,191.4 426.7,426.7 0,235.3 -191.4,426.7 -426.7,426.7 z m 1173.3,-903.4 h -1173.3 c -262.8,0 -476.7,213.8 -476.7,476.7 0,262.8 213.9,476.7 476.7,476.7 H 13265 c 262.9,0 476.7,-213.9 476.7,-476.7 0,-262.9 -213.8,-476.7 -476.7,-476.7"
         style="fill:#3e3d51;fill-opacity:1;fill-rule:nonzero;stroke:none"
         id="path32" /><path
         d="m 9388.11,6765 c -84.23,0 -152.76,-68.5 -152.76,-152.7 0,-84.3 68.53,-152.8 152.76,-152.8 84.23,0 152.76,68.5 152.76,152.8 0,84.2 -68.53,152.7 -152.76,152.7"
         style="fill:#8282a8;fill-opacity:1;fill-rule:nonzero;stroke:none"
         id="path34" /><path
         d="m 10000,6712.8 c -56.66,0 -102.75,-46.1 -102.75,-102.8 0,-56.7 46.09,-102.7 102.75,-102.7 56.7,0 102.8,46 102.8,102.7 0,56.7 -46.1,102.8 -102.8,102.8 z m 0,-255.5 c -84.23,0 -152.75,68.5 -152.75,152.7 0,84.2 68.52,152.8 152.75,152.8 84.2,0 152.8,-68.6 152.8,-152.8 0,-84.2 -68.6,-152.7 -152.8,-152.7"
         style="fill:#8282a8;fill-opacity:1;fill-rule:nonzero;stroke:none"
         id="path36" /><path
         d="m 10611.9,6710.5 c -56.7,0 -102.8,-46.1 -102.8,-102.7 0,-56.7 46.1,-102.8 102.8,-102.8 56.7,0 102.8,46.1 102.8,102.8 0,56.6 -46.1,102.7 -102.8,102.7 z m 0,-255.5 c -84.2,0 -152.8,68.5 -152.8,152.8 0,84.2 68.6,152.7 152.8,152.7 84.2,0 152.8,-68.5 152.8,-152.7 0,-84.3 -68.6,-152.8 -152.8,-152.8"
         style="fill:#8282a8;fill-opacity:1;fill-rule:nonzero;stroke:none"
         id="path38" /><path
         d="m 6806.5,11483.5 h 178.95 v -812.1 h 503.81 V 10520 H 6806.5 v 963.5"
         style="fill:#3e3d51;fill-opacity:1;fill-rule:nonzero;stroke:none"
         id="path40" /><path
         d="m 8094.94,10721 c 41.29,42.1 61.94,97.7 61.94,166.5 0,68.8 -20.65,124.3 -61.94,166.6 -41.3,42.2 -93.61,63.3 -156.92,63.3 -63.32,0 -115.41,-21.1 -156.24,-63.3 -40.84,-42.3 -61.25,-97.8 -61.25,-166.6 0,-68.8 20.41,-124.4 61.25,-166.5 40.83,-42.3 92.92,-63.4 156.24,-63.4 63.31,0 115.62,21.1 156.92,63.4 z m -357.9,-162.5 c -59.67,32.1 -106.22,76.9 -139.72,134.2 -33.5,57.4 -50.24,122.3 -50.24,194.8 0,72.5 16.74,137.2 50.24,194.1 33.5,56.9 80.05,101.4 139.72,133.5 59.64,32.1 126.64,48.2 200.98,48.2 75.23,0 142.67,-16.1 202.34,-48.2 59.64,-32.1 106.21,-76.6 139.72,-133.5 33.48,-56.9 50.24,-121.6 50.24,-194.1 0,-72.5 -16.76,-137.4 -50.24,-194.8 -33.51,-57.3 -80.08,-102.1 -139.72,-134.2 -59.67,-32.1 -127.11,-48.2 -202.34,-48.2 -74.34,0 -141.34,16.1 -200.98,48.2"
         style="fill:#3e3d51;fill-opacity:1;fill-rule:nonzero;stroke:none"
         id="path42" /><path
         d="m 8920.83,11263.3 v -163.8 c -14.68,2.7 -28,4.1 -39.91,4.1 -67,0 -119.31,-19.5 -156.93,-58.5 -37.63,-39 -56.43,-95.2 -56.43,-168.6 V 10520 h -172.07 v 735 h 163.81 v -107.3 c 49.56,77.1 136.73,115.6 261.53,115.6"
         style="fill:#3e3d51;fill-opacity:1;fill-rule:nonzero;stroke:none"
         id="path44" /><path
         d="m 9239.5,11076.8 c -38.08,-32.6 -61.25,-76 -69.51,-130.1 h 417.09 c -7.36,53.2 -29.83,96.4 -67.45,129.4 -37.64,33 -84.44,49.5 -140.41,49.5 -55.06,0 -101.64,-16.3 -139.72,-48.8 z m 508.63,-244.4 h -576.76 c 10.09,-54.1 36.48,-97 79.16,-128.7 42.66,-31.6 95.65,-47.4 158.97,-47.4 80.74,0 147.3,26.6 199.6,79.8 l 92.23,-106 c -33.03,-39.5 -74.81,-69.3 -125.27,-89.5 -50.47,-20.2 -107.36,-30.3 -170.68,-30.3 -80.77,0 -151.89,16.1 -213.37,48.2 -61.48,32.1 -108.97,76.9 -142.47,134.2 -33.5,57.4 -50.23,122.3 -50.23,194.8 0,71.6 16.28,136 48.86,193.4 32.56,57.3 77.77,102.1 135.59,134.2 57.81,32.1 122.96,48.2 195.46,48.2 71.58,0 135.59,-15.8 192.03,-47.5 56.44,-31.7 100.48,-76.2 132.14,-133.5 31.66,-57.4 47.49,-123.7 47.49,-198.9 0,-12 -0.92,-28.9 -2.75,-51"
         style="fill:#3e3d51;fill-opacity:1;fill-rule:nonzero;stroke:none"
         id="path46" /><path
         d="m 11064.1,11182.8 c 54.1,-53.7 81.2,-134.2 81.2,-241.6 V 10520 h -172.1 v 399.2 c 0,64.2 -14.2,112.6 -42.7,145.2 -28.4,32.6 -69.2,48.9 -122.5,48.9 -57.8,0 -104.1,-19.1 -139,-57.2 -34.9,-38.1 -52.3,-92.4 -52.3,-163.1 v -373 h -172.1 v 399.2 c 0,64.2 -14.2,112.6 -42.6,145.2 -28.5,32.6 -69.3,48.9 -122.5,48.9 -58.8,0 -105.3,-18.9 -139.8,-56.5 -34.4,-37.6 -51.6,-92.2 -51.6,-163.8 v -373 h -172.04 v 735 h 163.84 v -93.6 c 27.5,33.1 61.9,58.3 103.2,75.7 41.3,17.5 87.2,26.2 137.6,26.2 55.1,0 104,-10.3 146.6,-31 42.7,-20.6 76.5,-51.1 101.2,-91.5 30.3,38.5 69.3,68.6 117,90.2 47.7,21.5 100.5,32.3 158.3,32.3 92.7,0 166.1,-26.8 220.3,-80.5"
         style="fill:#3e3d51;fill-opacity:1;fill-rule:nonzero;stroke:none"
         id="path48" /><path
         d="m 11797.7,10533.7 c -56.9,15.6 -102.3,35.4 -136.2,59.2 l 66,130.8 c 33.1,-22 72.7,-39.7 119.1,-53 46.3,-13.3 92,-20 137,-20 102.7,0 154.1,27.1 154.1,81.3 0,25.6 -13,43.5 -39.2,53.6 -26.2,10.1 -68.1,19.8 -126,29 -60.5,9.1 -109.9,19.7 -147.9,31.6 -38.1,11.9 -71.1,32.8 -99.1,62.6 -28,29.9 -42,71.4 -42,124.6 0,69.7 29.1,125.5 87.4,167.3 58.3,41.7 137,62.6 236.1,62.6 50.4,0 100.9,-5.7 151.4,-17.2 50.4,-11.5 91.7,-26.8 123.9,-46.1 l -66.1,-130.8 c -62.4,36.7 -132.6,55.1 -210.6,55.1 -50.5,0 -88.8,-7.6 -115,-22.7 -26.1,-15.2 -39.2,-35.1 -39.2,-59.9 0,-27.6 14,-47.1 42,-58.5 28,-11.5 71.3,-22.3 130.1,-32.4 58.7,-9.2 106.9,-19.7 144.5,-31.6 37.6,-12 70,-32.2 97.1,-60.6 27,-28.5 40.6,-68.8 40.6,-121.1 0,-68.9 -29.9,-123.9 -89.5,-165.2 -59.7,-41.3 -140.9,-62 -243.7,-62 -59.6,0 -117.9,7.8 -174.8,23.4"
         style="fill:#3e3d51;fill-opacity:1;fill-rule:nonzero;stroke:none"
         id="path50" /><path
         d="m 12454.3,11255 h 172.1 v -735 h -172.1 z m 8.3,150.8 c -21.1,19.7 -31.7,44.2 -31.7,73.6 0,29.4 10.6,53.9 31.7,73.7 21.1,19.7 47.2,29.5 78.5,29.5 31.1,0 57.3,-9.4 78.4,-28.2 21.1,-18.8 31.7,-42.4 31.7,-70.9 0,-30.2 -10.3,-55.7 -31,-76.4 -20.6,-20.6 -47,-30.9 -79.1,-30.9 -31.3,0 -57.4,9.8 -78.5,29.6"
         style="fill:#3e3d51;fill-opacity:1;fill-rule:nonzero;stroke:none"
         id="path52" /><path
         d="m 13294,10559.9 c -20.2,-16.5 -44.7,-28.9 -73.7,-37.2 -28.9,-8.2 -59.4,-12.4 -91.5,-12.4 -80.8,0 -143.2,21.1 -187.2,63.4 -44.1,42.2 -66.1,103.6 -66.1,184.4 v 353.8 h -121.1 v 137.6 h 121.1 v 168 h 172.1 v -168 h 196.8 v -137.6 h -196.8 v -349.7 c 0,-35.7 8.7,-63.1 26.2,-81.9 17.4,-18.8 42.6,-28.2 75.7,-28.2 38.5,0 70.6,10.1 96.3,30.3 l 48.2,-122.5"
         style="fill:#3e3d51;fill-opacity:1;fill-rule:nonzero;stroke:none"
         id="path54" /><path
         d="m 6434.73,9316.2 c 21.53,0 40.47,4.2 56.8,12.6 16.35,8.3 28.95,20.1 37.82,35.1 8.86,15.1 13.3,32.5 13.3,52.3 0,19.7 -4.44,37.2 -13.3,52.2 -8.87,15.1 -21.47,26.8 -37.82,35.2 -16.33,8.3 -35.27,12.5 -56.8,12.5 h -71.82 v -199.9 z m -109.82,233 h 112.1 c 28.12,0 53.07,-5.6 74.86,-16.7 21.78,-11.2 38.7,-26.8 50.73,-47 12.03,-20.1 18.04,-43.2 18.04,-69.3 0,-26.1 -6.01,-49.2 -18.04,-69.4 -12.03,-20.1 -28.95,-35.8 -50.73,-46.9 -21.79,-11.1 -46.74,-16.7 -74.86,-16.7 h -112.1 v 266"
         style="fill:#8282a8;fill-opacity:1;fill-rule:nonzero;stroke:none"
         id="path56" /><path
         d="m 6754.49,9321.8 c 10.27,5.9 18.3,14.3 24.14,25 5.82,10.8 8.74,23.1 8.74,37.1 0,13.9 -2.92,26.3 -8.74,37 -5.84,10.8 -13.87,19.1 -24.14,24.9 -10.25,5.8 -21.84,8.8 -34.76,8.8 -12.92,0 -24.52,-3 -34.77,-8.8 -10.26,-5.8 -18.38,-14.1 -24.33,-24.9 -5.94,-10.7 -8.92,-23.1 -8.92,-37 0,-14 2.98,-26.3 8.92,-37.1 5.95,-10.7 14.07,-19.1 24.33,-25 10.25,-6 21.85,-9 34.77,-9 12.92,0 24.51,3 34.76,9 z m -88.72,-27.6 c -15.97,8.9 -28.45,21.1 -37.44,36.7 -8.99,15.6 -13.49,33.2 -13.49,53 0,19.7 4.5,37.4 13.49,53 8.99,15.6 21.47,27.7 37.44,36.5 15.96,8.7 33.94,13.1 53.96,13.1 20.01,0 37.93,-4.4 53.77,-13.1 15.83,-8.8 28.24,-20.9 37.23,-36.5 9,-15.6 13.5,-33.3 13.5,-53 0,-19.8 -4.5,-37.4 -13.5,-53 -8.99,-15.6 -21.4,-27.8 -37.23,-36.7 -15.84,-8.9 -33.76,-13.3 -53.77,-13.3 -20.02,0 -38,4.4 -53.96,13.3"
         style="fill:#8282a8;fill-opacity:1;fill-rule:nonzero;stroke:none"
         id="path58" /><path
         d="m 6874.77,9565.1 h 36.47 v -281.9 h -36.47 v 281.9"
         style="fill:#8282a8;fill-opacity:1;fill-rule:nonzero;stroke:none"
         id="path60" /><path
         d="m 7101.81,9321.8 c 10.26,5.9 18.3,14.3 24.13,25 5.83,10.8 8.75,23.1 8.75,37.1 0,13.9 -2.92,26.3 -8.75,37 -5.83,10.8 -13.87,19.1 -24.13,24.9 -10.26,5.8 -21.85,8.8 -34.77,8.8 -12.92,0 -24.51,-3 -34.77,-8.8 -10.26,-5.8 -18.37,-14.1 -24.32,-24.9 -5.96,-10.7 -8.93,-23.1 -8.93,-37 0,-14 2.97,-26.3 8.93,-37.1 5.95,-10.7 14.06,-19.1 24.32,-25 10.26,-6 21.85,-9 34.77,-9 12.92,0 24.51,3 34.77,9 z m -88.73,-27.6 c -15.96,8.9 -28.44,21.1 -37.44,36.7 -8.98,15.6 -13.48,33.2 -13.48,53 0,19.7 4.5,37.4 13.48,53 9,15.6 21.48,27.7 37.44,36.5 15.96,8.7 33.94,13.1 53.96,13.1 20.01,0 37.94,-4.4 53.77,-13.1 15.83,-8.8 28.24,-20.9 37.24,-36.5 8.99,-15.6 13.49,-33.3 13.49,-53 0,-19.8 -4.5,-37.4 -13.49,-53 -9,-15.6 -21.41,-27.8 -37.24,-36.7 -15.83,-8.9 -33.76,-13.3 -53.77,-13.3 -20.02,0 -38,4.4 -53.96,13.3"
         style="fill:#8282a8;fill-opacity:1;fill-rule:nonzero;stroke:none"
         id="path62" /><path
         d="m 7285.16,9477.4 c 12.41,6 27.49,9.1 45.22,9.1 v -35.4 c -2.03,0.3 -4.81,0.4 -8.36,0.4 -19.76,0 -35.28,-5.9 -46.55,-17.6 -11.28,-11.8 -16.91,-28.6 -16.91,-50.4 v -100.3 h -36.48 v 201.4 h 34.96 v -33.8 c 6.33,11.6 15.7,20.5 28.12,26.6"
         style="fill:#8282a8;fill-opacity:1;fill-rule:nonzero;stroke:none"
         id="path64" /><path
         d="m 7490.35,9287.6 c -15.2,4.4 -27.11,10 -35.72,16.9 l 15.2,28.8 c 8.87,-6.3 19.63,-11.4 32.3,-15.2 12.67,-3.8 25.47,-5.7 38.39,-5.7 31.91,0 47.87,9.2 47.87,27.4 0,6.1 -2.16,10.9 -6.46,14.4 -4.31,3.6 -9.69,6.2 -16.15,7.8 -6.46,1.7 -15.64,3.5 -27.55,5.5 -16.22,2.6 -29.45,5.5 -39.71,8.8 -10.26,3.3 -19.07,8.8 -26.41,16.7 -7.35,7.9 -11.02,18.9 -11.02,33.1 0,18.2 7.6,32.8 22.8,43.8 15.2,11.1 35.59,16.6 61.18,16.6 13.43,0 26.85,-1.7 40.28,-5 13.42,-3.3 24.45,-7.7 33.06,-13.3 l -15.58,-28.8 c -16.47,10.6 -35.85,15.9 -58.14,15.9 -15.45,0 -27.23,-2.5 -35.34,-7.6 -8.11,-5.1 -12.16,-11.8 -12.16,-20.1 0,-6.6 2.28,-11.8 6.84,-15.6 4.56,-3.8 10.2,-6.6 16.91,-8.4 6.71,-1.7 16.15,-3.8 28.31,-6 16.21,-2.8 29.32,-5.8 39.33,-9 10,-3.1 18.56,-8.5 25.65,-16.1 7.09,-7.6 10.64,-18.3 10.64,-31.9 0,-18.3 -7.79,-32.8 -23.37,-43.5 -15.58,-10.8 -36.8,-16.2 -63.65,-16.2 -16.47,0 -32.3,2.2 -47.5,6.7"
         style="fill:#8282a8;fill-opacity:1;fill-rule:nonzero;stroke:none"
         id="path66" /><path
         d="m 7670.47,9484.6 h 36.48 v -201.4 h -36.48 z m 0.57,45.6 c -4.69,4.5 -7.04,10.1 -7.04,16.7 0,6.6 2.35,12.2 7.04,16.9 4.68,4.7 10.57,7 17.67,7 7.09,0 12.98,-2.2 17.67,-6.6 4.68,-4.4 7.03,-10 7.03,-16.5 0,-6.9 -2.35,-12.6 -7.03,-17.3 -4.69,-4.7 -10.58,-7.1 -17.67,-7.1 -7.1,0 -12.99,2.3 -17.67,6.9"
         style="fill:#8282a8;fill-opacity:1;fill-rule:nonzero;stroke:none"
         id="path68" /><path
         d="m 7889.73,9295 c -5.33,-4.6 -11.92,-8.1 -19.77,-10.5 -7.85,-2.4 -15.96,-3.6 -24.32,-3.6 -20.26,0 -35.97,5.5 -47.11,16.3 -11.16,10.9 -16.72,26.5 -16.72,46.8 v 110.6 h -34.2 v 30 h 34.2 v 44.1 h 36.47 v -44.1 h 57.76 v -30 h -57.76 v -109.1 c 0,-10.9 2.73,-19.2 8.18,-25.1 5.44,-5.8 13.23,-8.7 23.36,-8.7 11.15,0 20.65,3.1 28.5,9.5 l 11.41,-26.2"
         style="fill:#8282a8;fill-opacity:1;fill-rule:nonzero;stroke:none"
         id="path70" /><path
         d="m 8137.09,9318.3 c 10.14,6.2 17.49,15 22.05,26.4 v 28.2 h -56.24 c -30.92,0 -46.37,-10.4 -46.37,-31.2 0,-10.1 3.93,-18.1 11.79,-23.9 7.85,-5.9 18.74,-8.8 32.68,-8.8 13.93,0 25.95,3.1 36.09,9.3 z m 36.29,147.7 c 14.82,-13.7 22.24,-34.1 22.24,-61.2 v -121.6 h -34.59 v 26.6 c -6.07,-9.4 -14.76,-16.6 -26.03,-21.5 -11.27,-4.9 -24.64,-7.4 -40.09,-7.4 -22.55,0 -40.59,5.5 -54.14,16.3 -13.56,10.9 -20.34,25.2 -20.34,43 0,17.7 6.46,32 19.38,42.7 12.92,10.8 33.44,16.2 61.57,16.2 h 57.76 v 7.2 c 0,15.7 -4.56,27.7 -13.69,36.1 -9.11,8.4 -22.55,12.5 -40.27,12.5 -11.92,0 -23.56,-1.9 -34.97,-5.9 -11.4,-3.9 -21.03,-9.1 -28.87,-15.7 l -15.21,27.3 c 10.39,8.4 22.81,14.8 37.24,19.2 14.44,4.5 29.77,6.7 45.99,6.7 27.86,0 49.2,-6.9 64.02,-20.5"
         style="fill:#8282a8;fill-opacity:1;fill-rule:nonzero;stroke:none"
         id="path72" /><path
         d="m 8575.42,9464.4 c 14.82,-14.6 22.23,-36.4 22.23,-65.3 v -115.9 h -36.48 v 111.7 c 0,19.5 -4.5,34.2 -13.49,44.1 -8.99,9.9 -21.85,14.8 -38.57,14.8 -18.49,0 -33.19,-5.8 -44.08,-17.3 -10.89,-11.5 -16.34,-28 -16.34,-49.6 v -103.7 h -36.48 v 111.7 c 0,19.5 -4.5,34.2 -13.49,44.1 -8.99,9.9 -21.85,14.8 -38.57,14.8 -18.49,0 -33.19,-5.8 -44.08,-17.3 -10.89,-11.5 -16.34,-28 -16.34,-49.6 v -103.7 h -36.48 v 201.4 h 34.96 v -30 c 7.35,10.3 16.97,18.3 28.88,23.7 11.9,5.5 25.46,8.2 40.66,8.2 15.71,0 29.64,-3.2 41.8,-9.5 12.16,-6.4 21.53,-15.6 28.12,-27.8 7.6,11.7 18.17,20.8 31.73,27.4 13.55,6.6 28.81,9.9 45.79,9.9 25.34,0 45.41,-7.4 60.23,-22.1"
         style="fill:#8282a8;fill-opacity:1;fill-rule:nonzero;stroke:none"
         id="path74" /><path
         d="m 8704.61,9439.7 c -11.78,-10.6 -18.68,-24.5 -20.7,-41.8 h 129.2 c -2.04,17 -8.94,30.9 -20.72,41.7 -11.77,10.7 -26.4,16.1 -43.88,16.1 -17.48,0 -32.11,-5.3 -43.9,-16 z m 142.69,-68 h -163.39 c 2.27,-17.7 10.06,-32 23.37,-42.7 13.3,-10.8 29.82,-16.2 49.59,-16.2 24.06,0 43.44,8.1 58.13,24.3 l 20.15,-23.5 c -9.12,-10.7 -20.46,-18.8 -34.02,-24.3 -13.55,-5.6 -28.69,-8.4 -45.41,-8.4 -21.28,0 -40.15,4.4 -56.62,13.1 -16.47,8.8 -29.2,21 -38.19,36.7 -8.99,15.7 -13.49,33.4 -13.49,53.2 0,19.5 4.38,37.1 13.12,52.8 8.73,15.7 20.76,27.9 36.1,36.7 15.31,8.7 32.61,13.1 51.87,13.1 19.24,0 36.41,-4.4 51.48,-13.1 15.07,-8.8 26.86,-21 35.34,-36.7 8.49,-15.7 12.74,-33.7 12.74,-54 0,-2.8 -0.26,-6.4 -0.77,-11"
         style="fill:#8282a8;fill-opacity:1;fill-rule:nonzero;stroke:none"
         id="path76" /><path
         d="m 9011.85,9295 c -5.33,-4.6 -11.92,-8.1 -19.77,-10.5 -7.85,-2.4 -15.96,-3.6 -24.32,-3.6 -20.26,0 -35.98,5.5 -47.12,16.3 -11.15,10.9 -16.71,26.5 -16.71,46.8 v 110.6 h -34.21 v 30 h 34.21 v 44.1 h 36.47 v -44.1 h 57.76 v -30 h -57.76 v -109.1 c 0,-10.9 2.73,-19.2 8.17,-25.1 5.44,-5.8 13.24,-8.7 23.37,-8.7 11.15,0 20.65,3.1 28.5,9.5 l 11.41,-26.2"
         style="fill:#8282a8;fill-opacity:1;fill-rule:nonzero;stroke:none"
         id="path78" /><path
         d="m 9086.5,9325.6 c 4.69,-5 7.04,-11.1 7.04,-18.5 0,-3.8 -0.45,-7.4 -1.33,-11 -0.89,-3.5 -2.61,-9 -5.14,-16.3 l -17.85,-52.9 h -23.95 l 14.07,56.7 c -4.82,1.7 -8.69,4.7 -11.6,8.9 -2.92,4.2 -4.36,9 -4.36,14.6 0,7.6 2.4,13.8 7.22,18.6 4.8,4.9 10.88,7.3 18.24,7.3 7.09,0 12.98,-2.5 17.66,-7.4"
         style="fill:#8282a8;fill-opacity:1;fill-rule:nonzero;stroke:none"
         id="path80" /><path
         d="m 9281.06,9294.2 c -16.1,8.9 -28.69,21.1 -37.81,36.7 -9.13,15.6 -13.68,33.2 -13.68,53 0,19.7 4.55,37.4 13.68,53 9.12,15.6 21.71,27.7 37.81,36.5 16.08,8.7 34.39,13.1 54.91,13.1 18.24,0 34.51,-3.7 48.83,-11 14.3,-7.4 25.39,-18 33.25,-32 l -27.74,-17.8 c -6.34,9.6 -14.2,16.8 -23.56,21.6 -9.38,4.9 -19.77,7.3 -31.16,7.3 -13.18,0 -25.02,-3 -35.53,-8.8 -10.52,-5.8 -18.75,-14.1 -24.7,-24.9 -5.96,-10.7 -8.93,-23.1 -8.93,-37 0,-14.2 2.97,-26.7 8.93,-37.4 5.95,-10.8 14.18,-19.1 24.7,-24.9 10.51,-5.9 22.35,-8.8 35.53,-8.8 11.39,0 21.78,2.4 31.16,7.2 9.36,4.8 17.22,12.1 23.56,21.7 l 27.74,-17.5 c -7.86,-13.9 -18.95,-24.6 -33.25,-32.1 -14.32,-7.5 -30.59,-11.2 -48.83,-11.2 -20.52,0 -38.83,4.4 -54.91,13.3"
         style="fill:#8282a8;fill-opacity:1;fill-rule:nonzero;stroke:none"
         id="path82" /><path
         d="m 9583.15,9321.8 c 10.26,5.9 18.31,14.3 24.14,25 5.82,10.8 8.74,23.1 8.74,37.1 0,13.9 -2.92,26.3 -8.74,37 -5.83,10.8 -13.88,19.1 -24.14,24.9 -10.25,5.8 -21.85,8.8 -34.77,8.8 -12.92,0 -24.51,-3 -34.77,-8.8 -10.26,-5.8 -18.37,-14.1 -24.32,-24.9 -5.95,-10.7 -8.93,-23.1 -8.93,-37 0,-14 2.98,-26.3 8.93,-37.1 5.95,-10.7 14.06,-19.1 24.32,-25 10.26,-6 21.85,-9 34.77,-9 12.92,0 24.52,3 34.77,9 z m -88.73,-27.6 c -15.96,8.9 -28.44,21.1 -37.43,36.7 -8.99,15.6 -13.48,33.2 -13.48,53 0,19.7 4.49,37.4 13.48,53 8.99,15.6 21.47,27.7 37.43,36.5 15.96,8.7 33.95,13.1 53.96,13.1 20.01,0 37.94,-4.4 53.77,-13.1 15.83,-8.8 28.25,-20.9 37.24,-36.5 8.99,-15.6 13.49,-33.3 13.49,-53 0,-19.8 -4.5,-37.4 -13.49,-53 -8.99,-15.6 -21.41,-27.8 -37.24,-36.7 -15.83,-8.9 -33.76,-13.3 -53.77,-13.3 -20.01,0 -38,4.4 -53.96,13.3"
         style="fill:#8282a8;fill-opacity:1;fill-rule:nonzero;stroke:none"
         id="path84" /><path
         d="m 9871.95,9464.3 c 15.07,-14.9 22.61,-36.6 22.61,-65.2 v -115.9 h -36.48 v 111.7 c 0,19.5 -4.69,34.2 -14.06,44.1 -9.37,9.9 -22.8,14.8 -40.28,14.8 -19.76,0 -35.34,-5.8 -46.74,-17.3 -11.4,-11.5 -17.1,-28 -17.1,-49.6 v -103.7 h -36.47 v 201.4 h 34.95 v -30.4 c 7.35,10.4 17.29,18.3 29.83,23.9 12.54,5.6 26.79,8.4 42.75,8.4 25.59,0 45.92,-7.4 60.99,-22.2"
         style="fill:#8282a8;fill-opacity:1;fill-rule:nonzero;stroke:none"
         id="path86" /><path
         d="m 9972.46,9287.6 c -15.2,4.4 -27.11,10 -35.72,16.9 l 15.2,28.8 c 8.86,-6.3 19.63,-11.4 32.3,-15.2 12.66,-3.8 25.46,-5.7 38.36,-5.7 31.9,0 47.9,9.2 47.9,27.4 0,6.1 -2.2,10.9 -6.5,14.4 -4.3,3.6 -9.7,6.2 -16.1,7.8 -6.5,1.7 -15.7,3.5 -27.6,5.5 -16.2,2.6 -29.41,5.5 -39.67,8.8 -10.26,3.3 -19.06,8.8 -26.41,16.7 -7.35,7.9 -11.02,18.9 -11.02,33.1 0,18.2 7.6,32.8 22.8,43.8 15.2,11.1 35.6,16.6 61.2,16.6 13.4,0 26.8,-1.7 40.3,-5 13.4,-3.3 24.4,-7.7 33,-13.3 l -15.6,-28.8 c -16.4,10.6 -35.8,15.9 -58.1,15.9 -15.5,0 -27.24,-2.5 -35.34,-7.6 -8.11,-5.1 -12.16,-11.8 -12.16,-20.1 0,-6.6 2.28,-11.8 6.84,-15.6 4.56,-3.8 10.2,-6.6 16.96,-8.4 6.7,-1.7 16.1,-3.8 28.3,-6 16.2,-2.8 29.3,-5.8 39.3,-9 10,-3.1 18.5,-8.5 25.6,-16.1 7.1,-7.6 10.7,-18.3 10.7,-31.9 0,-18.3 -7.8,-32.8 -23.4,-43.5 -15.6,-10.8 -36.8,-16.2 -63.6,-16.2 -16.5,0 -32.34,2.2 -47.54,6.7"
         style="fill:#8282a8;fill-opacity:1;fill-rule:nonzero;stroke:none"
         id="path88" /><path
         d="m 10191.2,9439.7 c -11.8,-10.6 -18.7,-24.5 -20.8,-41.8 h 129.2 c -2,17 -8.9,30.9 -20.7,41.7 -11.8,10.7 -26.4,16.1 -43.9,16.1 -17.5,0 -32.1,-5.3 -43.8,-16 z m 142.6,-68 h -163.4 c 2.3,-17.7 10.1,-32 23.4,-42.7 13.3,-10.8 29.8,-16.2 49.6,-16.2 24.1,0 43.4,8.1 58.1,24.3 l 20.2,-23.5 c -9.2,-10.7 -20.5,-18.8 -34,-24.3 -13.6,-5.6 -28.7,-8.4 -45.5,-8.4 -21.2,0 -40.1,4.4 -56.6,13.1 -16.4,8.8 -29.2,21 -38.2,36.7 -8.9,15.7 -13.5,33.4 -13.5,53.2 0,19.5 4.4,37.1 13.2,52.8 8.7,15.7 20.7,27.9 36.1,36.7 15.3,8.7 32.6,13.1 51.8,13.1 19.3,0 36.4,-4.4 51.5,-13.1 15.1,-8.8 26.9,-21 35.4,-36.7 8.4,-15.7 12.7,-33.7 12.7,-54 0,-2.8 -0.3,-6.4 -0.8,-11"
         style="fill:#8282a8;fill-opacity:1;fill-rule:nonzero;stroke:none"
         id="path90" /><path
         d="m 10418,9294.2 c -16.1,8.9 -28.7,21.1 -37.8,36.7 -9.1,15.6 -13.7,33.2 -13.7,53 0,19.7 4.6,37.4 13.7,53 9.1,15.6 21.7,27.7 37.8,36.5 16.1,8.7 34.4,13.1 54.9,13.1 18.3,0 34.5,-3.7 48.8,-11 14.3,-7.4 25.4,-18 33.3,-32 l -27.8,-17.8 c -6.3,9.6 -14.1,16.8 -23.5,21.6 -9.4,4.9 -19.8,7.3 -31.2,7.3 -13.1,0 -25,-3 -35.5,-8.8 -10.5,-5.8 -18.8,-14.1 -24.7,-24.9 -6,-10.7 -8.9,-23.1 -8.9,-37 0,-14.2 2.9,-26.7 8.9,-37.4 5.9,-10.8 14.2,-19.1 24.7,-24.9 10.5,-5.9 22.4,-8.8 35.5,-8.8 11.4,0 21.8,2.4 31.2,7.2 9.4,4.8 17.2,12.1 23.5,21.7 l 27.8,-17.5 c -7.9,-13.9 -19,-24.6 -33.3,-32.1 -14.3,-7.5 -30.5,-11.2 -48.8,-11.2 -20.5,0 -38.8,4.4 -54.9,13.3"
         style="fill:#8282a8;fill-opacity:1;fill-rule:nonzero;stroke:none"
         id="path92" /><path
         d="m 10718,9295 c -5.3,-4.6 -11.9,-8.1 -19.8,-10.5 -7.8,-2.4 -15.9,-3.6 -24.3,-3.6 -20.2,0 -36,5.5 -47.1,16.3 -11.1,10.9 -16.7,26.5 -16.7,46.8 v 110.6 h -34.2 v 30 h 34.2 v 44.1 h 36.5 v -44.1 h 57.7 v -30 h -57.7 v -109.1 c 0,-10.9 2.7,-19.2 8.1,-25.1 5.5,-5.8 13.3,-8.7 23.4,-8.7 11.2,0 20.7,3.1 28.5,9.5 l 11.4,-26.2"
         style="fill:#8282a8;fill-opacity:1;fill-rule:nonzero;stroke:none"
         id="path94" /><path
         d="m 10793.8,9439.7 c -11.8,-10.6 -18.7,-24.5 -20.7,-41.8 h 129.2 c -2,17 -8.9,30.9 -20.7,41.7 -11.8,10.7 -26.4,16.1 -43.9,16.1 -17.5,0 -32.1,-5.3 -43.9,-16 z m 142.7,-68 h -163.4 c 2.3,-17.7 10.1,-32 23.4,-42.7 13.3,-10.8 29.8,-16.2 49.6,-16.2 24,0 43.4,8.1 58.1,24.3 l 20.2,-23.5 c -9.2,-10.7 -20.5,-18.8 -34.1,-24.3 -13.5,-5.6 -28.7,-8.4 -45.4,-8.4 -21.2,0 -40.1,4.4 -56.6,13.1 -16.5,8.8 -29.2,21 -38.2,36.7 -9,15.7 -13.5,33.4 -13.5,53.2 0,19.5 4.4,37.1 13.1,52.8 8.8,15.7 20.8,27.9 36.1,36.7 15.4,8.7 32.7,13.1 51.9,13.1 19.3,0 36.4,-4.4 51.5,-13.1 15.1,-8.8 26.8,-21 35.3,-36.7 8.5,-15.7 12.8,-33.7 12.8,-54 0,-2.8 -0.3,-6.4 -0.8,-11"
         style="fill:#8282a8;fill-opacity:1;fill-rule:nonzero;stroke:none"
         id="path96" /><path
         d="m 11101,9295 c -5.3,-4.6 -11.9,-8.1 -19.7,-10.5 -7.9,-2.4 -16,-3.6 -24.3,-3.6 -20.3,0 -36,5.5 -47.2,16.3 -11.1,10.9 -16.7,26.5 -16.7,46.8 v 110.6 h -34.2 v 30 h 34.2 v 44.1 h 36.5 v -44.1 h 57.8 v -30 h -57.8 v -109.1 c 0,-10.9 2.7,-19.2 8.2,-25.1 5.4,-5.8 13.2,-8.7 23.4,-8.7 11.1,0 20.6,3.1 28.4,9.5 l 11.4,-26.2"
         style="fill:#8282a8;fill-opacity:1;fill-rule:nonzero;stroke:none"
         id="path98" /><path
         d="m 11332.9,9484.6 v -201.4 h -34.6 v 30.4 c -7.4,-10.4 -17.1,-18.5 -29.1,-24.1 -12.1,-5.7 -25.2,-8.6 -39.3,-8.6 -26.9,0 -48.1,7.4 -63.5,22.2 -15.5,14.9 -23.2,36.7 -23.2,65.6 v 115.9 h 36.5 v -111.7 c 0,-19.5 4.7,-34.3 14.1,-44.3 9.3,-10 22.8,-15 40.2,-15 19.3,0 34.5,5.8 45.6,17.5 11.2,11.6 16.8,28.1 16.8,49.4 v 104.1 h 36.5"
         style="fill:#8282a8;fill-opacity:1;fill-rule:nonzero;stroke:none"
         id="path100" /><path
         d="m 11465.4,9477.4 c 12.5,6 27.5,9.1 45.3,9.1 v -35.4 c -2,0.3 -4.8,0.4 -8.4,0.4 -19.8,0 -35.3,-5.9 -46.5,-17.6 -11.3,-11.8 -16.9,-28.6 -16.9,-50.4 v -100.3 h -36.5 v 201.4 h 34.9 v -33.8 c 6.4,11.6 15.7,20.5 28.1,26.6"
         style="fill:#8282a8;fill-opacity:1;fill-rule:nonzero;stroke:none"
         id="path102" /><path
         d="m 11761.5,9318.3 c 10.1,6.2 17.4,15 22,26.4 v 28.2 h -56.2 c -30.9,0 -46.4,-10.4 -46.4,-31.2 0,-10.1 3.9,-18.1 11.8,-23.9 7.8,-5.9 18.7,-8.8 32.7,-8.8 13.9,0 25.9,3.1 36.1,9.3 z m 36.3,147.7 c 14.8,-13.7 22.2,-34.1 22.2,-61.2 v -121.6 h -34.6 v 26.6 c -6.1,-9.4 -14.8,-16.6 -26,-21.5 -11.3,-4.9 -24.7,-7.4 -40.1,-7.4 -22.6,0 -40.6,5.5 -54.2,16.3 -13.5,10.9 -20.3,25.2 -20.3,43 0,17.7 6.5,32 19.4,42.7 12.9,10.8 33.4,16.2 61.5,16.2 h 57.8 v 7.2 c 0,15.7 -4.6,27.7 -13.7,36.1 -9.1,8.4 -22.5,12.5 -40.3,12.5 -11.9,0 -23.5,-1.9 -34.9,-5.9 -11.4,-3.9 -21,-9.1 -28.9,-15.7 l -15.2,27.3 c 10.4,8.4 22.8,14.8 37.2,19.2 14.5,4.5 29.8,6.7 46,6.7 27.9,0 49.2,-6.9 64.1,-20.5"
         style="fill:#8282a8;fill-opacity:1;fill-rule:nonzero;stroke:none"
         id="path104" /><path
         d="m 12009.6,9321.8 c 10.4,5.9 18.5,14.3 24.3,25 5.8,10.8 8.7,23.1 8.7,37.1 0,13.9 -2.9,26.3 -8.7,37 -5.8,10.8 -13.9,19.1 -24.3,24.9 -10.4,5.8 -21.9,8.8 -34.6,8.8 -12.9,0 -24.5,-3 -34.8,-8.8 -10.2,-5.8 -18.3,-14.1 -24.3,-24.9 -5.9,-10.7 -8.9,-23.1 -8.9,-37 0,-14 3,-26.3 8.9,-37.1 6,-10.7 14.1,-19.1 24.3,-25 10.3,-6 21.9,-9 34.8,-9 12.7,0 24.2,3 34.6,9 z m 69.2,243.3 v -281.9 h -35 v 31.9 c -8.1,-11.1 -18.4,-19.6 -30.8,-25.5 -12.4,-5.8 -26.1,-8.7 -41,-8.7 -19.5,0 -37,4.3 -52.5,12.9 -15.4,8.6 -27.5,20.7 -36.3,36.3 -8.7,15.6 -13.1,33.5 -13.1,53.8 0,20.2 4.4,38.1 13.1,53.6 8.8,15.4 20.9,27.4 36.3,36.1 15.5,8.6 33,12.9 52.5,12.9 14.4,0 27.7,-2.7 39.9,-8.2 12.1,-5.4 22.3,-13.5 30.4,-24.1 v 110.9 h 36.5"
         style="fill:#8282a8;fill-opacity:1;fill-rule:nonzero;stroke:none"
         id="path106" /><path
         d="m 12147.9,9484.6 h 36.5 v -201.4 h -36.5 z m 0.6,45.6 c -4.7,4.5 -7.1,10.1 -7.1,16.7 0,6.6 2.4,12.2 7.1,16.9 4.7,4.7 10.6,7 17.7,7 7,0 12.9,-2.2 17.6,-6.6 4.7,-4.4 7.1,-10 7.1,-16.5 0,-6.9 -2.4,-12.6 -7.1,-17.3 -4.7,-4.7 -10.6,-7.1 -17.6,-7.1 -7.1,0 -13,2.3 -17.7,6.9"
         style="fill:#8282a8;fill-opacity:1;fill-rule:nonzero;stroke:none"
         id="path108" /><path
         d="m 12392.4,9321.8 c 10.3,5.9 18.4,14.3 24.4,25 5.9,10.8 8.9,23.1 8.9,37.1 0,13.9 -3,26.3 -8.9,37 -6,10.8 -14.1,19.1 -24.4,24.9 -10.2,5.8 -21.8,8.8 -34.7,8.8 -12.7,0 -24.2,-3 -34.4,-9 -10.3,-5.9 -18.4,-14.2 -24.3,-24.9 -6,-10.6 -9,-22.9 -9,-36.8 0,-14 2.9,-26.3 8.8,-37.1 5.8,-10.7 13.9,-19.1 24.3,-25 10.4,-6 21.9,-9 34.6,-9 12.9,0 24.5,3 34.7,9 z m 20.7,151.8 c 15.5,-8.7 27.6,-20.7 36.3,-36.1 8.8,-15.5 13.1,-33.4 13.1,-53.6 0,-20.3 -4.3,-38.2 -13.1,-53.8 -8.7,-15.6 -20.8,-27.7 -36.3,-36.3 -15.4,-8.6 -32.9,-12.9 -52.4,-12.9 -14.4,0 -27.7,2.8 -39.7,8.4 -12,5.5 -22.2,13.6 -30.6,24.3 v -104.1 h -36.5 v 275.1 h 35 v -31.9 c 8.1,11.1 18.3,19.5 30.8,25.2 12.4,5.7 26.1,8.6 41,8.6 19.5,0 37,-4.3 52.4,-12.9"
         style="fill:#8282a8;fill-opacity:1;fill-rule:nonzero;stroke:none"
         id="path110" /><path
         d="m 12513.1,9484.6 h 36.5 v -201.4 h -36.5 z m 0.6,45.6 c -4.7,4.5 -7.1,10.1 -7.1,16.7 0,6.6 2.4,12.2 7.1,16.9 4.6,4.7 10.5,7 17.6,7 7.1,0 13,-2.2 17.7,-6.6 4.7,-4.4 7,-10 7,-16.5 0,-6.9 -2.3,-12.6 -7,-17.3 -4.7,-4.7 -10.6,-7.1 -17.7,-7.1 -7.1,0 -13,2.3 -17.6,6.9"
         style="fill:#8282a8;fill-opacity:1;fill-rule:nonzero;stroke:none"
         id="path112" /><path
         d="m 12629.4,9287.6 c -15.2,4.4 -27.2,10 -35.7,16.9 l 15.1,28.8 c 8.9,-6.3 19.7,-11.4 32.4,-15.2 12.6,-3.8 25.4,-5.7 38.3,-5.7 31.9,0 47.9,9.2 47.9,27.4 0,6.1 -2.1,10.9 -6.5,14.4 -4.3,3.6 -9.6,6.2 -16.1,7.8 -6.5,1.7 -15.6,3.5 -27.6,5.5 -16.2,2.6 -29.4,5.5 -39.7,8.8 -10.2,3.3 -19,8.8 -26.4,16.7 -7.3,7.9 -11,18.9 -11,33.1 0,18.2 7.6,32.8 22.8,43.8 15.2,11.1 35.6,16.6 61.2,16.6 13.4,0 26.8,-1.7 40.3,-5 13.4,-3.3 24.4,-7.7 33,-13.3 l -15.6,-28.8 c -16.4,10.6 -35.8,15.9 -58.1,15.9 -15.5,0 -27.2,-2.5 -35.3,-7.6 -8.1,-5.1 -12.2,-11.8 -12.2,-20.1 0,-6.6 2.3,-11.8 6.8,-15.6 4.6,-3.8 10.2,-6.6 17,-8.4 6.7,-1.7 16.1,-3.8 28.3,-6 16.2,-2.8 29.3,-5.8 39.3,-9 10,-3.1 18.6,-8.5 25.6,-16.1 7.1,-7.6 10.7,-18.3 10.7,-31.9 0,-18.3 -7.8,-32.8 -23.4,-43.5 -15.6,-10.8 -36.8,-16.2 -63.6,-16.2 -16.5,0 -32.3,2.2 -47.5,6.7"
         style="fill:#8282a8;fill-opacity:1;fill-rule:nonzero;stroke:none"
         id="path114" /><path
         d="m 12842.4,9294.2 c -16.1,8.9 -28.7,21.1 -37.9,36.7 -9.1,15.6 -13.6,33.2 -13.6,53 0,19.7 4.5,37.4 13.6,53 9.2,15.6 21.8,27.7 37.9,36.5 16,8.7 34.3,13.1 54.9,13.1 18.2,0 34.5,-3.7 48.8,-11 14.3,-7.4 25.4,-18 33.3,-32 l -27.8,-17.8 c -6.3,9.6 -14.2,16.8 -23.6,21.6 -9.3,4.9 -19.7,7.3 -31.1,7.3 -13.2,0 -25,-3 -35.6,-8.8 -10.5,-5.8 -18.7,-14.1 -24.6,-24.9 -6,-10.7 -9,-23.1 -9,-37 0,-14.2 3,-26.7 9,-37.4 5.9,-10.8 14.1,-19.1 24.6,-24.9 10.6,-5.9 22.4,-8.8 35.6,-8.8 11.4,0 21.8,2.4 31.1,7.2 9.4,4.8 17.3,12.1 23.6,21.7 l 27.8,-17.5 c -7.9,-13.9 -19,-24.6 -33.3,-32.1 -14.3,-7.5 -30.6,-11.2 -48.8,-11.2 -20.6,0 -38.9,4.4 -54.9,13.3"
         style="fill:#8282a8;fill-opacity:1;fill-rule:nonzero;stroke:none"
         id="path116" /><path
         d="m 13026.5,9484.6 h 36.4 v -201.4 h -36.4 z m 0.5,45.6 c -4.7,4.5 -7,10.1 -7,16.7 0,6.6 2.3,12.2 7,16.9 4.7,4.7 10.6,7 17.7,7 7.1,0 13,-2.2 17.7,-6.6 4.7,-4.4 7,-10 7,-16.5 0,-6.9 -2.3,-12.6 -7,-17.3 -4.7,-4.7 -10.6,-7.1 -17.7,-7.1 -7.1,0 -13,2.3 -17.7,6.9"
         style="fill:#8282a8;fill-opacity:1;fill-rule:nonzero;stroke:none"
         id="path118" /><path
         d="m 13301,9464.3 c 15.1,-14.9 22.6,-36.6 22.6,-65.2 v -115.9 h -36.5 v 111.7 c 0,19.5 -4.6,34.2 -14,44.1 -9.4,9.9 -22.8,14.8 -40.3,14.8 -19.8,0 -35.3,-5.8 -46.7,-17.3 -11.4,-11.5 -17.1,-28 -17.1,-49.6 v -103.7 h -36.5 v 201.4 h 34.9 v -30.4 c 7.4,10.4 17.3,18.3 29.9,23.9 12.5,5.6 26.8,8.4 42.7,8.4 25.6,0 45.9,-7.4 61,-22.2"
         style="fill:#8282a8;fill-opacity:1;fill-rule:nonzero;stroke:none"
         id="path120" /><path
         d="m 13515.7,9331.8 c 10.5,5.6 18.8,13.4 24.7,23.4 6,10 9,21.3 9,34 0,19.5 -6.5,35.3 -19.4,47.3 -13,12 -29.6,18.1 -49.8,18.1 -20.5,0 -37.3,-6.1 -50.2,-18.1 -12.9,-12 -19.4,-27.8 -19.4,-47.3 0,-12.7 3,-24 9,-34 5.9,-10 14.2,-17.8 24.7,-23.4 10.5,-5.5 22.5,-8.3 35.9,-8.3 13.1,0 25,2.8 35.5,8.3 z m 69.4,152.8 v -174.1 c 0,-35.2 -8.8,-61.2 -26.3,-78.1 -17.4,-16.8 -43.5,-25.2 -78.2,-25.2 -19,0 -37.1,2.6 -54.4,7.8 -17.2,5.2 -31.1,12.6 -41.8,22.2 l 17.5,28.1 c 9.4,-8.1 21,-14.5 34.8,-19.2 13.8,-4.6 28,-7 42.7,-7 23.6,0 41,5.6 52.3,16.7 11.2,11.2 16.9,28.2 16.9,50.9 v 16 c -8.6,-10.4 -19.2,-18.2 -31.7,-23.4 -12.6,-5.2 -26.2,-7.8 -40.9,-7.8 -19.2,0 -36.7,4.2 -52.2,12.4 -15.6,8.2 -27.8,19.8 -36.7,34.6 -8.9,14.8 -13.3,31.7 -13.3,50.7 0,19 4.4,35.9 13.3,50.7 8.9,14.9 21.1,26.3 36.7,34.4 15.5,8.1 33,12.2 52.2,12.2 15.2,0 29.3,-2.8 42.4,-8.4 13,-5.6 23.7,-13.8 32.1,-24.7 v 31.2 h 34.6"
         style="fill:#8282a8;fill-opacity:1;fill-rule:nonzero;stroke:none"
         id="path122" /><path
         d="m 6358.16,8889.7 c -11.78,-10.6 -18.69,-24.5 -20.71,-41.8 h 129.2 c -2.04,17 -8.93,30.9 -20.71,41.7 -11.78,10.7 -26.41,16.1 -43.89,16.1 -17.48,0 -32.11,-5.3 -43.89,-16 z m 142.69,-68 h -163.4 c 2.28,-17.7 10.07,-32 23.37,-42.7 13.3,-10.8 29.82,-16.2 49.59,-16.2 24.06,0 43.45,8.1 58.13,24.3 l 20.15,-23.5 c -9.12,-10.7 -20.46,-18.8 -34.01,-24.3 -13.56,-5.6 -28.69,-8.4 -45.41,-8.4 -21.28,0 -40.15,4.4 -56.62,13.1 -16.48,8.8 -29.2,21 -38.2,36.7 -8.99,15.7 -13.48,33.4 -13.48,53.2 0,19.5 4.37,37.1 13.11,52.8 8.73,15.7 20.76,27.9 36.1,36.7 15.32,8.7 32.61,13.1 51.87,13.1 19.25,0 36.42,-4.4 51.49,-13.1 15.07,-8.8 26.85,-21 35.34,-36.7 8.48,-15.7 12.73,-33.7 12.73,-54 0,-2.8 -0.25,-6.4 -0.76,-11"
         style="fill:#8282a8;fill-opacity:1;fill-rule:nonzero;stroke:none"
         id="path124" /><path
         d="m 6552.15,9015.1 h 36.48 v -281.9 h -36.48 v 281.9"
         style="fill:#8282a8;fill-opacity:1;fill-rule:nonzero;stroke:none"
         id="path126" /><path
         d="m 6658.16,8934.6 h 36.48 v -201.4 h -36.48 z m 0.58,45.6 c -4.7,4.5 -7.04,10.1 -7.04,16.7 0,6.6 2.34,12.2 7.04,16.9 4.68,4.7 10.57,7 17.67,7 7.08,0 12.97,-2.2 17.66,-6.6 4.69,-4.4 7.03,-10 7.03,-16.5 0,-6.9 -2.34,-12.6 -7.03,-17.3 -4.69,-4.7 -10.58,-7.1 -17.66,-7.1 -7.1,0 -12.99,2.3 -17.67,6.9"
         style="fill:#8282a8;fill-opacity:1;fill-rule:nonzero;stroke:none"
         id="path128" /><path
         d="m 6877.42,8745 c -5.32,-4.6 -11.91,-8.1 -19.76,-10.5 -7.86,-2.4 -15.97,-3.6 -24.32,-3.6 -20.27,0 -35.98,5.5 -47.12,16.3 -11.15,10.9 -16.72,26.5 -16.72,46.8 v 110.6 h -34.21 v 30 h 34.21 v 44.1 h 36.48 v -44.1 h 57.76 v -30 h -57.76 v -109.1 c 0,-10.9 2.72,-19.2 8.17,-25.1 5.44,-5.8 13.23,-8.7 23.37,-8.7 11.14,0 20.64,3.1 28.5,9.5 l 11.4,-26.2"
         style="fill:#8282a8;fill-opacity:1;fill-rule:nonzero;stroke:none"
         id="path130" /><path
         d="m 6952.08,8775.6 c 4.69,-5 7.03,-11.1 7.03,-18.5 0,-3.8 -0.45,-7.4 -1.33,-11 -0.89,-3.5 -2.6,-9 -5.13,-16.3 l -17.86,-52.9 h -23.94 l 14.06,56.7 c -4.81,1.7 -8.68,4.7 -11.59,8.9 -2.92,4.2 -4.37,9 -4.37,14.6 0,7.6 2.41,13.8 7.22,18.6 4.81,4.9 10.89,7.3 18.24,7.3 7.09,0 12.98,-2.5 17.67,-7.4"
         style="fill:#8282a8;fill-opacity:1;fill-rule:nonzero;stroke:none"
         id="path132" /><path
         d="m 7124.02,8737.6 c -15.2,4.4 -27.11,10 -35.72,16.9 l 15.21,28.8 c 8.86,-6.3 19.62,-11.4 32.29,-15.2 12.67,-3.8 25.46,-5.7 38.38,-5.7 31.92,0 47.88,9.2 47.88,27.4 0,6.1 -2.16,10.9 -6.45,14.4 -4.32,3.6 -9.7,6.2 -16.16,7.8 -6.46,1.7 -15.64,3.5 -27.55,5.5 -16.21,2.6 -29.44,5.5 -39.71,8.8 -10.26,3.3 -19.06,8.8 -26.41,16.7 -7.34,7.9 -11.01,18.9 -11.01,33.1 0,18.2 7.59,32.8 22.79,43.8 15.2,11.1 35.59,16.6 61.18,16.6 13.43,0 26.86,-1.7 40.28,-5 13.43,-3.3 24.45,-7.7 33.06,-13.3 l -15.58,-28.8 c -16.47,10.6 -35.85,15.9 -58.14,15.9 -15.45,0 -27.23,-2.5 -35.33,-7.6 -8.12,-5.1 -12.17,-11.8 -12.17,-20.1 0,-6.6 2.28,-11.8 6.85,-15.6 4.56,-3.8 10.19,-6.6 16.9,-8.4 6.71,-1.7 16.16,-3.8 28.31,-6 16.22,-2.8 29.33,-5.8 39.34,-9 10,-3.1 18.55,-8.5 25.64,-16.1 7.09,-7.6 10.64,-18.3 10.64,-31.9 0,-18.3 -7.79,-32.8 -23.36,-43.5 -15.59,-10.8 -36.81,-16.2 -63.66,-16.2 -16.47,0 -32.3,2.2 -47.5,6.7"
         style="fill:#8282a8;fill-opacity:1;fill-rule:nonzero;stroke:none"
         id="path134" /><path
         d="m 7342.71,8889.7 c -11.77,-10.6 -18.69,-24.5 -20.71,-41.8 h 129.2 c -2.03,17 -8.93,30.9 -20.71,41.7 -11.78,10.7 -26.41,16.1 -43.89,16.1 -17.48,0 -32.11,-5.3 -43.89,-16 z m 142.69,-68 H 7322 c 2.28,-17.7 10.07,-32 23.37,-42.7 13.3,-10.8 29.83,-16.2 49.59,-16.2 24.06,0 43.44,8.1 58.14,24.3 l 20.14,-23.5 c -9.12,-10.7 -20.47,-18.8 -34.01,-24.3 -13.56,-5.6 -28.69,-8.4 -45.41,-8.4 -21.29,0 -40.16,4.4 -56.62,13.1 -16.47,8.8 -29.2,21 -38.2,36.7 -8.99,15.7 -13.47,33.4 -13.47,53.2 0,19.5 4.36,37.1 13.1,52.8 8.74,15.7 20.77,27.9 36.1,36.7 15.32,8.7 32.61,13.1 51.87,13.1 19.25,0 36.42,-4.4 51.49,-13.1 15.07,-8.8 26.85,-21 35.35,-36.7 8.47,-15.7 12.72,-33.7 12.72,-54 0,-2.8 -0.26,-6.4 -0.76,-11"
         style="fill:#8282a8;fill-opacity:1;fill-rule:nonzero;stroke:none"
         id="path136" /><path
         d="m 7657.53,8771.8 c 10.39,5.9 18.5,14.3 24.33,25 5.83,10.8 8.74,23.1 8.74,37.1 0,13.9 -2.91,26.3 -8.74,37 -5.83,10.8 -13.94,19.1 -24.33,24.9 -10.38,5.8 -21.9,8.8 -34.57,8.8 -12.92,0 -24.51,-3 -34.77,-8.8 -10.26,-5.8 -18.38,-14.1 -24.33,-24.9 -5.95,-10.7 -8.92,-23.1 -8.92,-37 0,-14 2.97,-26.3 8.92,-37.1 5.95,-10.7 14.07,-19.1 24.33,-25 10.26,-6 21.85,-9 34.77,-9 12.67,0 24.19,3 34.57,9 z m 69.16,243.3 v -281.9 h -34.95 v 31.9 c -8.11,-11.1 -18.37,-19.6 -30.78,-25.5 -12.42,-5.8 -26.1,-8.7 -41.05,-8.7 -19.5,0 -36.98,4.3 -52.43,12.9 -15.46,8.6 -27.55,20.7 -36.29,36.3 -8.74,15.6 -13.11,33.5 -13.11,53.8 0,20.2 4.37,38.1 13.11,53.6 8.74,15.4 20.83,27.4 36.29,36.1 15.45,8.6 32.93,12.9 52.43,12.9 14.45,0 27.75,-2.7 39.9,-8.2 12.16,-5.4 22.3,-13.5 30.41,-24.1 v 110.9 h 36.47"
         style="fill:#8282a8;fill-opacity:1;fill-rule:nonzero;stroke:none"
         id="path138" /><path
         d="m 7936.64,8889.7 c -11.78,-10.6 -18.69,-24.5 -20.7,-41.8 h 129.19 c -2.03,17 -8.93,30.9 -20.72,41.7 -11.77,10.7 -26.39,16.1 -43.88,16.1 -17.48,0 -32.11,-5.3 -43.89,-16 z m 142.69,-68 h -163.39 c 2.27,-17.7 10.06,-32 23.36,-42.7 13.31,-10.8 29.83,-16.2 49.59,-16.2 24.06,0 43.44,8.1 58.14,24.3 l 20.14,-23.5 c -9.12,-10.7 -20.46,-18.8 -34.01,-24.3 -13.56,-5.6 -28.69,-8.4 -45.42,-8.4 -21.28,0 -40.14,4.4 -56.61,13.1 -16.47,8.8 -29.21,21 -38.19,36.7 -8.99,15.7 -13.49,33.4 -13.49,53.2 0,19.5 4.37,37.1 13.11,52.8 8.74,15.7 20.77,27.9 36.1,36.7 15.32,8.7 32.61,13.1 51.87,13.1 19.25,0 36.42,-4.4 51.49,-13.1 15.07,-8.8 26.85,-21 35.34,-36.7 8.48,-15.7 12.74,-33.7 12.74,-54 0,-2.8 -0.27,-6.4 -0.77,-11"
         style="fill:#8282a8;fill-opacity:1;fill-rule:nonzero;stroke:none"
         id="path140" /><path
         d="m 8130.63,8934.6 h 36.48 v -201.4 h -36.48 z m 0.57,45.6 c -4.7,4.5 -7.03,10.1 -7.03,16.7 0,6.6 2.33,12.2 7.03,16.9 4.68,4.7 10.57,7 17.67,7 7.09,0 12.98,-2.2 17.66,-6.6 4.69,-4.4 7.03,-10 7.03,-16.5 0,-6.9 -2.34,-12.6 -7.03,-17.3 -4.68,-4.7 -10.57,-7.1 -17.66,-7.1 -7.1,0 -12.99,2.3 -17.67,6.9"
         style="fill:#8282a8;fill-opacity:1;fill-rule:nonzero;stroke:none"
         id="path142" /><path
         d="m 8424.37,8934.6 v -201.4 h -34.58 v 30.4 c -7.35,-10.4 -17.05,-18.5 -29.08,-24.1 -12.03,-5.7 -25.14,-8.6 -39.32,-8.6 -26.86,0 -48.02,7.4 -63.47,22.2 -15.45,14.9 -23.17,36.7 -23.17,65.6 v 115.9 h 36.47 v -111.7 c 0,-19.5 4.69,-34.3 14.06,-44.3 9.37,-10 22.81,-15 40.29,-15 19.24,0 34.44,5.8 45.6,17.5 11.13,11.6 16.71,28.1 16.71,49.4 v 104.1 h 36.49"
         style="fill:#8282a8;fill-opacity:1;fill-rule:nonzero;stroke:none"
         id="path144" /><path
         d="m 8504.16,8737.6 c -15.2,4.4 -27.11,10 -35.72,16.9 l 15.2,28.8 c 8.86,-6.3 19.63,-11.4 32.3,-15.2 12.67,-3.8 25.46,-5.7 38.38,-5.7 31.92,0 47.88,9.2 47.88,27.4 0,6.1 -2.16,10.9 -6.46,14.4 -4.31,3.6 -9.7,6.2 -16.15,7.8 -6.46,1.7 -15.64,3.5 -27.55,5.5 -16.22,2.6 -29.44,5.5 -39.72,8.8 -10.25,3.3 -19.06,8.8 -26.4,16.7 -7.36,7.9 -11.02,18.9 -11.02,33.1 0,18.2 7.6,32.8 22.8,43.8 15.2,11.1 35.59,16.6 61.18,16.6 13.42,0 26.85,-1.7 40.28,-5 13.43,-3.3 24.45,-7.7 33.06,-13.3 l -15.58,-28.8 c -16.47,10.6 -35.85,15.9 -58.14,15.9 -15.45,0 -27.24,-2.5 -35.34,-7.6 -8.11,-5.1 -12.16,-11.8 -12.16,-20.1 0,-6.6 2.28,-11.8 6.84,-15.6 4.56,-3.8 10.2,-6.6 16.91,-8.4 6.71,-1.7 16.15,-3.8 28.31,-6 16.21,-2.8 29.32,-5.8 39.33,-9 10,-3.1 18.55,-8.5 25.65,-16.1 7.09,-7.6 10.64,-18.3 10.64,-31.9 0,-18.3 -7.79,-32.8 -23.37,-43.5 -15.58,-10.8 -36.8,-16.2 -63.65,-16.2 -16.47,0 -32.3,2.2 -47.5,6.7"
         style="fill:#8282a8;fill-opacity:1;fill-rule:nonzero;stroke:none"
         id="path146" /><path
         d="m 8996.45,8914.4 c 14.82,-14.6 22.22,-36.4 22.22,-65.3 v -115.9 h -36.47 v 111.7 c 0,19.5 -4.5,34.2 -13.5,44.1 -8.99,9.9 -21.84,14.8 -38.56,14.8 -18.5,0 -33.19,-5.8 -44.08,-17.3 -10.9,-11.5 -16.34,-28 -16.34,-49.6 v -103.7 h -36.49 v 111.7 c 0,19.5 -4.49,34.2 -13.48,44.1 -9,9.9 -21.85,14.8 -38.58,14.8 -18.49,0 -33.18,-5.8 -44.07,-17.3 -10.9,-11.5 -16.35,-28 -16.35,-49.6 v -103.7 h -36.47 v 201.4 h 34.96 v -30 c 7.34,10.3 16.96,18.3 28.87,23.7 11.91,5.5 25.46,8.2 40.66,8.2 15.71,0 29.65,-3.2 41.81,-9.5 12.15,-6.4 21.52,-15.6 28.12,-27.8 7.6,11.7 18.17,20.8 31.73,27.4 13.54,6.6 28.81,9.9 45.79,9.9 25.33,0 45.4,-7.4 60.23,-22.1"
         style="fill:#8282a8;fill-opacity:1;fill-rule:nonzero;stroke:none"
         id="path148" /><path
         d="m 9208.1,8771.8 c 10.26,5.9 18.3,14.3 24.13,25 5.83,10.8 8.74,23.1 8.74,37.1 0,13.9 -2.91,26.3 -8.74,37 -5.83,10.8 -13.87,19.1 -24.13,24.9 -10.26,5.8 -21.85,8.8 -34.77,8.8 -12.92,0 -24.51,-3 -34.77,-8.8 -10.26,-5.8 -18.37,-14.1 -24.32,-24.9 -5.96,-10.7 -8.93,-23.1 -8.93,-37 0,-14 2.97,-26.3 8.93,-37.1 5.95,-10.7 14.06,-19.1 24.32,-25 10.26,-6 21.85,-9 34.77,-9 12.92,0 24.51,3 34.77,9 z m -88.73,-27.6 c -15.96,8.9 -28.44,21.1 -37.44,36.7 -8.99,15.6 -13.48,33.2 -13.48,53 0,19.7 4.49,37.4 13.48,53 9,15.6 21.48,27.7 37.44,36.5 15.96,8.7 33.95,13.1 53.96,13.1 20.01,0 37.93,-4.4 53.77,-13.1 15.83,-8.8 28.24,-20.9 37.24,-36.5 8.99,-15.6 13.49,-33.3 13.49,-53 0,-19.8 -4.5,-37.4 -13.49,-53 -9,-15.6 -21.41,-27.8 -37.24,-36.7 -15.84,-8.9 -33.76,-13.3 -53.77,-13.3 -20.01,0 -38,4.4 -53.96,13.3"
         style="fill:#8282a8;fill-opacity:1;fill-rule:nonzero;stroke:none"
         id="path150" /><path
         d="m 9449.21,8771.8 c 10.38,5.9 18.49,14.3 24.32,25 5.83,10.8 8.74,23.1 8.74,37.1 0,13.9 -2.91,26.3 -8.74,37 -5.83,10.8 -13.94,19.1 -24.32,24.9 -10.39,5.8 -21.92,8.8 -34.58,8.8 -12.92,0 -24.51,-3 -34.78,-8.8 -10.25,-5.8 -18.37,-14.1 -24.31,-24.9 -5.96,-10.7 -8.93,-23.1 -8.93,-37 0,-14 2.97,-26.3 8.93,-37.1 5.94,-10.7 14.06,-19.1 24.31,-25 10.27,-6 21.86,-9 34.78,-9 12.66,0 24.19,3 34.58,9 z m 69.16,243.3 v -281.9 h -34.96 v 31.9 c -8.12,-11.1 -18.37,-19.6 -30.78,-25.5 -12.42,-5.8 -26.1,-8.7 -41.05,-8.7 -19.5,0 -36.98,4.3 -52.43,12.9 -15.46,8.6 -27.56,20.7 -36.29,36.3 -8.74,15.6 -13.11,33.5 -13.11,53.8 0,20.2 4.37,38.1 13.11,53.6 8.73,15.4 20.83,27.4 36.29,36.1 15.45,8.6 32.93,12.9 52.43,12.9 14.45,0 27.75,-2.7 39.9,-8.2 12.17,-5.4 22.29,-13.5 30.4,-24.1 v 110.9 h 36.49"
         style="fill:#8282a8;fill-opacity:1;fill-rule:nonzero;stroke:none"
         id="path152" /><path
         d="m 9802.98,8745 c -5.32,-4.6 -11.92,-8.1 -19.76,-10.5 -7.86,-2.4 -15.96,-3.6 -24.32,-3.6 -20.27,0 -35.98,5.5 -47.12,16.3 -11.15,10.9 -16.72,26.5 -16.72,46.8 v 110.6 h -34.21 v 30 h 34.21 v 44.1 h 36.48 v -44.1 h 57.76 v -30 h -57.76 v -109.1 c 0,-10.9 2.73,-19.2 8.17,-25.1 5.45,-5.8 13.23,-8.7 23.37,-8.7 11.14,0 20.64,3.1 28.5,9.5 l 11.4,-26.2"
         style="fill:#8282a8;fill-opacity:1;fill-rule:nonzero;stroke:none"
         id="path154" /><path
         d="m 9878.78,8889.7 c -11.77,-10.6 -18.68,-24.5 -20.7,-41.8 h 129.2 c -2.04,17 -8.94,30.9 -20.72,41.7 -11.77,10.7 -26.4,16.1 -43.88,16.1 -17.49,0 -32.11,-5.3 -43.9,-16 z m 142.72,-68 h -163.42 c 2.28,-17.7 10.06,-32 23.37,-42.7 13.3,-10.8 29.82,-16.2 49.58,-16.2 24.07,0 43.44,8.1 58.14,24.3 l 20.13,-23.5 c -9.1,-10.7 -20.44,-18.8 -34,-24.3 -13.55,-5.6 -28.68,-8.4 -45.41,-8.4 -21.28,0 -40.15,4.4 -56.61,13.1 -16.48,8.8 -29.21,21 -38.2,36.7 -9,15.7 -13.49,33.4 -13.49,53.2 0,19.5 4.38,37.1 13.11,52.8 8.74,15.7 20.77,27.9 36.1,36.7 15.33,8.7 32.62,13.1 51.88,13.1 19.24,0 36.41,-4.4 51.48,-13.1 15.07,-8.8 26.84,-21 35.34,-36.7 8.5,-15.7 12.7,-33.7 12.7,-54 0,-2.8 -0.2,-6.4 -0.7,-11"
         style="fill:#8282a8;fill-opacity:1;fill-rule:nonzero;stroke:none"
         id="path156" /><path
         d="m 10384.9,8914.4 c 14.9,-14.6 22.3,-36.4 22.3,-65.3 v -115.9 h -36.5 v 111.7 c 0,19.5 -4.5,34.2 -13.5,44.1 -9,9.9 -21.9,14.8 -38.6,14.8 -18.5,0 -33.2,-5.8 -44.1,-17.3 -10.8,-11.5 -16.3,-28 -16.3,-49.6 v -103.7 h -36.5 v 111.7 c 0,19.5 -4.5,34.2 -13.5,44.1 -9,9.9 -21.8,14.8 -38.5,14.8 -18.5,0 -33.2,-5.8 -44.1,-17.3 -10.9,-11.5 -16.3,-28 -16.3,-49.6 v -103.7 h -36.5 v 201.4 h 34.9 v -30 c 7.4,10.3 17,18.3 28.9,23.7 11.9,5.5 25.5,8.2 40.7,8.2 15.7,0 29.6,-3.2 41.8,-9.5 12.1,-6.4 21.5,-15.6 28.1,-27.8 7.6,11.7 18.2,20.8 31.7,27.4 13.6,6.6 28.8,9.9 45.8,9.9 25.3,0 45.4,-7.4 60.2,-22.1"
         style="fill:#8282a8;fill-opacity:1;fill-rule:nonzero;stroke:none"
         id="path158" /><path
         d="m 10612.9,8771.8 c 10.3,5.9 18.4,14.3 24.4,25 5.9,10.8 8.9,23.1 8.9,37.1 0,13.9 -3,26.3 -8.9,37 -6,10.8 -14.1,19.1 -24.4,24.9 -10.2,5.8 -21.8,8.8 -34.7,8.8 -12.7,0 -24.2,-3 -34.4,-9 -10.3,-5.9 -18.4,-14.2 -24.3,-24.9 -6,-10.6 -9,-22.9 -9,-36.8 0,-14 2.9,-26.3 8.8,-37.1 5.8,-10.7 13.9,-19.1 24.3,-25 10.4,-6 21.9,-9 34.6,-9 12.9,0 24.5,3 34.7,9 z m 20.8,151.8 c 15.4,-8.7 27.5,-20.7 36.2,-36.1 8.8,-15.5 13.1,-33.4 13.1,-53.6 0,-20.3 -4.3,-38.2 -13.1,-53.8 -8.7,-15.6 -20.8,-27.7 -36.2,-36.3 -15.5,-8.6 -33,-12.9 -52.5,-12.9 -14.4,0 -27.7,2.8 -39.7,8.4 -12,5.5 -22.2,13.6 -30.6,24.3 v -104.1 h -36.5 v 275.1 h 35 v -31.9 c 8.1,11.1 18.3,19.5 30.8,25.2 12.4,5.7 26.1,8.6 41,8.6 19.5,0 37,-4.3 52.5,-12.9"
         style="fill:#8282a8;fill-opacity:1;fill-rule:nonzero;stroke:none"
         id="path160" /><path
         d="m 10854.6,8771.8 c 10.3,5.9 18.3,14.3 24.1,25 5.9,10.8 8.8,23.1 8.8,37.1 0,13.9 -2.9,26.3 -8.8,37 -5.8,10.8 -13.8,19.1 -24.1,24.9 -10.2,5.8 -21.8,8.8 -34.8,8.8 -12.9,0 -24.5,-3 -34.7,-8.8 -10.3,-5.8 -18.4,-14.1 -24.3,-24.9 -6,-10.7 -9,-23.1 -9,-37 0,-14 3,-26.3 9,-37.1 5.9,-10.7 14,-19.1 24.3,-25 10.2,-6 21.8,-9 34.7,-9 13,0 24.6,3 34.8,9 z m -88.7,-27.6 c -16,8.9 -28.5,21.1 -37.4,36.7 -9,15.6 -13.5,33.2 -13.5,53 0,19.7 4.5,37.4 13.5,53 8.9,15.6 21.4,27.7 37.4,36.5 15.9,8.7 33.9,13.1 53.9,13.1 20.1,0 38,-4.4 53.8,-13.1 15.9,-8.8 28.3,-20.9 37.3,-36.5 8.9,-15.6 13.5,-33.3 13.5,-53 0,-19.8 -4.6,-37.4 -13.5,-53 -9,-15.6 -21.4,-27.8 -37.3,-36.7 -15.8,-8.9 -33.7,-13.3 -53.8,-13.3 -20,0 -38,4.4 -53.9,13.3"
         style="fill:#8282a8;fill-opacity:1;fill-rule:nonzero;stroke:none"
         id="path162" /><path
         d="m 11038,8927.4 c 12.4,6 27.4,9.1 45.2,9.1 v -35.4 c -2,0.3 -4.8,0.4 -8.4,0.4 -19.7,0 -35.3,-5.9 -46.5,-17.6 -11.3,-11.8 -16.9,-28.6 -16.9,-50.4 v -100.3 h -36.5 v 201.4 h 34.9 v -33.8 c 6.4,11.6 15.7,20.5 28.2,26.6"
         style="fill:#8282a8;fill-opacity:1;fill-rule:nonzero;stroke:none"
         id="path164" /><path
         d="m 11232.9,8934.6 h 36.5 v -201.4 h -36.5 z m 0.6,45.6 c -4.7,4.5 -7.1,10.1 -7.1,16.7 0,6.6 2.4,12.2 7.1,16.9 4.6,4.7 10.5,7 17.6,7 7.1,0 13,-2.2 17.7,-6.6 4.7,-4.4 7,-10 7,-16.5 0,-6.9 -2.3,-12.6 -7,-17.3 -4.7,-4.7 -10.6,-7.1 -17.7,-7.1 -7.1,0 -13,2.3 -17.6,6.9"
         style="fill:#8282a8;fill-opacity:1;fill-rule:nonzero;stroke:none"
         id="path166" /><path
         d="m 11507.4,8914.3 c 15.1,-14.9 22.6,-36.6 22.6,-65.2 v -115.9 h -36.4 v 111.7 c 0,19.5 -4.7,34.2 -14.1,44.1 -9.4,9.9 -22.8,14.8 -40.3,14.8 -19.7,0 -35.3,-5.8 -46.7,-17.3 -11.4,-11.5 -17.1,-28 -17.1,-49.6 v -103.7 h -36.5 v 201.4 h 35 v -30.4 c 7.3,10.4 17.3,18.3 29.8,23.9 12.5,5.6 26.8,8.4 42.7,8.4 25.6,0 46,-7.4 61,-22.2"
         style="fill:#8282a8;fill-opacity:1;fill-rule:nonzero;stroke:none"
         id="path168" /><path
         d="m 11631.7,8744.2 c -16.1,8.9 -28.7,21.1 -37.8,36.7 -9.1,15.6 -13.7,33.2 -13.7,53 0,19.7 4.6,37.4 13.7,53 9.1,15.6 21.7,27.7 37.8,36.5 16.1,8.7 34.4,13.1 54.9,13.1 18.2,0 34.5,-3.7 48.8,-11 14.3,-7.4 25.4,-18 33.3,-32 l -27.7,-17.8 c -6.4,9.6 -14.2,16.8 -23.6,21.6 -9.4,4.9 -19.8,7.3 -31.2,7.3 -13.1,0 -25,-3 -35.5,-8.8 -10.5,-5.8 -18.7,-14.1 -24.7,-24.9 -6,-10.7 -8.9,-23.1 -8.9,-37 0,-14.2 2.9,-26.7 8.9,-37.4 6,-10.8 14.2,-19.1 24.7,-24.9 10.5,-5.9 22.4,-8.8 35.5,-8.8 11.4,0 21.8,2.4 31.2,7.2 9.4,4.8 17.2,12.1 23.6,21.7 l 27.7,-17.5 c -7.9,-13.9 -19,-24.6 -33.3,-32.1 -14.3,-7.5 -30.6,-11.2 -48.8,-11.2 -20.5,0 -38.8,4.4 -54.9,13.3"
         style="fill:#8282a8;fill-opacity:1;fill-rule:nonzero;stroke:none"
         id="path170" /><path
         d="m 11815.8,8934.6 h 36.5 v -201.4 h -36.5 z m 0.6,45.6 c -4.7,4.5 -7,10.1 -7,16.7 0,6.6 2.3,12.2 7,16.9 4.7,4.7 10.6,7 17.7,7 7.1,0 12.9,-2.2 17.6,-6.6 4.7,-4.4 7.1,-10 7.1,-16.5 0,-6.9 -2.4,-12.6 -7.1,-17.3 -4.7,-4.7 -10.5,-7.1 -17.6,-7.1 -7.1,0 -13,2.3 -17.7,6.9"
         style="fill:#8282a8;fill-opacity:1;fill-rule:nonzero;stroke:none"
         id="path172" /><path
         d="m 12042.7,8771.8 c 10.3,5.9 18.5,14.3 24.3,25 5.8,10.8 8.7,23.1 8.7,37.1 0,13.9 -2.9,26.3 -8.7,37 -5.8,10.8 -14,19.1 -24.3,24.9 -10.4,5.8 -21.9,8.8 -34.6,8.8 -12.9,0 -24.5,-3 -34.8,-8.8 -10.2,-5.8 -18.4,-14.1 -24.3,-24.9 -6,-10.7 -8.9,-23.1 -8.9,-37 0,-14 2.9,-26.3 8.9,-37.1 5.9,-10.7 14.1,-19.1 24.3,-25 10.3,-6 21.9,-9 34.8,-9 12.7,0 24.2,3 34.6,9 z m 69.1,243.3 v -281.9 h -34.9 v 31.9 c -8.1,-11.1 -18.4,-19.6 -30.8,-25.5 -12.4,-5.8 -26.1,-8.7 -41.1,-8.7 -19.5,0 -36.9,4.3 -52.4,12.9 -15.5,8.6 -27.5,20.7 -36.3,36.3 -8.7,15.6 -13.1,33.5 -13.1,53.8 0,20.2 4.4,38.1 13.1,53.6 8.8,15.4 20.8,27.4 36.3,36.1 15.5,8.6 32.9,12.9 52.4,12.9 14.5,0 27.8,-2.7 39.9,-8.2 12.2,-5.4 22.3,-13.5 30.4,-24.1 v 110.9 h 36.5"
         style="fill:#8282a8;fill-opacity:1;fill-rule:nonzero;stroke:none"
         id="path174" /><path
         d="m 12181,8934.6 h 36.5 v -201.4 h -36.5 z m 0.6,45.6 c -4.7,4.5 -7.1,10.1 -7.1,16.7 0,6.6 2.4,12.2 7.1,16.9 4.7,4.7 10.5,7 17.6,7 7.1,0 13,-2.2 17.7,-6.6 4.7,-4.4 7,-10 7,-16.5 0,-6.9 -2.3,-12.6 -7,-17.3 -4.7,-4.7 -10.6,-7.1 -17.7,-7.1 -7.1,0 -12.9,2.3 -17.6,6.9"
         style="fill:#8282a8;fill-opacity:1;fill-rule:nonzero;stroke:none"
         id="path176" /><path
         d="m 12407.9,8771.8 c 10.3,5.9 18.4,14.3 24.3,25 5.8,10.8 8.7,23.1 8.7,37.1 0,13.9 -2.9,26.3 -8.7,37 -5.9,10.8 -14,19.1 -24.3,24.9 -10.4,5.8 -22,8.8 -34.6,8.8 -13,0 -24.5,-3 -34.8,-8.8 -10.3,-5.8 -18.4,-14.1 -24.3,-24.9 -6,-10.7 -8.9,-23.1 -8.9,-37 0,-14 2.9,-26.3 8.9,-37.1 5.9,-10.7 14,-19.1 24.3,-25 10.3,-6 21.8,-9 34.8,-9 12.6,0 24.2,3 34.6,9 z m 69.1,243.3 v -281.9 h -35 v 31.9 c -8.1,-11.1 -18.3,-19.6 -30.7,-25.5 -12.5,-5.8 -26.1,-8.7 -41.1,-8.7 -19.5,0 -37,4.3 -52.4,12.9 -15.5,8.6 -27.6,20.7 -36.3,36.3 -8.7,15.6 -13.1,33.5 -13.1,53.8 0,20.2 4.4,38.1 13.1,53.6 8.7,15.4 20.8,27.4 36.3,36.1 15.4,8.6 32.9,12.9 52.4,12.9 14.5,0 27.8,-2.7 39.9,-8.2 12.2,-5.4 22.3,-13.5 30.4,-24.1 v 110.9 h 36.5"
         style="fill:#8282a8;fill-opacity:1;fill-rule:nonzero;stroke:none"
         id="path178" /><path
         d="m 12733.9,8934.6 v -201.4 h -34.6 v 30.4 c -7.3,-10.4 -17,-18.5 -29.1,-24.1 -12,-5.7 -25.1,-8.6 -39.3,-8.6 -26.9,0 -48,7.4 -63.5,22.2 -15.4,14.9 -23.1,36.7 -23.1,65.6 v 115.9 h 36.4 v -111.7 c 0,-19.5 4.7,-34.3 14.1,-44.3 9.4,-10 22.8,-15 40.3,-15 19.2,0 34.4,5.8 45.6,17.5 11.1,11.6 16.7,28.1 16.7,49.4 v 104.1 h 36.5"
         style="fill:#8282a8;fill-opacity:1;fill-rule:nonzero;stroke:none"
         id="path180" /><path
         d="m 12972,8914.3 c 15,-14.9 22.6,-36.6 22.6,-65.2 v -115.9 h -36.5 v 111.7 c 0,19.5 -4.7,34.2 -14.1,44.1 -9.4,9.9 -22.8,14.8 -40.2,14.8 -19.8,0 -35.4,-5.8 -46.8,-17.3 -11.4,-11.5 -17.1,-28 -17.1,-49.6 v -103.7 h -36.5 v 201.4 h 35 v -30.4 c 7.3,10.4 17.3,18.3 29.8,23.9 12.6,5.6 26.8,8.4 42.8,8.4 25.5,0 45.9,-7.4 61,-22.2"
         style="fill:#8282a8;fill-opacity:1;fill-rule:nonzero;stroke:none"
         id="path182" /><path
         d="m 13175.4,8745 c -5.3,-4.6 -11.9,-8.1 -19.7,-10.5 -7.9,-2.4 -16,-3.6 -24.3,-3.6 -20.3,0 -36,5.5 -47.2,16.3 -11.1,10.9 -16.7,26.5 -16.7,46.8 v 110.6 h -34.2 v 30 h 34.2 v 44.1 h 36.5 v -44.1 h 57.8 v -30 h -57.8 v -109.1 c 0,-10.9 2.7,-19.2 8.2,-25.1 5.4,-5.8 13.2,-8.7 23.3,-8.7 11.2,0 20.7,3.1 28.5,9.5 l 11.4,-26.2"
         style="fill:#8282a8;fill-opacity:1;fill-rule:nonzero;stroke:none"
         id="path184" /><path
         d="m 13509.5,8934.6 v -201.4 h -34.6 v 30.4 c -7.4,-10.4 -17.1,-18.5 -29.1,-24.1 -12,-5.7 -25.1,-8.6 -39.3,-8.6 -26.9,0 -48,7.4 -63.5,22.2 -15.5,14.9 -23.2,36.7 -23.2,65.6 v 115.9 h 36.5 v -111.7 c 0,-19.5 4.7,-34.3 14.1,-44.3 9.3,-10 22.8,-15 40.2,-15 19.3,0 34.5,5.8 45.7,17.5 11.1,11.6 16.7,28.1 16.7,49.4 v 104.1 h 36.5"
         style="fill:#8282a8;fill-opacity:1;fill-rule:nonzero;stroke:none"
         id="path186" /><path
         d="m 13692.2,8745 c -5.3,-4.6 -11.9,-8.1 -19.7,-10.5 -7.9,-2.4 -16,-3.6 -24.4,-3.6 -20.2,0 -35.9,5.5 -47.1,16.3 -11.1,10.9 -16.7,26.5 -16.7,46.8 v 110.6 h -34.2 v 30 h 34.2 v 44.1 h 36.5 v -44.1 h 57.7 v -30 h -57.7 v -109.1 c 0,-10.9 2.7,-19.2 8.2,-25.1 5.4,-5.8 13.2,-8.7 23.3,-8.7 11.2,0 20.7,3.1 28.5,9.5 l 11.4,-26.2"
         style="fill:#8282a8;fill-opacity:1;fill-rule:nonzero;stroke:none"
         id="path188" /><path
         d="m 6319.59,8465.1 h 36.47 v -281.9 h -36.47 v 281.9"
         style="fill:#8282a8;fill-opacity:1;fill-rule:nonzero;stroke:none"
         id="path190" /><path
         d="m 6526.68,8218.3 c 10.14,6.2 17.48,15 22.04,26.4 v 28.2 h -56.24 c -30.91,0 -46.36,-10.4 -46.36,-31.2 0,-10.1 3.93,-18.1 11.78,-23.9 7.85,-5.9 18.75,-8.8 32.69,-8.8 13.92,0 25.96,3.1 36.09,9.3 z m 36.29,147.7 c 14.82,-13.7 22.24,-34.1 22.24,-61.2 v -121.6 h -34.58 v 26.6 c -6.09,-9.4 -14.77,-16.6 -26.04,-21.5 -11.27,-4.9 -24.63,-7.4 -40.09,-7.4 -22.55,0 -40.59,5.5 -54.14,16.3 -13.56,10.9 -20.34,25.2 -20.34,43 0,17.7 6.46,32 19.38,42.7 12.92,10.8 33.45,16.2 61.57,16.2 h 57.75 v 7.2 c 0,15.7 -4.56,27.7 -13.68,36.1 -9.11,8.4 -22.54,12.5 -40.27,12.5 -11.91,0 -23.57,-1.9 -34.97,-5.9 -11.4,-3.9 -21.03,-9.1 -28.87,-15.7 l -15.2,27.3 c 10.38,8.4 22.8,14.8 37.23,19.2 14.45,4.5 29.76,6.7 45.99,6.7 27.86,0 49.2,-6.9 64.02,-20.5"
         style="fill:#8282a8;fill-opacity:1;fill-rule:nonzero;stroke:none"
         id="path192" /><path
         d="m 6791.36,8221.8 c 10.25,5.9 18.36,14.3 24.31,25 5.95,10.8 8.93,23.1 8.93,37.1 0,13.9 -2.98,26.3 -8.93,37 -5.95,10.8 -14.06,19.1 -24.31,24.9 -10.27,5.8 -21.86,8.8 -34.78,8.8 -12.67,0 -24.19,-3 -34.58,-8.8 -10.39,-5.8 -18.49,-14.1 -24.32,-24.9 -5.83,-10.7 -8.74,-23.1 -8.74,-37 0,-14 2.91,-26.3 8.74,-37.1 5.83,-10.7 13.93,-19.1 24.32,-25 10.39,-6 21.91,-9 34.58,-9 12.92,0 24.51,3 34.78,9 z m 20.7,151.8 c 15.45,-8.7 27.55,-20.7 36.29,-36.1 8.74,-15.5 13.11,-33.4 13.11,-53.6 0,-20.3 -4.37,-38.2 -13.11,-53.8 -8.74,-15.6 -20.84,-27.7 -36.29,-36.3 -15.45,-8.6 -32.94,-12.9 -52.44,-12.9 -14.95,0 -28.63,2.9 -41.04,8.7 -12.41,5.9 -22.67,14.4 -30.78,25.5 v -31.9 h -34.96 v 281.9 h 36.48 v -110.9 c 8.1,10.6 18.24,18.7 30.4,24.1 12.16,5.5 25.46,8.2 39.9,8.2 19.5,0 36.99,-4.3 52.44,-12.9"
         style="fill:#8282a8;fill-opacity:1;fill-rule:nonzero;stroke:none"
         id="path194" /><path
         d="m 7033.02,8221.8 c 10.26,5.9 18.31,14.3 24.14,25 5.82,10.8 8.74,23.1 8.74,37.1 0,13.9 -2.92,26.3 -8.74,37 -5.83,10.8 -13.88,19.1 -24.14,24.9 -10.25,5.8 -21.85,8.8 -34.77,8.8 -12.92,0 -24.51,-3 -34.76,-8.8 -10.26,-5.8 -18.37,-14.1 -24.33,-24.9 -5.95,-10.7 -8.92,-23.1 -8.92,-37 0,-14 2.97,-26.3 8.92,-37.1 5.96,-10.7 14.07,-19.1 24.33,-25 10.25,-6 21.84,-9 34.76,-9 12.92,0 24.52,3 34.77,9 z m -88.72,-27.6 c -15.97,8.9 -28.45,21.1 -37.43,36.7 -9,15.6 -13.49,33.2 -13.49,53 0,19.7 4.49,37.4 13.49,53 8.98,15.6 21.46,27.7 37.43,36.5 15.95,8.7 33.94,13.1 53.95,13.1 20.01,0 37.94,-4.4 53.77,-13.1 15.84,-8.8 28.25,-20.9 37.25,-36.5 8.98,-15.6 13.49,-33.3 13.49,-53 0,-19.8 -4.51,-37.4 -13.49,-53 -9,-15.6 -21.41,-27.8 -37.25,-36.7 -15.83,-8.9 -33.76,-13.3 -53.77,-13.3 -20.01,0 -38,4.4 -53.95,13.3"
         style="fill:#8282a8;fill-opacity:1;fill-rule:nonzero;stroke:none"
         id="path196" /><path
         d="m 7216.38,8377.4 c 12.4,6 27.48,9.1 45.21,9.1 v -35.4 c -2.03,0.3 -4.81,0.4 -8.36,0.4 -19.75,0 -35.28,-5.9 -46.55,-17.6 -11.27,-11.8 -16.9,-28.6 -16.9,-50.4 v -100.3 h -36.48 v 201.4 h 34.95 v -33.8 c 6.33,11.6 15.71,20.5 28.13,26.6"
         style="fill:#8282a8;fill-opacity:1;fill-rule:nonzero;stroke:none"
         id="path198" /><path
         d="m 7343.11,8339.7 c -11.78,-10.6 -18.7,-24.5 -20.72,-41.8 h 129.2 c -2.03,17 -8.92,30.9 -20.71,41.7 -11.78,10.7 -26.41,16.1 -43.89,16.1 -17.48,0 -32.1,-5.3 -43.88,-16 z m 142.69,-68 h -163.41 c 2.29,-17.7 10.07,-32 23.38,-42.7 13.29,-10.8 29.83,-16.2 49.59,-16.2 24.05,0 43.44,8.1 58.14,24.3 l 20.13,-23.5 c -9.12,-10.7 -20.46,-18.8 -34.01,-24.3 -13.56,-5.6 -28.68,-8.4 -45.41,-8.4 -21.28,0 -40.15,4.4 -56.61,13.1 -16.48,8.8 -29.21,21 -38.2,36.7 -8.99,15.7 -13.48,33.4 -13.48,53.2 0,19.5 4.37,37.1 13.11,52.8 8.73,15.7 20.76,27.9 36.1,36.7 15.32,8.7 32.6,13.1 51.86,13.1 19.25,0 36.42,-4.4 51.5,-13.1 15.06,-8.8 26.84,-21 35.34,-36.7 8.47,-15.7 12.72,-33.7 12.72,-54 0,-2.8 -0.25,-6.4 -0.75,-11"
         style="fill:#8282a8;fill-opacity:1;fill-rule:nonzero;stroke:none"
         id="path200" /><path
         d="m 7677.88,8339.7 c -11.78,-10.6 -18.69,-24.5 -20.71,-41.8 h 129.2 c -2.03,17 -8.93,30.9 -20.72,41.7 -11.77,10.7 -26.4,16.1 -43.88,16.1 -17.48,0 -32.11,-5.3 -43.89,-16 z m 142.69,-68 h -163.4 c 2.28,-17.7 10.07,-32 23.37,-42.7 13.31,-10.8 29.83,-16.2 49.59,-16.2 24.06,0 43.44,8.1 58.14,24.3 l 20.14,-23.5 c -9.12,-10.7 -20.46,-18.8 -34.01,-24.3 -13.56,-5.6 -28.69,-8.4 -45.42,-8.4 -21.27,0 -40.14,4.4 -56.61,13.1 -16.47,8.8 -29.21,21 -38.19,36.7 -8.99,15.7 -13.49,33.4 -13.49,53.2 0,19.5 4.37,37.1 13.11,52.8 8.73,15.7 20.77,27.9 36.1,36.7 15.32,8.7 32.61,13.1 51.87,13.1 19.25,0 36.42,-4.4 51.49,-13.1 15.07,-8.8 26.85,-21 35.34,-36.7 8.48,-15.7 12.73,-33.7 12.73,-54 0,-2.8 -0.26,-6.4 -0.76,-11"
         style="fill:#8282a8;fill-opacity:1;fill-rule:nonzero;stroke:none"
         id="path202" /><path
         d="m 7985.11,8195 c -5.32,-4.6 -11.92,-8.1 -19.76,-10.5 -7.85,-2.4 -15.97,-3.6 -24.32,-3.6 -20.27,0 -35.98,5.5 -47.12,16.3 -11.15,10.9 -16.72,26.5 -16.72,46.8 v 110.6 h -34.2 v 30 h 34.2 v 44.1 h 36.48 v -44.1 h 57.76 v -30 h -57.76 v -109.1 c 0,-10.9 2.72,-19.2 8.17,-25.1 5.45,-5.8 13.23,-8.7 23.37,-8.7 11.15,0 20.64,3.1 28.5,9.5 l 11.4,-26.2"
         style="fill:#8282a8;fill-opacity:1;fill-rule:nonzero;stroke:none"
         id="path204" /><path
         d="m 8252.24,8221.8 c 10.39,5.9 18.49,14.3 24.32,25 5.83,10.8 8.74,23.1 8.74,37.1 0,13.9 -2.91,26.3 -8.74,37 -5.83,10.8 -13.93,19.1 -24.32,24.9 -10.39,5.8 -21.91,8.8 -34.58,8.8 -12.92,0 -24.52,-3 -34.77,-8.8 -10.26,-5.8 -18.37,-14.1 -24.33,-24.9 -5.94,-10.7 -8.92,-23.1 -8.92,-37 0,-14 2.98,-26.3 8.92,-37.1 5.96,-10.7 14.07,-19.1 24.33,-25 10.25,-6 21.85,-9 34.77,-9 12.67,0 24.19,3 34.58,9 z m 69.16,243.3 v -281.9 h -34.96 v 31.9 c -8.11,-11.1 -18.37,-19.6 -30.79,-25.5 -12.4,-5.8 -26.09,-8.7 -41.04,-8.7 -19.5,0 -36.98,4.3 -52.42,12.9 -15.47,8.6 -27.56,20.7 -36.3,36.3 -8.74,15.6 -13.11,33.5 -13.11,53.8 0,20.2 4.37,38.1 13.11,53.6 8.74,15.4 20.83,27.4 36.3,36.1 15.44,8.6 32.92,12.9 52.42,12.9 14.45,0 27.75,-2.7 39.91,-8.2 12.16,-5.4 22.29,-13.5 30.4,-24.1 v 110.9 h 36.48"
         style="fill:#8282a8;fill-opacity:1;fill-rule:nonzero;stroke:none"
         id="path206" /><path
         d="m 8511.58,8221.8 c 10.27,5.9 18.31,14.3 24.13,25 5.83,10.8 8.74,23.1 8.74,37.1 0,13.9 -2.91,26.3 -8.74,37 -5.82,10.8 -13.86,19.1 -24.13,24.9 -10.25,5.8 -21.84,8.8 -34.76,8.8 -12.92,0 -24.52,-3 -34.78,-8.8 -10.26,-5.8 -18.37,-14.1 -24.32,-24.9 -5.95,-10.7 -8.92,-23.1 -8.92,-37 0,-14 2.97,-26.3 8.92,-37.1 5.95,-10.7 14.06,-19.1 24.32,-25 10.26,-6 21.86,-9 34.78,-9 12.92,0 24.51,3 34.76,9 z m -88.72,-27.6 c -15.97,8.9 -28.45,21.1 -37.44,36.7 -8.99,15.6 -13.49,33.2 -13.49,53 0,19.7 4.5,37.4 13.49,53 8.99,15.6 21.47,27.7 37.44,36.5 15.96,8.7 33.94,13.1 53.96,13.1 20.01,0 37.93,-4.4 53.77,-13.1 15.83,-8.8 28.24,-20.9 37.23,-36.5 9,-15.6 13.5,-33.3 13.5,-53 0,-19.8 -4.5,-37.4 -13.5,-53 -8.99,-15.6 -21.4,-27.8 -37.23,-36.7 -15.84,-8.9 -33.76,-13.3 -53.77,-13.3 -20.02,0 -38,4.4 -53.96,13.3"
         style="fill:#8282a8;fill-opacity:1;fill-rule:nonzero;stroke:none"
         id="path208" /><path
         d="m 8631.86,8465.1 h 36.47 v -281.9 h -36.47 v 281.9"
         style="fill:#8282a8;fill-opacity:1;fill-rule:nonzero;stroke:none"
         id="path210" /><path
         d="m 8858.9,8221.8 c 10.26,5.9 18.3,14.3 24.13,25 5.83,10.8 8.74,23.1 8.74,37.1 0,13.9 -2.91,26.3 -8.74,37 -5.83,10.8 -13.87,19.1 -24.13,24.9 -10.26,5.8 -21.85,8.8 -34.77,8.8 -12.92,0 -24.52,-3 -34.77,-8.8 -10.26,-5.8 -18.37,-14.1 -24.32,-24.9 -5.95,-10.7 -8.93,-23.1 -8.93,-37 0,-14 2.98,-26.3 8.93,-37.1 5.95,-10.7 14.06,-19.1 24.32,-25 10.25,-6 21.85,-9 34.77,-9 12.92,0 24.51,3 34.77,9 z m -88.73,-27.6 c -15.96,8.9 -28.44,21.1 -37.44,36.7 -8.99,15.6 -13.48,33.2 -13.48,53 0,19.7 4.49,37.4 13.48,53 9,15.6 21.48,27.7 37.44,36.5 15.96,8.7 33.95,13.1 53.96,13.1 20.01,0 37.93,-4.4 53.77,-13.1 15.83,-8.8 28.25,-20.9 37.24,-36.5 8.99,-15.6 13.49,-33.3 13.49,-53 0,-19.8 -4.5,-37.4 -13.49,-53 -8.99,-15.6 -21.41,-27.8 -37.24,-36.7 -15.84,-8.9 -33.76,-13.3 -53.77,-13.3 -20.01,0 -38,4.4 -53.96,13.3"
         style="fill:#8282a8;fill-opacity:1;fill-rule:nonzero;stroke:none"
         id="path212" /><path
         d="m 9042.25,8377.4 c 12.41,6 27.49,9.1 45.22,9.1 v -35.4 c -2.03,0.3 -4.81,0.4 -8.36,0.4 -19.76,0 -35.28,-5.9 -46.55,-17.6 -11.28,-11.8 -16.92,-28.6 -16.92,-50.4 v -100.3 h -36.47 v 201.4 h 34.96 v -33.8 c 6.32,11.6 15.7,20.5 28.12,26.6"
         style="fill:#8282a8;fill-opacity:1;fill-rule:nonzero;stroke:none"
         id="path214" /><path
         d="m 9168.97,8339.7 c -11.77,-10.6 -18.68,-24.5 -20.71,-41.8 h 129.2 c -2.03,17 -8.92,30.9 -20.71,41.7 -11.77,10.7 -26.41,16.1 -43.89,16.1 -17.48,0 -32.11,-5.3 -43.89,-16 z m 142.69,-68 h -163.4 c 2.29,-17.7 10.07,-32 23.38,-42.7 13.3,-10.8 29.82,-16.2 49.58,-16.2 24.07,0 43.45,8.1 58.15,24.3 l 20.13,-23.5 c -9.12,-10.7 -20.46,-18.8 -34.01,-24.3 -13.56,-5.6 -28.68,-8.4 -45.41,-8.4 -21.28,0 -40.15,4.4 -56.61,13.1 -16.48,8.8 -29.2,21 -38.2,36.7 -8.99,15.7 -13.49,33.4 -13.49,53.2 0,19.5 4.37,37.1 13.11,52.8 8.74,15.7 20.77,27.9 36.11,36.7 15.32,8.7 32.61,13.1 51.86,13.1 19.25,0 36.42,-4.4 51.5,-13.1 15.06,-8.8 26.84,-21 35.34,-36.7 8.47,-15.7 12.72,-33.7 12.72,-54 0,-2.8 -0.25,-6.4 -0.76,-11"
         style="fill:#8282a8;fill-opacity:1;fill-rule:nonzero;stroke:none"
         id="path216" /><path
         d="m 9777.34,8364.4 c 14.83,-14.6 22.24,-36.4 22.24,-65.3 v -115.9 h -36.48 v 111.7 c 0,19.5 -4.5,34.2 -13.49,44.1 -8.99,9.9 -21.85,14.8 -38.57,14.8 -18.5,0 -33.19,-5.8 -44.08,-17.3 -10.9,-11.5 -16.34,-28 -16.34,-49.6 v -103.7 h -36.48 v 111.7 c 0,19.5 -4.5,34.2 -13.5,44.1 -8.98,9.9 -21.84,14.8 -38.56,14.8 -18.5,0 -33.19,-5.8 -44.08,-17.3 -10.9,-11.5 -16.34,-28 -16.34,-49.6 v -103.7 h -36.48 v 201.4 h 34.96 v -30 c 7.34,10.3 16.97,18.3 28.87,23.7 11.92,5.5 25.47,8.2 40.68,8.2 15.69,0 29.63,-3.2 41.79,-9.5 12.16,-6.4 21.53,-15.6 28.12,-27.8 7.6,11.7 18.17,20.8 31.73,27.4 13.54,6.6 28.82,9.9 45.79,9.9 25.33,0 45.41,-7.4 60.22,-22.1"
         style="fill:#8282a8;fill-opacity:1;fill-rule:nonzero;stroke:none"
         id="path218" /><path
         d="m 9967.91,8218.3 c 10.14,6.2 17.49,15 22.05,26.4 v 28.2 h -56.24 c -30.91,0 -46.37,-10.4 -46.37,-31.2 0,-10.1 3.93,-18.1 11.79,-23.9 7.84,-5.9 18.74,-8.8 32.68,-8.8 13.92,0 25.95,3.1 36.09,9.3 z m 36.29,147.7 c 14.8,-13.7 22.2,-34.1 22.2,-61.2 v -121.6 h -34.54 v 26.6 c -6.08,-9.4 -14.77,-16.6 -26.04,-21.5 -11.27,-4.9 -24.64,-7.4 -40.09,-7.4 -22.55,0 -40.59,5.5 -54.15,16.3 -13.55,10.9 -20.33,25.2 -20.33,43 0,17.7 6.46,32 19.38,42.7 12.92,10.8 33.44,16.2 61.57,16.2 h 57.76 v 7.2 c 0,15.7 -4.56,27.7 -13.69,36.1 -9.11,8.4 -22.55,12.5 -40.27,12.5 -11.91,0 -23.57,-1.9 -34.97,-5.9 -11.4,-3.9 -21.03,-9.1 -28.87,-15.7 l -15.21,27.3 c 10.38,8.4 22.81,14.8 37.24,19.2 14.44,4.5 29.77,6.7 45.99,6.7 27.86,0 49.2,-6.9 64.02,-20.5"
         style="fill:#8282a8;fill-opacity:1;fill-rule:nonzero;stroke:none"
         id="path220" /><path
         d="m 10218.5,8231.8 c 10.5,5.6 18.8,13.4 24.7,23.4 6,10 8.9,21.3 8.9,34 0,19.5 -6.4,35.3 -19.3,47.3 -13,12 -29.5,18.1 -49.8,18.1 -20.5,0 -37.3,-6.1 -50.2,-18.1 -12.9,-12 -19.3,-27.8 -19.3,-47.3 0,-12.7 2.9,-24 8.9,-34 5.9,-10 14.2,-17.8 24.7,-23.4 10.5,-5.5 22.5,-8.3 35.9,-8.3 13.2,0 25,2.8 35.5,8.3 z m 69.4,152.8 v -174.1 c 0,-35.2 -8.8,-61.2 -26.3,-78.1 -17.4,-16.8 -43.5,-25.2 -78.2,-25.2 -19,0 -37.1,2.6 -54.4,7.8 -17.2,5.2 -31.1,12.6 -41.8,22.2 l 17.5,28.1 c 9.4,-8.1 21,-14.5 34.8,-19.2 13.8,-4.6 28,-7 42.7,-7 23.6,0 41,5.6 52.3,16.7 11.2,11.2 16.9,28.2 16.9,50.9 v 16 c -8.6,-10.4 -19.2,-18.2 -31.7,-23.4 -12.6,-5.2 -26.2,-7.8 -40.9,-7.8 -19.2,0 -36.7,4.2 -52.2,12.4 -15.6,8.2 -27.8,19.8 -36.7,34.6 -8.9,14.8 -13.3,31.7 -13.3,50.7 0,19 4.4,35.9 13.3,50.7 8.9,14.9 21.1,26.3 36.7,34.4 15.5,8.1 33,12.2 52.2,12.2 15.2,0 29.3,-2.8 42.4,-8.4 13,-5.6 23.7,-13.8 32.1,-24.7 v 31.2 h 34.6"
         style="fill:#8282a8;fill-opacity:1;fill-rule:nonzero;stroke:none"
         id="path222" /><path
         d="m 10525.9,8364.3 c 15.1,-14.9 22.6,-36.6 22.6,-65.2 v -115.9 h -36.4 v 111.7 c 0,19.5 -4.7,34.2 -14.1,44.1 -9.4,9.9 -22.8,14.8 -40.3,14.8 -19.7,0 -35.3,-5.8 -46.7,-17.3 -11.4,-11.5 -17.1,-28 -17.1,-49.6 v -103.7 h -36.5 v 201.4 h 35 v -30.4 c 7.3,10.4 17.2,18.3 29.8,23.9 12.5,5.6 26.8,8.4 42.7,8.4 25.6,0 46,-7.4 61,-22.2"
         style="fill:#8282a8;fill-opacity:1;fill-rule:nonzero;stroke:none"
         id="path224" /><path
         d="m 10717.3,8218.3 c 10.1,6.2 17.4,15 22,26.4 v 28.2 h -56.2 c -31,0 -46.4,-10.4 -46.4,-31.2 0,-10.1 3.9,-18.1 11.8,-23.9 7.8,-5.9 18.7,-8.8 32.7,-8.8 13.9,0 25.9,3.1 36.1,9.3 z m 36.3,147.7 c 14.8,-13.7 22.2,-34.1 22.2,-61.2 v -121.6 h -34.6 v 26.6 c -6.1,-9.4 -14.8,-16.6 -26,-21.5 -11.3,-4.9 -24.7,-7.4 -40.1,-7.4 -22.6,0 -40.6,5.5 -54.2,16.3 -13.5,10.9 -20.3,25.2 -20.3,43 0,17.7 6.5,32 19.4,42.7 12.9,10.8 33.4,16.2 61.5,16.2 h 57.8 v 7.2 c 0,15.7 -4.6,27.7 -13.7,36.1 -9.1,8.4 -22.5,12.5 -40.3,12.5 -11.9,0 -23.5,-1.9 -34.9,-5.9 -11.4,-3.9 -21,-9.1 -28.9,-15.7 l -15.2,27.3 c 10.4,8.4 22.8,14.8 37.2,19.2 14.5,4.5 29.8,6.7 46,6.7 27.9,0 49.2,-6.9 64.1,-20.5"
         style="fill:#8282a8;fill-opacity:1;fill-rule:nonzero;stroke:none"
         id="path226" /><path
         d="m 11046.7,8218.3 c 10.1,6.2 17.5,15 22.1,26.4 v 28.2 h -56.3 c -30.9,0 -46.3,-10.4 -46.3,-31.2 0,-10.1 3.9,-18.1 11.7,-23.9 7.9,-5.9 18.8,-8.8 32.7,-8.8 13.9,0 26,3.1 36.1,9.3 z m 36.3,147.7 c 14.8,-13.7 22.2,-34.1 22.2,-61.2 v -121.6 h -34.5 v 26.6 c -6.1,-9.4 -14.8,-16.6 -26.1,-21.5 -11.3,-4.9 -24.6,-7.4 -40.1,-7.4 -22.5,0 -40.6,5.5 -54.1,16.3 -13.6,10.9 -20.3,25.2 -20.3,43 0,17.7 6.4,32 19.3,42.7 13,10.8 33.5,16.2 61.6,16.2 h 57.8 v 7.2 c 0,15.7 -4.6,27.7 -13.7,36.1 -9.1,8.4 -22.6,12.5 -40.3,12.5 -11.9,0 -23.6,-1.9 -35,-5.9 -11.4,-3.9 -21,-9.1 -28.8,-15.7 l -15.2,27.3 c 10.4,8.4 22.8,14.8 37.2,19.2 14.4,4.5 29.8,6.7 46,6.7 27.8,0 49.2,-6.9 64,-20.5"
         style="fill:#8282a8;fill-opacity:1;fill-rule:nonzero;stroke:none"
         id="path228" /><path
         d="m 11172.9,8465.1 h 36.5 v -281.9 h -36.5 v 281.9"
         style="fill:#8282a8;fill-opacity:1;fill-rule:nonzero;stroke:none"
         id="path230" /><path
         d="m 11278.9,8384.6 h 36.5 v -201.4 h -36.5 z m 0.6,45.6 c -4.7,4.5 -7.1,10.1 -7.1,16.7 0,6.6 2.4,12.2 7.1,16.9 4.6,4.7 10.5,7 17.6,7 7.1,0 13,-2.2 17.7,-6.6 4.7,-4.4 7,-10 7,-16.5 0,-6.9 -2.3,-12.6 -7,-17.3 -4.7,-4.7 -10.6,-7.1 -17.7,-7.1 -7.1,0 -13,2.3 -17.6,6.9"
         style="fill:#8282a8;fill-opacity:1;fill-rule:nonzero;stroke:none"
         id="path232" /><path
         d="m 11505.7,8221.8 c 10.4,5.9 18.5,14.3 24.4,25 5.8,10.8 8.7,23.1 8.7,37.1 0,13.9 -3,26.2 -8.9,36.8 -6,10.7 -14.1,19 -24.3,24.9 -10.3,6 -21.8,9 -34.4,9 -13,0 -24.5,-3 -34.8,-8.8 -10.3,-5.8 -18.4,-14.1 -24.3,-24.9 -6,-10.7 -9,-23.1 -9,-37 0,-14 3,-26.3 9,-37.1 5.9,-10.7 14,-19.1 24.3,-25 10.3,-6 21.8,-9 34.8,-9 12.6,0 24.2,3 34.5,9 z m 69.2,162.8 v -275.1 h -36.5 v 104.1 c -8.3,-10.7 -18.5,-18.8 -30.6,-24.3 -12,-5.6 -25.2,-8.4 -39.7,-8.4 -19.5,0 -37,4.3 -52.4,12.9 -15.5,8.6 -27.6,20.7 -36.3,36.3 -8.7,15.6 -13.1,33.5 -13.1,53.8 0,20.2 4.4,38.1 13.1,53.6 8.7,15.4 20.8,27.4 36.3,36.1 15.4,8.6 32.9,12.9 52.4,12.9 15,0 28.7,-2.9 41.1,-8.6 12.4,-5.7 22.6,-14.1 30.7,-25.2 v 31.9 h 35"
         style="fill:#8282a8;fill-opacity:1;fill-rule:nonzero;stroke:none"
         id="path234" /><path
         d="m 11831.8,8384.6 v -201.4 h -34.6 v 30.4 c -7.3,-10.4 -17,-18.5 -29.1,-24.1 -12,-5.7 -25.1,-8.6 -39.3,-8.6 -26.8,0 -48,7.4 -63.5,22.2 -15.4,14.9 -23.1,36.7 -23.1,65.6 v 115.9 h 36.5 v -111.7 c 0,-19.5 4.6,-34.3 14,-44.3 9.4,-10 22.8,-15 40.3,-15 19.2,0 34.4,5.8 45.6,17.5 11.1,11.6 16.7,28.1 16.7,49.4 v 104.1 h 36.5"
         style="fill:#8282a8;fill-opacity:1;fill-rule:nonzero;stroke:none"
         id="path236" /><path
         d="m 12002.4,8218.3 c 10.1,6.2 17.5,15 22,26.4 v 28.2 h -56.2 c -30.9,0 -46.4,-10.4 -46.4,-31.2 0,-10.1 4,-18.1 11.8,-23.9 7.9,-5.9 18.8,-8.8 32.7,-8.8 13.9,0 26,3.1 36.1,9.3 z m 36.3,147.7 c 14.8,-13.7 22.2,-34.1 22.2,-61.2 v -121.6 h -34.6 v 26.6 c -6,-9.4 -14.7,-16.6 -26,-21.5 -11.3,-4.9 -24.6,-7.4 -40.1,-7.4 -22.5,0 -40.6,5.5 -54.1,16.3 -13.6,10.9 -20.4,25.2 -20.4,43 0,17.7 6.5,32 19.4,42.7 12.9,10.8 33.5,16.2 61.6,16.2 h 57.7 v 7.2 c 0,15.7 -4.5,27.7 -13.6,36.1 -9.2,8.4 -22.6,12.5 -40.3,12.5 -11.9,0 -23.6,-1.9 -35,-5.9 -11.4,-3.9 -21,-9.1 -28.9,-15.7 l -15.2,27.3 c 10.4,8.4 22.8,14.8 37.3,19.2 14.4,4.5 29.8,6.7 46,6.7 27.8,0 49.2,-6.9 64,-20.5"
         style="fill:#8282a8;fill-opacity:1;fill-rule:nonzero;stroke:none"
         id="path238" /><path
         d="m 12119.1,8188.3 c -5.1,4.9 -7.6,11.2 -7.6,18.8 0,7.4 2.5,13.5 7.6,18.5 5,4.9 11.1,7.4 18.2,7.4 7.1,0 13,-2.4 17.9,-7.3 4.8,-4.8 7.2,-11 7.2,-18.6 0,-7.6 -2.5,-13.9 -7.4,-18.8 -5,-4.9 -10.9,-7.4 -17.7,-7.4 -7.1,0 -13.2,2.5 -18.2,7.4"
         style="fill:#8282a8;fill-opacity:1;fill-rule:nonzero;stroke:none"
         id="path240" /><path
         d="m 6987.09,13899.6 c -844.64,463.8 -980.59,3512 421.01,4573.6 1213.32,919 1360.99,3714.7 3563.4,2810.5 2887.1,-1185.4 3989.1,-6675.7 1970.1,-7380.4 -2875,0 -5954.51,-3.7 -5954.51,-3.7"
         style="fill:#ffd055;fill-opacity:1;fill-rule:nonzero;stroke:none"
         id="path242" /><path
         d="m 12076.4,14729.9 c 0,0 778.7,437.6 905.2,652.8 126.5,215.3 -77.8,215.1 -77.8,215.1 0,0 339.1,370.6 279.9,514.8 -59.1,144.2 -239.6,-7.4 -239.6,-7.4 0,0 203.3,533.8 91.3,579.2 -208.6,84.5 -449.3,-564.5 -449.3,-564.5 0,0 35.4,322.9 -103.9,306.9 -210.1,-24 -169.8,-567.5 -169.8,-567.5 0,0 -53,102.2 -176.1,27 -220.9,-134.8 -59.9,-1156.4 -59.9,-1156.4"
         style="fill:#d6d6ed;fill-opacity:1;fill-rule:nonzero;stroke:none"
         id="path244" /><path
         d="m 12104.4,15876.5 c 123.1,75.1 132.2,11.3 132.2,11.3 0,0 -62.9,498.8 245.6,539 139,18.2 117,-220.4 117,-220.4 0,0 227.6,562.5 436.2,478 l -964.1,-1952.1 c -15.3,131.5 -173.2,1018.2 33.1,1144.2"
         style="fill:#8282a8;fill-opacity:1;fill-rule:nonzero;stroke:none"
         id="path246" /><path
         d="m 12126.3,14732.9 c 0,0 965.4,1 1164.6,168.3 199.3,167.3 -45.1,180.4 -45.1,180.4 0,0 461.3,244.9 454.6,408.2 -6.7,163.3 -163.1,130.4 -163.1,130.4 0,0 318.8,285.6 253.4,424.1 -100.6,212.8 -556.7,-190.8 -556.7,-190.8 0,0 34.9,161.9 -106.6,195.7 -213.3,51 -429.7,-555.5 -429.7,-555.5 0,0 102,273.2 -44.5,242.8 -262.9,-54.4 -526.9,-1003.6 -526.9,-1003.6"
         style="fill:#8282a8;fill-opacity:1;fill-rule:nonzero;stroke:none"
         id="path248" /><path
         d="m 12022.4,14597.4 c 0,0 -784.1,902.1 -847.5,1227.6 -63.4,325.5 168.4,299.6 168.4,299.6 0,0 -237,549.6 -99.2,704.2 137.8,154.6 297,-115.2 297,-115.2 0,0 -18.9,758.7 141.4,766 298.8,13.8 363.3,-812.2 363.3,-812.2 0,0 48.7,326.6 216.2,245.1 252.6,-123 -38.1,-786.1 -38.1,-786.1 0,0 136.6,243.7 257.6,95.2 217.2,-266.6 -459.1,-1624.2 -459.1,-1624.2"
         style="fill:#8282a8;fill-opacity:1;fill-rule:nonzero;stroke:none"
         id="path250" /><path
         d="m 12519.1,16253 c -147.8,121.9 -228.4,33 -228.4,33 0,0 223.9,503.5 -28.7,626.5 -167.5,81.5 -216.2,-245.1 -216.2,-245.1 0,0 -64.5,826 -363.3,812.2 l 345.6,-2871.8 c 133,-25.8 667.2,1500.1 491,1645.2"
         style="fill:#d6d6ed;fill-opacity:1;fill-rule:nonzero;stroke:none"
         id="path252" /><path
         d="m 11933.6,14441.6 c 0,0 -802.7,594.4 -904.7,690 -101.9,95.7 95.2,104 95.2,104 0,0 -256.4,175.9 -249.5,264.8 7,89 126.7,37.3 126.7,37.3 0,0 -195.3,256.4 -144.2,300.4 95.1,82.2 322.1,-185.6 322.1,-185.6 0,0 -65.3,125.1 10.3,140.4 113.9,23.1 241.1,-363.5 241.1,-363.5 0,0 66.9,282.3 143.9,262.5 138,-35.5 359.1,-1250.3 359.1,-1250.3"
         style="fill:#50bfa5;fill-opacity:1;fill-rule:nonzero;stroke:none"
         id="path254" /><path
         d="m 11641.3,13918 h 1140.3 c 145.2,147.7 233.7,351 230.5,574.1 -1.6,112.6 -22.5,210.8 -65.9,307.3 L 11476,14781 c -40.7,-98 -62.5,-205.6 -60.8,-318.2 3,-212.5 88.8,-404.1 226.1,-544.8"
         style="fill:#ff7685;fill-opacity:1;fill-rule:nonzero;stroke:none"
         id="path256" /><path
         d="m 7424.82,14867.5 c 0,0 708.78,543.7 803.43,774.7 94.65,230.9 -107.59,201.8 -107.59,201.8 0,0 174.32,249.8 95.32,384.1 -79.02,134.4 -127.42,123.9 -127.42,123.9 0,0 125.57,557.2 8.27,586.2 -218.49,54.1 -364.74,-622.5 -364.74,-622.5 0,0 -10.74,324.7 -146.4,289.1 -204.58,-53.6 -87.49,-585.9 -87.49,-585.9 0,0 -66.95,93.7 -178.16,1.8 -199.52,-164.8 104.78,-1153.2 104.78,-1153.2"
         style="fill:#b1b1de;fill-opacity:1;fill-rule:nonzero;stroke:none"
         id="path258" /><path
         d="m 7289.87,16006.4 c 111.21,91.9 129.21,29.9 129.21,29.9 0,0 -133.04,484.9 166.61,568.5 135.09,37.7 147.1,-201.6 147.1,-201.6 0,0 145.55,589.1 364.04,535 l -677.38,-2069.1 c -33.77,128 -315.94,983.4 -129.58,1137.3"
         style="fill:#8282a8;fill-opacity:1;fill-rule:nonzero;stroke:none"
         id="path260" /><path
         d="m 7443.42,14732.9 c 0,0 965.34,1 1164.59,168.3 199.25,167.3 -45.15,180.4 -45.15,180.4 0,0 461.35,244.9 454.62,408.2 -6.74,163.3 -163.13,130.4 -163.13,130.4 0,0 318.87,285.6 253.4,424.1 -100.59,212.8 -556.66,-190.8 -556.66,-190.8 0,0 34.88,161.9 -106.57,195.7 -213.3,51 -429.72,-555.5 -429.72,-555.5 0,0 102.02,273.2 -44.52,242.8 -262.92,-54.4 -526.86,-1003.6 -526.86,-1003.6"
         style="fill:#3c8f7c;fill-opacity:1;fill-rule:nonzero;stroke:none"
         id="path262" /><path
         d="m 7339.47,14597.4 c 0,0 -784.11,902.1 -847.49,1227.6 -63.37,325.5 168.41,299.6 168.41,299.6 0,0 -237.02,549.6 -99.19,704.2 137.82,154.6 297.03,-115.2 297.03,-115.2 0,0 -18.97,758.7 141.4,766 298.7,13.8 363.22,-812.2 363.22,-812.2 0,0 48.69,326.6 216.21,245.1 252.64,-123 -38.06,-786.1 -38.06,-786.1 0,0 136.58,243.7 257.63,95.2 217.2,-266.6 -459.16,-1624.2 -459.16,-1624.2"
         style="fill:#8282a8;fill-opacity:1;fill-rule:nonzero;stroke:none"
         id="path264" /><path
         d="m 7836.22,16253 c -147.89,121.9 -228.48,33 -228.48,33 0,0 223.96,503.5 -28.68,626.5 -167.52,81.5 -216.21,-245.1 -216.21,-245.1 0,0 -64.52,826 -363.22,812.2 l 345.53,-2871.8 c 133.05,-25.8 667.21,1500.1 491.06,1645.2"
         style="fill:#d6d6ed;fill-opacity:1;fill-rule:nonzero;stroke:none"
         id="path266" /><path
         d="m 7250.68,14441.6 c 0,0 -807.53,799.2 -910.3,927.6 -102.79,128.5 94.33,137.9 94.33,137.9 0,0 -257.87,236.7 -251.63,355.3 6.24,118.5 126.38,48.7 126.38,48.7 0,0 -197.34,343.5 -146.62,401.9 94.46,108.7 323.68,-250.2 323.68,-250.2 0,0 -66.32,167.4 9.14,187.2 113.79,29.9 244.04,-486.8 244.04,-486.8 0,0 64.73,376 141.84,349 138.34,-48.5 369.14,-1670.6 369.14,-1670.6"
         style="fill:#d6d6ed;fill-opacity:1;fill-rule:nonzero;stroke:none"
         id="path268" /><path
         d="M 6958.39,13918 H 8098.7 c 145.24,147.7 233.72,351 230.49,574.1 -1.63,112.6 -22.46,210.8 -65.91,307.3 L 6793.07,14781 c -40.64,-98 -62.44,-205.6 -60.8,-318.2 3.06,-212.5 88.81,-404.1 226.12,-544.8"
         style="fill:#ff7685;fill-opacity:1;fill-rule:nonzero;stroke:none"
         id="path270" /><path
         d="m 10512.2,16351 h 1063.7 c 174.6,0 316.2,-141.6 316.2,-316.3 v -1153.4 l -1696.2,176.7 v 976.7 c 0,174.7 141.6,316.3 316.3,316.3"
         style="fill:#3e3d51;fill-opacity:1;fill-rule:nonzero;stroke:none"
         id="path272" /><path
         d="m 8119.58,16351 h 2955.02 c 179.2,0 324.4,-145.2 324.4,-324.4 V 14990.7 H 7795.24 v 1035.9 c 0,179.2 145.21,324.4 324.34,324.4"
         style="fill:#8282a8;fill-opacity:1;fill-rule:nonzero;stroke:none"
         id="path274" /><path
         d="m 12208.3,13899.6 -709.4,-7.1 26.7,1898.9 668.7,-4 14,-1887.8"
         style="fill:#3e3d51;fill-opacity:1;fill-rule:nonzero;stroke:none"
         id="path276" /><path
         d="m 12657.7,15480.7 c 0,166.9 -190.1,302.8 -427.6,308.2 v 0.3 0 c -259.5,2.4 -471.5,-157.6 -471.5,-355.8 v -863.1 h 448.6 l 9.6,622.7 c 242.8,1.2 440.9,118.2 440.9,287.7"
         style="fill:#b1b1de;fill-opacity:1;fill-rule:nonzero;stroke:none"
         id="path278" /><path
         d="m 7917.44,15753.6 -668.75,-4.1 -9.69,-1351.1 985.42,1.2 -306.98,1354"
         style="fill:#3e3d51;fill-opacity:1;fill-rule:nonzero;stroke:none"
         id="path280" /><path
         d="m 7461.23,15461.9 c 0,156.7 190.11,284.3 427.57,289.5 v 0.2 0 c 259.51,2.2 471.57,-148 471.57,-334.2 v -810.6 H 7911.7 l -11.31,565.4 c -242.84,1.2 -439.16,130.4 -439.16,289.7"
         style="fill:#3e3d51;fill-opacity:1;fill-rule:nonzero;stroke:none"
         id="path282" /><path
         d="m 6848.13,15461.9 c 0,156.7 176.83,284.3 397.7,289.5 v 0.2 0 c 241.39,2.2 438.64,-148 438.64,-334.2 v -810.6 l -455.93,-1.1 v 356.1 l -2.36,211.8 c -225.87,1.2 -378.05,129 -378.05,288.3"
         style="fill:#b1b1de;fill-opacity:1;fill-rule:nonzero;stroke:none"
         id="path284" /><path
         d="M 12206.9,14757.8 H 7227.05 l -0.28,-858.1 h 4980.13 v 858.1"
         style="fill:#3e3d51;fill-opacity:1;fill-rule:nonzero;stroke:none"
         id="path286" /><path
         d="M 11955.1,14397.6 H 7483.5 c -141.96,0 -257.04,103.7 -257.04,231.6 l 2.28,363.6 4984.96,-0.5 -1.6,-363.1 c 0,-127.9 -115.1,-231.6 -257,-231.6"
         style="fill:#b1b1de;fill-opacity:1;fill-rule:nonzero;stroke:none"
         id="path288" /><path
         d="m 14106.6,13899.6 c 0,11.2 -7.6,20.3 -17,20.3 H 6284.54 c -11.38,0 -20.59,-9.1 -20.59,-20.3 0,-11.2 9.21,-20.2 20.59,-20.2 h 7805.06 c 9.4,0 17,9 17,20.2 v 0"
         style="fill:#333343;fill-opacity:1;fill-rule:nonzero;stroke:none"
         id="path290" /><path
         d="m 10551.4,16407.6 -60.2,28.3 c 0,0 -32.5,0 -67.1,-61.3 -34.6,-61.4 -207.5,-606.8 -194.9,-742 12.5,-135.2 70.7,-190.2 70.7,-190.2 l 222.4,486.5 29.1,478.7"
         style="fill:#f48c7f;fill-opacity:1;fill-rule:nonzero;stroke:none"
         id="path292" /><path
         d="m 10491.7,16437.2 c 0,0 -32.5,12.3 -87,-88.3 -54.5,-100.6 -134.1,-404.5 -134.1,-404.5 l 241,-79.7 27.2,56.6 50.3,488.4 -97.4,27.5"
         style="fill:#d6d6ed;fill-opacity:1;fill-rule:nonzero;stroke:none"
         id="path294" /><path
         d="m 10801.5,16481.4 c -68,-0.1 -236.2,-19.4 -314.3,-43.8 l 51.6,-847.4 -125.7,-333.3 716.8,9.4 c 0,0 59.7,616.2 91.2,716.8 31.4,100.6 107.6,398 107.6,398 0,0 -108.7,49.5 -283.7,79.9 -71.5,12.4 -171,20.5 -243.5,20.4"
         style="fill:#b1b1de;fill-opacity:1;fill-rule:nonzero;stroke:none"
         id="path296" /><path
         d="m 10722.7,16198.1 -37.9,-374.6 c -1.7,-15.9 11,-30.5 28.6,-33.1 l 133.5,-19.4 c 17.4,-2.5 44.6,9 47.9,24.5 l 67.7,371.3 c 3.6,17 -9.8,33.7 -29,36 l -174.4,21.3 c -18.4,2.2 -34.7,-9.5 -36.4,-26"
         style="fill:#3e3d51;fill-opacity:1;fill-rule:nonzero;stroke:none"
         id="path298" /><path
         d="m 10612.7,15845.6 c 0,0 -157,-82.1 -242.1,-121 -60.3,-27.7 -117.4,-72.4 -129.4,-117.7 -17.7,-66.8 27.5,-128.6 60.3,-166.1 55,-62.9 299.8,231.5 352.9,286.1 15.4,15.9 40.7,47.6 57.4,60.3 l -99.1,58.4"
         style="fill:#f7a491;fill-opacity:1;fill-rule:nonzero;stroke:none"
         id="path300" /><path
         d="m 10711.8,15288.3 c 0,0 -588,78.6 -704.3,18.9 -116.3,-59.7 217,-333.2 217,-333.2 0,0 320.3,19.2 414.8,18.6 93.8,-0.5 380.5,-21.8 547.2,0.2 166.6,22 147.7,279.8 116.3,311.3 -31.4,31.4 -591,-15.8 -591,-15.8"
         style="fill:#ece1ef;fill-opacity:1;fill-rule:nonzero;stroke:none"
         id="path302" /><path
         d="m 10324,14169.1 c 0,0 19.9,-56.6 -14.7,-94.3 -34.6,-37.7 -179.2,-75.4 -198,-95.9 -18.9,-20.4 -17.3,-37.7 -17.3,-37.7 l 400.8,3.2 0.5,121.1 -19.3,80.1 -152,23.5"
         style="fill:#f7a491;fill-opacity:1;fill-rule:nonzero;stroke:none"
         id="path304" /><path
         d="m 10284.2,14056 c 0,0 104.8,-37.8 155.1,-14.7 50.3,23 48.7,29.3 63.4,20.9 14.7,-8.3 10.2,-125.7 10.2,-125.7 l -450.9,-6.3 c 0,0 -4.2,52.4 31.5,71.3 35.6,18.8 190.7,54.5 190.7,54.5"
         style="fill:#fbf3ff;fill-opacity:1;fill-rule:nonzero;stroke:none"
         id="path306" /><path
         d="m 10184.6,15227.6 c -38,56.8 -142.5,90.1 -142.5,90.1 0,0 -54.48,23 -136.23,-31.5 -81.73,-54.4 -58.69,-211.6 -8.38,-320.6 50.3,-109 372.51,-747.2 391.41,-837.3 l 198.1,17.3 c 0,0 -94.9,520.3 -117.9,646 -22.2,121 -118.7,337.6 -184.5,436"
         style="fill:#fbf3ff;fill-opacity:1;fill-rule:nonzero;stroke:none"
         id="path308" /><path
         d="m 10924.5,14303.3 c 0,0 -16.3,-170.3 -46.1,-217.5 -29.9,-47.1 1.5,-127.3 3.1,-138.3 1.6,-11 62.9,-26.7 160.4,-17.3 97.4,9.4 95.8,29.9 88,62.9 -7.9,33 -59.7,75.4 -62.9,106.9 -3.1,31.4 29.9,144.6 29.9,144.6 l -172.4,58.7"
         style="fill:#f7a491;fill-opacity:1;fill-rule:nonzero;stroke:none"
         id="path310" /><path
         d="m 11052.3,13907.1 c 97.5,9.5 85.4,53 77.6,86 -4.9,20.6 -27.1,45 -43.8,68.1 -8.7,-6.3 -28.6,-17.5 -71,-28.8 -43.9,-11.8 -111.3,9.3 -149.7,23.9 -13.6,-46.2 -7.2,-103 -5.9,-111.9 1.6,-11.1 95.4,-46.7 192.8,-37.3"
         style="fill:#fbf3ff;fill-opacity:1;fill-rule:nonzero;stroke:none"
         id="path312" /><path
         d="m 10993.7,15003.3 c -24.3,-138.6 -120.6,-832.1 -120.6,-832.1 l 232.7,-26.2 c 0,0 286.1,904.4 271.4,1042.7 -14.7,138.4 -115.3,127.9 -115.3,127.9 0,0 -211.7,10.5 -268.2,-312.3"
         style="fill:#fbf3ff;fill-opacity:1;fill-rule:nonzero;stroke:none"
         id="path314" /><path
         d="m 10833.3,15932.3 c 0,0 36.9,41.3 49.4,61.8 26.7,44.1 11.1,81.5 -8.6,39.3 -19.8,-42.1 -59.4,-69.5 -59.4,-69.5 0,0 34.7,51.5 43.2,73.7 3.4,8.9 12.2,32.8 9.5,42 -4.2,13.8 -22.9,7.5 -33.6,-28.9 -7.4,-25.3 -27.3,-40.6 -53.3,-63 -35.9,-31.2 -71.8,-47.3 -75.6,-40.2 -4.9,9.3 -3.4,41.4 -3.4,41.4 -21.9,-12 -42.1,-31.9 -49.4,-45.4 -14.6,-27.3 -37.6,-94.5 -37.6,-94.5 -13.2,-12.6 -27.6,-24.5 -39.4,-38.6 0,0 77.8,-93.9 90.4,-61.4 2.3,5.9 16.5,11.9 32,24.2 33.9,26.7 86.7,69 126.1,105.6 42.2,39.2 68.6,82.1 64.8,86.4 -8.9,10.2 -55.1,-32.9 -55.1,-32.9"
         style="fill:#f7a491;fill-opacity:1;fill-rule:nonzero;stroke:none"
         id="path316" /><path
         d="m 10862.7,16594.2 -29.1,-112.3 c 0,0 -10,-160.6 25.9,-196.9 36,-36.4 151,182.3 151,182.3 l 33.3,279.9 -181.1,-153"
         style="fill:#f7a491;fill-opacity:1;fill-rule:nonzero;stroke:none"
         id="path318" /><path
         d="m 10842.5,16516.2 c 68.5,10.6 165.3,83.9 200.8,229.6 l -180.6,-151.6 -20.2,-78"
         style="fill:#f47458;fill-opacity:1;fill-rule:nonzero;stroke:none"
         id="path320" /><path
         d="m 10868.7,17016.9 c -43.1,0.8 -82.4,-28.6 -98.2,-71.5 -13.1,-35.6 -19.3,-84.2 -30.5,-144.9 -20.6,-111.8 30.7,-219.7 85.9,-228.7 55.3,-9.1 187.7,25.7 219.4,184 13.5,67.9 31.4,157 -23.7,204.7 -42.8,37.2 -103.4,55.5 -152.9,56.4"
         style="fill:#f7a491;fill-opacity:1;fill-rule:nonzero;stroke:none"
         id="path322" /><path
         d="m 11030.2,16633.4 c 0,0 193,173.2 203.7,309.4 10.6,136.2 -113.7,211.2 -220.9,216.7 -48.5,2.4 -81.3,0.8 -131.4,-4.8 -107.8,-11.9 -178.2,-58.6 -155,-147.4 31,-119.2 255.7,-22.5 300.8,-60.1 37.1,-31 -25,-103.1 11.1,-131.6 33.9,-26.7 17.1,-18.8 4.9,-68.5 -12.1,-49.7 -13.2,-113.7 -13.2,-113.7"
         style="fill:#333343;fill-opacity:1;fill-rule:nonzero;stroke:none"
         id="path324" /><path
         d="m 11093.6,16785.2 c -8.7,-31.9 -31.4,-53.4 -50.6,-48.2 -19.2,5.3 -27.7,35.4 -19,67.3 8.8,31.8 31.4,53.4 50.7,48.1 19.2,-5.3 27.7,-35.4 18.9,-67.2"
         style="fill:#f7a491;fill-opacity:1;fill-rule:nonzero;stroke:none"
         id="path326" /><path
         d="m 11330,16380.8 c -84.3,31 -105.7,-866.1 -105.7,-866.1 -78.2,-51.8 -321.5,-215.3 -374.1,-241 -21.4,-10.5 -78.8,-21.1 -100.7,-30.4 -22.5,-9.5 -42.2,-19.1 -51.4,-26.8 -3.4,-2.9 -82.5,-105.6 -85.9,-119.9 -4.2,-17.8 -16.8,-64 -4.2,-73.4 12.6,-9.4 36.7,68.1 36.7,68.1 l 17.1,29.1 c -13.4,-49.2 -50,-125 -32.3,-134.5 17.2,-9.3 47.4,63.6 69.8,114.3 -15.6,-49.3 -25.2,-126.8 -10.5,-129.4 13.2,-2.4 23.4,86.8 63.4,134.1 14.9,17.6 44.6,10.4 60.8,16.8 11.9,4.8 30.7,11.1 39.6,20.3 l 45.8,47.3 c 19.7,9.3 42,18.8 63.3,26 24.7,8.2 59.6,24.6 91.7,34.3 184.4,55.5 230.5,68.1 287.1,77.5 56.6,9.5 83.6,156.7 91.7,386 8.9,255.4 53.5,610.7 -102.2,667.7"
         style="fill:#f7a491;fill-opacity:1;fill-rule:nonzero;stroke:none"
         id="path328" /><path
         d="m 11452.9,15787.4 c 12.4,244.5 17.4,542 -122.9,593.4 -55.3,20.3 -110.6,-344.8 -142.2,-598.3 74.9,-6.1 184.8,-10.9 265.1,4.9"
         style="fill:#d6d6ed;fill-opacity:1;fill-rule:nonzero;stroke:none"
         id="path330" /><path
         d="m 8201.46,16131.4 c 0,8.9 10.98,66.5 10.98,66.5 0,0 -25.6,81.5 -28.21,81.7 -52.7,3.8 -92.45,-32 -83.54,-80.2 l 0.5,-1.5 c 27.3,-87.1 100.69,-151.8 190.5,-167.9 20.48,-3.7 42.15,-7.5 64.35,-11.4 -10.45,34.9 -16.88,70.7 -16.53,107.4 -77,0.6 -138.05,2.1 -138.05,5.4"
         style="fill:#f7a491;fill-opacity:1;fill-rule:nonzero;stroke:none"
         id="path332" /><path
         d="m 9092.48,16491.4 c -1.46,4.4 -463.24,-296 -463.24,-296 0,0 -197.1,-1.9 -342.7,-0.7 -0.39,-44 6.73,-86.8 18.3,-128.6 143.87,-27.3 307.81,-56 345.1,-53.2 69.48,5.4 417.95,179.3 417.95,179.3 0,0 25.67,295.9 24.59,299.2"
         style="fill:#8282a8;fill-opacity:1;fill-rule:nonzero;stroke:none"
         id="path334" /><path
         d="m 9097.65,15369.8 c -0.96,7.6 -98.52,342.2 -108.69,641.9 -7.9,232.3 64.04,440.7 100.93,478.7 13.62,14.2 140.39,44.7 140.39,44.7 l -46.15,-76.7 c -46.92,-88.5 -59.65,-166.9 -80.01,-266.9 -59.05,-289.8 206.28,-869.7 192.8,-873.4 -15.05,-4.2 -195.5,22.1 -199.27,51.7"
         style="fill:#b1b1de;fill-opacity:1;fill-rule:nonzero;stroke:none"
         id="path336" /><path
         d="m 8085.63,16539.5 -81.05,-53 242.33,-407.8 76.14,331.2 -237.42,129.6"
         style="fill:#fbf3ff;fill-opacity:1;fill-rule:nonzero;stroke:none"
         id="path338" /><path
         d="m 8135.73,16603.6 101.83,-338.5 81.61,146.2 z"
         style="fill:#fbf3ff;fill-opacity:1;fill-rule:nonzero;stroke:none"
         id="path340" /><path
         d="m 8808.4,16642.7 78.34,-284.3 -577.28,52.4 z"
         style="fill:#fbf3ff;fill-opacity:1;fill-rule:nonzero;stroke:none"
         id="path342" /><path
         d="m 7993.21,16486.5 334.71,-709.1 c 1.52,-3.2 4.43,-5.6 7.91,-6.4 l 223.55,-62.2 -285.68,702.5 -266.17,91.2 c -9.75,3.3 -18.71,-6.7 -14.32,-16"
         style="fill:#3e3d51;fill-opacity:1;fill-rule:nonzero;stroke:none"
         id="path344" /><path
         d="m 9132.31,17156.4 c 0,0 61.85,84.3 130.87,0 0,0 41.08,30.5 77.72,-9.8 0,0 76.86,34.2 111.4,-82.9 0,0 40.14,13 51.77,-35.2 11.63,-48.2 -9.07,-83.9 -9.07,-83.9 0,0 25.3,-14.4 20.5,-60.7 -4.07,-39.3 -34.95,-49.1 -34.95,-49.1 0,0 -0.37,-65.5 -25.85,-88.5 -25.47,-22.9 -64.67,-18.4 -64.67,-18.4 0,0 -5.65,-36.2 -38.63,-37.2 -32.99,-1.1 -77.27,24.9 -111.96,6.3 -34.7,-18.6 -131.23,-15.9 -131.23,-15.9 0,0 -112.29,33.9 -94.25,146.5 0,0 -62.25,43.4 -21.04,110.1 0,0 -47.7,90.1 15.82,154.9 63.53,64.9 123.57,63.8 123.57,63.8"
         style="fill:#333343;fill-opacity:1;fill-rule:nonzero;stroke:none"
         id="path346" /><path
         d="m 8427.34,14280.8 c 0,0 -16.68,-176.2 23.45,-243.2 -70.03,-69 -290.95,-45.5 -227.96,-18.7 14.49,6.2 60.13,29.3 63.63,32.3 18.73,16.1 -37.03,307.5 -37.03,307.5 l 177.91,-77.9"
         style="fill:#f7a491;fill-opacity:1;fill-rule:nonzero;stroke:none"
         id="path348" /><path
         d="m 8281.57,14048.3 c 0,0 64.37,-32.8 169.2,-11.5 0,0 27.36,-43.9 31.91,-101.4 0.79,-9.9 2.7,-24.8 -7.13,-26.3 -35.64,-5.5 -471.49,0 -483.22,18.4 -10.5,28.6 289.24,120.8 289.24,120.8"
         style="fill:#ece1ef;fill-opacity:1;fill-rule:nonzero;stroke:none"
         id="path350" /><path
         d="m 8265.28,14103.1 c 17.22,17.5 -174.5,960.9 -81.52,1051.9 92.99,91.1 714.27,225.2 714.27,225.2 l 294.74,73.2 c 0,0 46.55,137.9 151.68,-18.9 57.49,-85.7 -1.29,-281.2 -11.64,-302.7 -88.74,-184.8 -307.97,-194.1 -467.46,-192.5 -146.74,1.5 -407.27,3.5 -407.27,3.5 l -0.65,-833.9 c 0,0 -64.05,-15.5 -114.51,-13.6 -69.02,2.6 -77.64,7.8 -77.64,7.8"
         style="fill:#db6577;fill-opacity:1;fill-rule:nonzero;stroke:none"
         id="path352" /><path
         d="m 8792.6,14271.4 c 0,0 -16.68,-176.3 23.44,-243.3 -70.03,-69 -290.94,-45.5 -227.95,-18.6 14.49,6.1 60.11,29.2 63.61,32.3 18.73,16.1 -37.02,307.4 -37.02,307.4 l 177.92,-77.8"
         style="fill:#f7a491;fill-opacity:1;fill-rule:nonzero;stroke:none"
         id="path354" /><path
         d="m 8646.82,14038.9 c 0,0 64.37,-32.8 169.2,-11.5 0,0 27.36,-44 31.91,-101.5 0.79,-9.9 -9.91,-18.8 -19.75,-20.4 -35.64,-5.4 -457.03,-5.8 -489.27,12.5 -18.91,39.8 307.91,120.9 307.91,120.9"
         style="fill:#fbf3ff;fill-opacity:1;fill-rule:nonzero;stroke:none"
         id="path356" /><path
         d="m 8630.53,14103.1 c 17.21,17.5 -174.5,960.9 -81.52,1051.9 92.99,91.1 714.27,225.2 714.27,225.2 l 81.51,287.3 c 0,0 259.78,-76.2 364.91,-233 57.49,-85.7 -1.28,-281.2 -11.64,-302.7 -88.73,-184.8 -307.97,-194.1 -467.46,-192.5 -146.73,1.5 -407.27,3.5 -407.27,3.5 l -0.64,-833.9 c 0,0 -64.06,-15.5 -114.53,-13.6 -69.02,2.6 -77.63,7.8 -77.63,7.8"
         style="fill:#ff7685;fill-opacity:1;fill-rule:nonzero;stroke:none"
         id="path358" /><path
         d="m 9206.45,16514.9 168.25,60.4 c 0,0 5.08,-0.2 6.62,0 18.06,2.3 216.59,-647.4 281.38,-893.1 64.78,-245.7 -20.07,-199.1 -20.07,-199.1 0,0 -149.5,-107 -322.21,-113.1 -158.64,-5.5 -177.53,123.5 -177.53,123.5 0,0 -59.56,552 -48.48,705.8 11.09,153.8 112.04,315.6 112.04,315.6"
         style="fill:#fbf3ff;fill-opacity:1;fill-rule:nonzero;stroke:none"
         id="path360" /><path
         d="m 9209.14,16647 -0.66,-82.8 -0.11,-14.7 c 0,0 -11.44,-141.8 29.17,-163.7 40.61,-21.9 137.07,189.5 137.07,189.5 l -43.67,240.5 -121.8,-168.8"
         style="fill:#f7a491;fill-opacity:1;fill-rule:nonzero;stroke:none"
         id="path362" /><path
         d="m 9345.06,16737.6 c -20.26,-86.7 -87.06,-146.9 -136.55,-173.3 l 0.64,82.7 121.8,168.8 14.11,-78.2"
         style="fill:#f47458;fill-opacity:1;fill-rule:nonzero;stroke:none"
         id="path364" /><path
         d="m 9212.54,17060.1 c -78.87,16.4 -153.05,-44 -154.71,-123.3 -0.72,-34.5 0.14,-77.7 5.2,-124.3 12.16,-112.3 83.93,-213.9 134.77,-207.4 50.84,6.4 182.18,96.7 167.1,256.3 -9.3,98.5 -69.59,181.5 -152.36,198.7"
         style="fill:#f7a491;fill-opacity:1;fill-rule:nonzero;stroke:none"
         id="path366" /><path
         d="m 9329.04,16844.1 c 3.13,-24.7 22.04,-42.7 42.24,-40.1 20.19,2.6 34.03,24.7 30.9,49.4 -3.13,24.7 -22.04,42.6 -42.24,40 -20.19,-2.5 -34.03,-24.6 -30.9,-49.3"
         style="fill:#f7a491;fill-opacity:1;fill-rule:nonzero;stroke:none"
         id="path368" /><path
         d="m 8985.21,17087.9 c -47.24,-48.3 -57.63,-113.8 -23.2,-146.4 34.42,-32.6 100.63,-19.9 147.87,28.4 47.24,48.2 57.63,113.8 23.21,146.4 -34.43,32.6 -100.63,19.9 -147.88,-28.4"
         style="fill:#333343;fill-opacity:1;fill-rule:nonzero;stroke:none"
         id="path370" /><path
         d="m 9126.85,17071.2 c 2.29,-18.1 25.98,-30 52.91,-26.6 26.92,3.4 46.9,20.9 44.61,39 -2.3,18 -25.98,29.9 -52.91,26.5 -26.93,-3.4 -46.9,-20.8 -44.61,-38.9"
         style="fill:#333343;fill-opacity:1;fill-rule:nonzero;stroke:none"
         id="path372" /><path
         d="m 8999.39,16913.7 c 2.95,-23.3 23.98,-39.8 46.97,-36.8 22.99,2.9 39.23,24.1 36.29,47.3 -2.95,23.3 -23.98,39.7 -46.97,36.8 -22.98,-2.9 -39.23,-24.1 -36.29,-47.3"
         style="fill:#333343;fill-opacity:1;fill-rule:nonzero;stroke:none"
         id="path374" /><path
         d="m 9374.6,16575.3 c 0,0 164.68,26.8 220.02,3.2 35.2,-15 80,-313.6 80,-313.6 0,0 1.82,-302 22.39,-387.2 69.8,-288.7 167.25,-541.5 156.32,-555.7 -71.61,-58.9 -371.25,-113.5 -394.01,-85.4 -251.42,309.7 -84.72,1338.7 -84.72,1338.7"
         style="fill:#b1b1de;fill-opacity:1;fill-rule:nonzero;stroke:none"
         id="path376" /><path
         d="m 9649.53,16269.2 c 0,0 -164.93,-509.8 -237.07,-563.2 -72.16,-53.5 -396.65,446.7 -396.65,446.7 0,0 -143.63,81.5 -153.85,82.4 -40.74,3.4 84.94,24.3 84.94,24.3 l 15.53,130.1 c 0,0 6.15,-1 43.67,-43.2 50.74,-57.1 94.8,-145.7 115.49,-160.6 l 217.38,-165 110.64,353.3 199.92,-104.8"
         style="fill:#f7a491;fill-opacity:1;fill-rule:nonzero;stroke:none"
         id="path378" /><path
         d="m 8273.7,16411.3 68.27,6.7 292.59,-728.2 -75.2,19.1 -285.66,702.4"
         style="fill:#333343;fill-opacity:1;fill-rule:nonzero;stroke:none"
         id="path380" /><path
         d="m 8924.4,16588.7 176.09,-857.2 c 2.91,-14.2 -7.64,-27.6 -22.09,-28 l -443.83,-13.7 -292.6,728.1 552.09,188.2 c 13.28,4.5 27.52,-3.6 30.34,-17.4"
         style="fill:#3e3d51;fill-opacity:1;fill-rule:nonzero;stroke:none"
         id="path382" /><path
         d="m 9103.15,16216.7 -56.28,-123.2 c 0,0 276.58,-455.2 361.99,-429.9 85.4,25.2 246.49,518.2 271.73,654.1 25.23,135.8 -27.18,248.4 -97.05,265.9 -69.88,17.5 -124.22,-100.9 -145.58,-151.4 -21.35,-50.5 -98.99,-411.5 -98.99,-411.5 l -235.82,196"
         style="fill:#d6d6ed;fill-opacity:1;fill-rule:nonzero;stroke:none"
         id="path384" /><path
         d="m 8119.82,16210 c 0,0 -10.37,18.2 -13.7,29.3 -3.32,11.1 64.76,49.7 91.71,32.1 26.94,-17.6 -45.02,-44.4 -78.01,-61.4"
         style="fill:#f7a491;fill-opacity:1;fill-rule:nonzero;stroke:none"
         id="path386" /><path
         d="m 8122.66,16165.4 c 0,0 -17.09,18 -20.41,29.1 -3.33,11.1 87.26,56.7 114.21,39.1 26.95,-17.6 -60.82,-51.1 -93.8,-68.2"
         style="fill:#f7a491;fill-opacity:1;fill-rule:nonzero;stroke:none"
         id="path388" /><path
         d="m 8153.71,16134.4 c 0,0 -17.09,17.9 -20.41,29 -3.33,11.1 64.76,49.8 91.7,32.2 26.94,-17.7 -38.3,-44.2 -71.29,-61.2"
         style="fill:#f7a491;fill-opacity:1;fill-rule:nonzero;stroke:none"
         id="path390" /><path
         d="m 8976.99,16339 h -14.14 c -6.72,0 -13.38,0.7 -19.93,2.2 -26.12,5.7 -97.55,19.8 -103.1,5.6 -6.78,-17.5 102.88,-37.9 102.88,-37.9 0,0 -120.34,15.6 -120.34,-4.8 0,-20.4 122.28,-31.1 122.28,-31.1 0,0 -106.75,3.9 -108.69,-7.7 -1.95,-11.7 131.01,-44.7 131.01,-44.7 0,0 -107.72,23.3 -118.4,9.7 -10.67,-13.6 168.87,-79.1 168.87,-79.1 l -40.44,187.8"
         style="fill:#f7a491;fill-opacity:1;fill-rule:nonzero;stroke:none"
         id="path392" /><path
         d="m 8153.71,16134.4 c 0,0 58.87,33.2 74.4,22.8 15.52,-10.3 -50.46,-60.1 -50.46,-60.1 l 7.92,-18.2 c 0,0 -42.2,32.6 -31.86,55.5"
         style="fill:#f7a491;fill-opacity:1;fill-rule:nonzero;stroke:none"
         id="path394" /><path
         d="m 9392.96,19484 c 1001.74,76.9 1447.84,-27.4 1341.94,-933.6 -69.7,-595.8 -501.1,-757.9 -1500.65,-595.9 -334.67,54.3 -411.47,370.4 -411.89,733.2 -0.49,428.4 111.11,761.1 570.6,796.3"
         style="fill:#fbf3ff;fill-opacity:1;fill-rule:nonzero;stroke:none"
         id="path396" /><path
         d="m 9862.66,18160.3 c -188.4,-14.8 -210.22,238.3 -19.91,253.2 187.45,14.8 207.55,-238.5 19.91,-253.2 z m -139.17,315.8 c -27.61,57.8 -35.2,144 -5.11,212.4 50.73,115.4 190.32,162.5 180.04,293.2 -2.59,33 -17.24,59.5 -38.83,76.5 -56.82,44.9 -148.23,21.2 -213.47,-10.2 -41.67,-20 -80.38,-48.4 -116.09,-85.1 l -18.15,230.9 c 78.32,55.6 173.08,84.7 267.66,92.1 193.83,15.2 343.46,-57.5 358.76,-251.3 13.9,-176.8 -105.6,-255.2 -185.79,-343.6 -44.49,-49 -54.54,-86.8 -51.1,-130.6 1.78,-22.6 10.27,-50.6 23.91,-68.4 l -201.83,-15.9"
         style="fill:#88aa00;fill-opacity:1;fill-rule:nonzero;stroke:none"
         id="path398" /><path
         d="m 10567.8,17857.7 c -159.7,-185.2 149.2,-305.8 261.2,-274.7 161.4,44.8 223.5,377.8 99,424.7 -94.7,35.7 -225.8,5.9 -360.2,-150"
         style="fill:#fbf3ff;fill-opacity:1;fill-rule:nonzero;stroke:none"
         id="path400" /><path
         d="m 10773.9,17443.8 c -48,-9.3 -57.5,-110.7 4.4,-106.2 62,4.4 132.7,132.7 -4.4,106.2"
         style="fill:#fbf3ff;fill-opacity:1;fill-rule:nonzero;stroke:none"
         id="path402" /></g></g></svg>
